<svg xmlns="http://www.w3.org/2000/svg" xmlns:xlink="http://www.w3.org/1999/xlink" width="500pt" height="200" viewBox="0 0 500 150"><defs><symbol overflow="visible" id="huawei-ru_svg__a"><path d="M29.516-11.75H11.953L7.656 0H-.062L17.14-43.86h7.297L42.016 0h-8.11zm-15.344-5.953h13.11l-4.704-12.578a84.118 84.118 0 01-1.906-5.75c-.563 1.867-1.18 3.77-1.844 5.703zm0 0"/></symbol><symbol overflow="visible" id="huawei-ru_svg__b"><path d="M4.781-24.672c0-2.426-.082-5.094-.234-8h7.016c.257 1.356.44 2.742.546 4.156 2.903-3.164 6.235-4.75 9.985-4.75 2.183 0 4.207.555 6.062 1.657 1.852 1.093 3.348 2.832 4.485 5.203 1.144 2.367 1.718 5.379 1.718 9.031 0 3.813-.652 7.074-1.953 9.781-1.304 2.7-3.129 4.746-5.468 6.14-2.336 1.4-5.04 2.095-8.11 2.095-2.219 0-4.41-.38-6.562-1.125v13.5l-7.485.64zM17.797-4.906c2.902 0 5.117-1.02 6.64-3.063 1.528-2.05 2.297-5.047 2.297-8.984 0-3.652-.632-6.305-1.89-7.953-1.262-1.645-2.946-2.469-5.047-2.469a8.21 8.21 0 00-4.031 1.031c-1.23.688-2.399 1.614-3.5 2.766v17.5c.738.355 1.601.644 2.593.86.989.21 1.97.312 2.938.312zm0 0"/></symbol><symbol overflow="visible" id="huawei-ru_svg__c"><path d="M24.313.61c-4.407 0-8.227-.891-11.454-2.672-3.23-1.79-5.714-4.352-7.453-7.688-1.73-3.332-2.593-7.27-2.593-11.813 0-4.914 1-9.093 3-12.53 1.996-3.446 4.718-6.032 8.156-7.75 3.445-1.727 7.304-2.594 11.578-2.594 2.52 0 4.926.277 7.219.828a31.547 31.547 0 016.406 2.28l-1.906 5.75c-3.98-1.894-7.774-2.843-11.375-2.843-3.055 0-5.727.652-8.016 1.953-2.293 1.305-4.074 3.223-5.344 5.75-1.273 2.524-1.906 5.57-1.906 9.14 0 3.126.488 5.903 1.469 8.329.976 2.418 2.52 4.336 4.625 5.75 2.113 1.406 4.773 2.11 7.984 2.11 1.457 0 2.91-.118 4.36-.36a22.19 22.19 0 004.093-1.063v-8.875h-10.14V-21.5h17.406v18.469a38.379 38.379 0 01-7.906 2.703c-2.75.621-5.489.937-8.203.937zm0 0"/></symbol><symbol overflow="visible" id="huawei-ru_svg__d"><path d="M23.953 0c-.273-1.27-.445-2.71-.515-4.328-1.157 1.375-2.66 2.543-4.5 3.5-1.844.957-3.93 1.437-6.25 1.437C10.812.61 9.098.24 7.546-.5a8.536 8.536 0 01-3.672-3.328c-.906-1.488-1.36-3.3-1.36-5.438 0-3.164 1.141-5.691 3.422-7.578 2.278-1.883 6.083-2.828 11.407-2.828 1.996 0 3.976.145 5.937.422v-.64c0-2.883-.617-4.915-1.843-6.094-1.231-1.184-2.997-1.782-5.297-1.782-1.594 0-3.305.239-5.125.703-1.813.461-3.41 1.012-4.782 1.657l-1.171-5.438c1.32-.601 3.07-1.156 5.25-1.656 2.183-.508 4.488-.766 6.906-.766 2.832 0 5.234.43 7.203 1.282 1.976.855 3.523 2.332 4.64 4.422 1.114 2.085 1.672 4.894 1.672 8.421v13c0 1.344.078 3.395.235 6.141zm-9.062-4.938c1.496 0 3.023-.367 4.578-1.109 1.55-.746 2.82-1.68 3.812-2.797v-6.047c-2.043-.226-3.71-.343-5-.343-3.086 0-5.222.504-6.406 1.5-1.18 1-1.766 2.351-1.766 4.046 0 1.618.426 2.817 1.282 3.594.863.774 2.03 1.157 3.5 1.157zm0 0"/></symbol><symbol overflow="visible" id="huawei-ru_svg__e"><path d="M12.328.61c-5.187 0-7.781-2.817-7.781-8.454v-38.593l7.437-.61v37.875c0 1.399.235 2.383.704 2.953.476.574 1.234.86 2.265.86.465 0 1.125-.11 1.969-.329l.875 5.36c-.711.281-1.574.504-2.594.672a16.857 16.857 0 01-2.875.265zm0 0"/></symbol><symbol overflow="visible" id="huawei-ru_svg__f"><path d="M31.422-15.375H10.047c.34 6.844 3.601 10.266 9.781 10.266 1.527 0 3.098-.188 4.703-.563a28.308 28.308 0 004.625-1.5l1.625 5.11C27.133-.282 23.027.608 18.47.608 15 .61 12.07-.047 9.687-1.359c-2.386-1.309-4.18-3.196-5.374-5.657-1.2-2.464-1.797-5.437-1.797-8.906 0-3.613.632-6.723 1.906-9.328 1.27-2.602 3.039-4.586 5.312-5.953 2.27-1.371 4.891-2.063 7.86-2.063 3.082 0 5.656.727 7.718 2.172 2.07 1.438 3.61 3.364 4.61 5.766.996 2.398 1.5 5.05 1.5 7.953zm-7.297-4.75c-.137-2.602-.793-4.555-1.969-5.86-1.168-1.3-2.73-1.953-4.687-1.953-1.899 0-3.477.66-4.735 1.97-1.261 1.312-2.086 3.261-2.468 5.843zm0 0"/></symbol><symbol overflow="visible" id="huawei-ru_svg__g"><path d="M4.781-24.469c0-1.789-.082-4.523-.234-8.203h6.984c.121.918.239 2.008.344 3.266a93.53 93.53 0 01.234 3.062c.864-1.426 1.711-2.629 2.547-3.61.84-.976 1.82-1.773 2.938-2.39 1.12-.613 2.406-.922 3.843-.922 1.145 0 2.133.121 2.97.36l-.938 6.484a8.152 8.152 0 00-2.422-.344c-1.762 0-3.3.457-4.61 1.36-1.312.898-2.714 2.37-4.203 4.422V0H4.781zm0 0"/></symbol><symbol overflow="visible" id="huawei-ru_svg__h"><path d="M5.031 13.656a19.96 19.96 0 01-3.515-.297c-1.094-.187-1.993-.402-2.704-.64L.188 7.266c.497.144 1.13.28 1.891.406.77.133 1.5.203 2.188.203 3.308 0 5.796-2.133 7.453-6.39l.484-1.22L.156-32.671h8.016l6.062 18.406c.989 3.157 1.625 5.57 1.907 7.235a89.086 89.086 0 012-7.078l6.14-18.563h7.532L19.797.422c-1.125 3.121-2.348 5.644-3.656 7.562-1.313 1.926-2.868 3.352-4.657 4.282-1.78.925-3.933 1.39-6.453 1.39zm0 0"/></symbol><symbol overflow="visible" id="huawei-ru_svg__i"><path d="M12.453.313c-2.273 0-4.238-.473-5.89-1.422a9.413 9.413 0 01-3.797-3.985c-.875-1.715-1.313-3.71-1.313-5.984 0-2.383.461-4.469 1.39-6.25a9.837 9.837 0 014.032-4.14c1.758-.977 3.832-1.47 6.219-1.47 2.277 0 4.242.477 5.89 1.422 1.645.938 2.899 2.262 3.766 3.97.863 1.71 1.297 3.69 1.297 5.937 0 2.43-.477 4.539-1.422 6.328-.938 1.793-2.285 3.176-4.031 4.14-1.742.97-3.79 1.454-6.14 1.454zm.235-3.094c1.57 0 2.906-.364 4-1.094 1.09-.738 1.91-1.75 2.453-3.031.539-1.29.812-2.766.812-4.422 0-1.621-.242-3.07-.719-4.344-.48-1.27-1.246-2.281-2.297-3.031-1.054-.758-2.41-1.14-4.062-1.14-1.586 0-2.93.386-4.031 1.155-1.106.762-1.934 1.79-2.485 3.079-.554 1.28-.828 2.699-.828 4.25 0 1.636.258 3.101.782 4.39.519 1.293 1.316 2.317 2.39 3.063 1.07.75 2.399 1.125 3.985 1.125zm0 0"/></symbol><symbol overflow="visible" id="huawei-ru_svg__j"><path d="M7.422-19.36H.406l.344-3.265h17.61L18-19.359h-6.672V0H7.422zm0 0"/></symbol><symbol overflow="visible" id="huawei-ru_svg__k"><path d="M20.625 0h-4.406L9.484-9.969H6.813V0H2.905v-22.625h3.906v9.344H8.86l4.688-6.781c.683-1.008 1.375-1.739 2.062-2.188.696-.457 1.57-.688 2.625-.688.871 0 1.657.149 2.344.438l-.812 3.047c-.43-.176-.836-.266-1.22-.266-.46 0-.855.117-1.187.344-.324.23-.664.602-1.015 1.11l-4.14 5.937zm0 0"/></symbol><symbol overflow="visible" id="huawei-ru_svg__l"><path d="M2.906-22.625H9c2.863 0 5.055.586 6.578 1.75 1.52 1.168 2.281 2.855 2.281 5.063 0 1.5-.347 2.816-1.03 3.937-.68 1.117-1.63 1.977-2.845 2.578-1.218.594-2.62.89-4.203.89-.867 0-1.855-.1-2.969-.312V0H2.906zm6.156 11.234c1.59 0 2.805-.375 3.641-1.125.832-.757 1.25-1.828 1.25-3.203 0-1.394-.43-2.398-1.281-3.015-.844-.614-2.09-.922-3.735-.922H6.813v8.031c.976.156 1.726.234 2.25.234zm0 0"/></symbol><symbol overflow="visible" id="huawei-ru_svg__m"><path d="M18.438 0v-12.438c0-1.558.054-3.351.171-5.374L7.25 0H2.906v-22.625h3.625v12.922c0 1.406-.05 2.945-.14 4.61l11.187-17.532h4.485V0zm-5.766-23.938c-1.211 0-2.227-.218-3.047-.656-.824-.433-1.457-1-1.89-1.687a5.623 5.623 0 01-.813-2.219h2.812c.301 1.668 1.282 2.5 2.938 2.5 1.652 0 2.64-.832 2.953-2.5h2.828a5.649 5.649 0 01-.828 2.219c-.43.687-1.059 1.254-1.89 1.687-.825.438-1.848.657-3.063.657zm0 0"/></symbol><symbol overflow="visible" id="huawei-ru_svg__n"><path d="M2.906-22.625h13.328l-.375 3.219H6.813v6.234h8.53v3.016h-8.53v6.906h9.53L16.017 0H2.906zm0 0"/></symbol><symbol overflow="visible" id="huawei-ru_svg__p"><path d="M13-12.156a7.27 7.27 0 012.75.984 5.373 5.373 0 011.906 1.953c.465.805.703 1.746.703 2.828 0 1.262-.32 2.38-.953 3.344-.625.961-1.55 1.711-2.765 2.25C13.43-.266 11.977 0 10.28 0H2.906v-22.625H9.97c2.394 0 4.191.465 5.39 1.39 1.196.93 1.797 2.2 1.797 3.813 0 1.344-.386 2.473-1.156 3.375-.762.899-1.762 1.527-3 1.89zm-6.281-1.219h2.437c.809 0 1.524-.16 2.14-.484.622-.32 1.102-.754 1.438-1.297.332-.551.5-1.156.5-1.813 0-.926-.34-1.617-1.015-2.078-.668-.457-1.637-.687-2.906-.687H6.719zM9.656-2.891c1.614 0 2.817-.32 3.61-.968.8-.653 1.203-1.579 1.203-2.766 0-1.258-.446-2.219-1.328-2.875-.875-.652-2.145-.984-3.797-.984H6.719v7.593zm0 0"/></symbol></defs><path d="M464.727 0H35.293c-1.355 0-2.695 0-4.05.008-1.134.008-2.259.027-3.403.047-2.465.062-4.957.215-7.418.652-2.477.434-4.777 1.176-7.035 2.32a23.866 23.866 0 00-5.992 4.368 22.975 22.975 0 00-4.36 6C1.883 15.645 1.152 17.96.72 20.438.273 22.89.12 25.37.055 27.852.023 28.984.015 30.125 0 31.258v87.496c.016 1.148.023 2.262.055 3.41.066 2.48.218 4.961.664 7.41.433 2.48 1.164 4.805 2.316 7.051a22.924 22.924 0 004.36 5.977 23.288 23.288 0 005.992 4.363c2.258 1.156 4.558 1.887 7.035 2.332 2.46.441 4.953.59 7.418.656 1.144.027 2.27.04 3.402.04 1.356.007 2.695.007 4.051.007h429.434c1.328 0 2.68 0 4.011-.008 1.13 0 2.285-.012 3.414-.039 2.477-.066 4.965-.215 7.403-.656 2.48-.445 4.785-1.176 7.062-2.332a23.335 23.335 0 005.988-4.363 23.704 23.704 0 004.372-5.977c1.136-2.246 1.875-4.57 2.293-7.05.457-2.45.601-4.93.687-7.41.016-1.15.016-2.263.016-3.411.027-1.348.027-2.684.027-4.05V35.3c0-1.356 0-2.7-.027-4.043 0-1.133 0-2.274-.016-3.406-.086-2.48-.23-4.961-.687-7.415-.418-2.476-1.157-4.792-2.293-7.042a23.756 23.756 0 00-4.372-6 23.916 23.916 0 00-5.988-4.368 25.071 25.071 0 00-7.062-2.32c-2.438-.437-4.926-.59-7.403-.652a331.64 331.64 0 00-3.414-.047C467.406 0 466.055 0 464.727 0" fill="#b6b6b6"/><path d="M31.262 146.762c-1.13 0-2.23-.016-3.352-.04-2.066-.058-4.523-.175-6.918-.605-2.258-.41-4.265-1.074-6.133-2.027a19.984 19.984 0 01-5.168-3.766 19.565 19.565 0 01-3.777-5.168c-.96-1.867-1.617-3.875-2.012-6.133-.453-2.492-.566-5.02-.617-6.941-.023-.781-.055-3.379-.055-3.379V31.258s.036-2.559.055-3.309c.05-1.941.164-4.465.613-6.933.395-2.27 1.051-4.274 2.012-6.153a19.984 19.984 0 013.758-5.172 20.48 20.48 0 015.191-3.785c1.903-.965 3.907-1.625 6.121-2.015 2.493-.446 5.02-.559 6.942-.606l3.34-.047h437.457l3.379.047c1.898.047 4.425.16 6.882.602 2.23.39 4.247 1.054 6.184 2.027a20.45 20.45 0 015.152 3.762 20.621 20.621 0 013.786 5.199c.957 1.89 1.609 3.895 1.984 6.102.43 2.335.562 4.734.64 6.988.012 1.047.012 2.172.012 3.293.032 1.39.032 2.71.032 4.043v79.402c0 1.344 0 2.656-.032 3.98 0 1.204 0 2.305-.015 3.442-.075 2.18-.207 4.578-.63 6.863-.382 2.27-1.034 4.274-2 6.18-1 1.922-2.269 3.66-3.757 5.129a20.07 20.07 0 01-5.184 3.785c-1.918.977-3.879 1.621-6.172 2.035-2.375.43-4.828.547-6.921.606a155.3 155.3 0 01-3.32.039l-4.012.008"/><use xlink:href="#huawei-ru_svg__a" x="156.068" y="113.004" fill="#fff"/><use xlink:href="#huawei-ru_svg__b" x="196.43" y="113.004" fill="#fff"/><g fill="#fff"><use xlink:href="#huawei-ru_svg__b" x="230.53" y="113.004"/><use xlink:href="#huawei-ru_svg__c" x="265.746" y="113.004"/></g><use xlink:href="#huawei-ru_svg__d" x="308.774" y="113.004" fill="#fff"/><use xlink:href="#huawei-ru_svg__e" x="340.704" y="113.004" fill="#fff"/><g fill="#fff"><use xlink:href="#huawei-ru_svg__e" x="359.304" y="113.004"/><use xlink:href="#huawei-ru_svg__f" x="376.292" y="113.004"/></g><use xlink:href="#huawei-ru_svg__g" x="408.594" y="113.004" fill="#fff"/><use xlink:href="#huawei-ru_svg__h" x="435.688" y="113.004" fill="#fff"/><use xlink:href="#huawei-ru_svg__i" x="153.068" y="50.004" fill="#fff"/><g fill="#fff"><use xlink:href="#huawei-ru_svg__j" x="177.615" y="50.004"/><use xlink:href="#huawei-ru_svg__k" x="196.367" y="50.004"/><use xlink:href="#huawei-ru_svg__l" x="217.071" y="50.004"/><use xlink:href="#huawei-ru_svg__i" x="235.887" y="50.004"/><use xlink:href="#huawei-ru_svg__m" x="261.391" y="50.004"/><use xlink:href="#huawei-ru_svg__j" x="286.351" y="50.004"/><use xlink:href="#huawei-ru_svg__n" x="305.103" y="50.004"/><use xlink:href="#huawei-ru_svg__o" x="322.959" y="50.004"/><use xlink:href="#huawei-ru_svg__p" x="332.943" y="50.004"/></g><path d="M101.031 27.5H59.488c-19.57 0-26.726 7.156-26.726 26.727v41.546c0 19.57 7.156 26.727 26.726 26.727h41.532c19.57 0 26.742-7.156 26.742-26.727V54.227c0-19.57-7.16-26.727-26.73-26.727" fill-rule="evenodd" fill="#c7102d"/><path d="M74.207 82.594h3.809l-1.91-4.442zm-.937 2.242l-1.133 2.586h-2.57l5.468-12.414h2.227l5.449 12.414h-2.645l-1.113-2.586zm41.402 2.578h2.484V75.008h-2.484zm-9.899-5.332h4.582v-2.258h-4.582v-2.543h6.653v-2.265h-9.137v12.406h9.379V85.16h-6.895zm-9.878 1.465l-2.82-8.54h-2.06l-2.816 8.54-2.746-8.531H81.77l4.332 12.41h2.082l2.828-8.153 2.82 8.153h2.106l4.32-12.41h-2.613zm-29.125-1.43c0 2.02-1.004 3.098-2.825 3.098-1.832 0-2.84-1.11-2.84-3.184v-7.015h-2.52v7.101c0 3.496 1.942 5.496 5.325 5.496 3.418 0 5.38-2.039 5.38-5.597v-7.008h-2.52zm-14.196-7.11h2.52V87.43h-2.52v-5.043h-5.691v5.043h-2.52V75.008h2.52v5.012h5.691M80.262 59.195c-8.723 0-15.817-7.093-15.817-15.812h2.235c0 7.484 6.093 13.578 13.582 13.578 7.484 0 13.578-6.094 13.578-13.578h2.234c0 8.719-7.094 15.812-15.812 15.812" fill="#fff"/></svg>