<svg width="58" height="54" viewBox="0 0 58 54" fill="none" xmlns="http://www.w3.org/2000/svg">
<path d="M1.5769 51.9376H53.2769V43.5323H1.5769C2.68331 43.5323 2.68331 51.9376 1.5769 51.9376Z" fill="url(#paint0_linear)"/>
<path d="M53.277 49.834V45.987C53.277 44.6309 52.2554 43.5317 50.9949 43.5317H1.79486C0.803749 43.5317 0.000554006 42.8792 0.000554006 42.074C0.000554006 41.8293 0.24445 41.6312 0.545995 41.6312H54.318C55.5513 41.6312 57.5091 43.206 57.5091 45.1486V50.521C57.5091 52.3526 55.6084 53.8375 54.4455 53.8375H0.82814C0.370834 53.8375 0 53.5362 0 53.165C0 52.4869 0.676812 51.937 1.5116 51.937H51.3219C52.4017 51.9376 53.277 50.996 53.277 49.834Z" fill="url(#paint1_linear)"/>
<path d="M51.843 45.4433H3.36691C3.26381 45.4433 3.18066 45.3595 3.18066 45.2568C3.18066 45.1536 3.26436 45.0704 3.36691 45.0704H51.843C51.9461 45.0704 52.0292 45.1542 52.0292 45.2568C52.0298 45.36 51.9461 45.4433 51.843 45.4433Z" fill="white"/>
<path d="M51.843 46.6912H3.36691C3.26381 46.6912 3.18066 46.6074 3.18066 46.5048C3.18066 46.4016 3.26436 46.3183 3.36691 46.3183H51.843C51.9461 46.3183 52.0292 46.4021 52.0292 46.5048C52.0298 46.6074 51.9461 46.6912 51.843 46.6912Z" fill="white"/>
<path d="M51.843 47.9391H3.36691C3.26381 47.9391 3.18066 47.8553 3.18066 47.7527C3.18066 47.6495 3.26436 47.5663 3.36691 47.5663H51.843C51.9461 47.5663 52.0292 47.65 52.0292 47.7527C52.0298 47.8553 51.9461 47.9391 51.843 47.9391Z" fill="white"/>
<path d="M51.843 49.1865H3.36691C3.26381 49.1865 3.18066 49.1027 3.18066 49.0001C3.18066 48.8974 3.26436 48.8137 3.36691 48.8137H51.843C51.9461 48.8137 52.0293 48.8974 52.0293 49.0001C52.0293 49.1027 51.9461 49.1865 51.843 49.1865Z" fill="white"/>
<path d="M51.843 50.4344H3.36691C3.26381 50.4344 3.18066 50.3506 3.18066 50.248C3.18066 50.1448 3.26436 50.0616 3.36691 50.0616H51.843C51.9461 50.0616 52.0292 50.1453 52.0292 50.248C52.0298 50.3506 51.9461 50.4344 51.843 50.4344Z" fill="white"/>
<path d="M26.1671 3.83612C26.1339 3.89937 24.0242 5.45359 24.0242 5.45359C24.0242 5.45359 24.4898 8.78953 26.3817 10.1068C28.4614 11.5551 31.3982 8.91382 31.3982 8.91382C31.3982 8.91382 33.7357 9.46981 34.9784 4.59963C35.2634 3.4821 33.6176 3.38777 31.631 3.59364C29.0689 3.85887 26.1671 3.83612 26.1671 3.83612Z" fill="url(#paint2_linear)"/>
<path d="M22.225 15.2167C23.0504 14.6485 23.9622 14.2207 24.9295 13.9571C25.2925 13.8584 27.2542 14.4288 28.4671 14.401C30.1317 14.3628 31.8256 13.6042 33.1981 13.9466C34.5612 14.2867 35.6764 14.7306 36.3205 15.189C38.2484 16.5617 39.3803 19.1209 40.0699 21.6561C38.7639 22.9984 37.1204 23.5948 37.1204 23.5948L36.8166 35.9176L29.5375 39.6458L21.2295 35.4704L21.5271 23.4284C21.5271 23.4284 18.8886 22.1988 18.6951 21.751C18.5011 21.3037 19.8974 16.8192 22.225 15.2167Z" fill="url(#paint3_linear)"/>
<path d="M18.8175 21.6972C18.8175 21.6972 15.2821 31.5085 23.344 35.5414C25.018 35.3189 24.3739 32.5362 24.3739 32.5362C24.3739 32.5362 20.8707 31.7599 21.9228 23.5754C20.9549 22.7775 18.8175 21.6972 18.8175 21.6972Z" fill="url(#paint4_linear)"/>
<path d="M39.8997 21.6972C39.8997 21.6972 42.3325 31.9391 35.3732 35.5414C33.6991 35.3189 34.3432 32.5362 34.3432 32.5362C34.3432 32.5362 37.1664 31.1445 36.7944 23.5754C37.7622 22.7775 39.8997 21.6972 39.8997 21.6972Z" fill="url(#paint5_linear)"/>
<path d="M36.6332 36.2306H21.5953C21.3414 36.2306 21.1335 36.0225 21.1335 35.7684V25.9021C21.1335 25.6479 21.3414 25.4398 21.5953 25.4398H36.6332C36.887 25.4398 37.0949 25.6479 37.0949 25.9021V35.7678C37.0954 36.0225 36.8876 36.2306 36.6332 36.2306Z" fill="url(#paint6_linear)"/>
<path d="M44.0964 39.4295C42.2699 39.01 38.0478 39.2353 38.0478 39.2353L37.8759 39.7008L37.5916 42.0146C37.5916 42.0146 41.6125 42.7399 43.5942 42.7382C43.7965 42.7382 43.9811 42.7077 44.1502 42.655C44.2106 42.6006 44.2699 42.5446 44.3253 42.4835C45.1668 41.5646 44.9234 40.2141 44.0964 39.4295Z" fill="url(#paint7_linear)"/>
<path d="M36.8344 39.1049L37.5495 39.1354C37.9336 39.152 38.2956 39.339 38.5539 39.6553C38.8122 39.9716 38.9452 40.3894 38.9225 40.8156C38.9042 41.1552 38.7651 41.4731 38.5356 41.6984C38.3061 41.9237 38.0051 42.038 37.6991 42.0163L36.6055 41.9387L36.8344 39.1049Z" fill="url(#paint8_linear)"/>
<path d="M12.795 39.207C14.6315 38.8435 18.8464 39.1986 18.8464 39.1986L19.0066 39.6692L19.2333 41.9908C19.2333 41.9908 15.1963 42.5923 13.2152 42.5296C13.0129 42.5229 12.8288 42.4869 12.6614 42.4292C12.6021 42.3731 12.545 42.3149 12.4907 42.2522C11.6725 41.3083 11.9486 39.966 12.795 39.207Z" fill="url(#paint9_linear)"/>
<path d="M20.0625 39.106L19.3469 39.1143C18.9628 39.1187 18.5958 39.2952 18.3297 39.6031C18.0637 39.9111 17.9207 40.325 17.9323 40.7517C17.9417 41.0919 18.0731 41.4137 18.297 41.6462C18.521 41.8787 18.8192 42.0024 19.1252 41.9897L20.2205 41.9453L20.0625 39.106Z" fill="url(#paint10_linear)"/>
<path d="M44.6074 32.1755C43.7793 30.2667 41.7527 29.9571 40.0283 30.8494C39.9984 30.8888 29.0768 36.4919 19.4451 38.9478C19.7206 39.8329 19.8625 40.7745 19.8935 41.6995C19.8991 41.9059 19.8957 42.109 19.8835 42.3098C27.2697 41.9303 35.2856 39.4644 42.1735 37.2976C44.3098 36.6079 45.5254 34.2907 44.6074 32.1755Z" fill="url(#paint11_linear)"/>
<path d="M36.8871 41.8448C36.8582 40.7784 37.0655 39.7851 37.5084 38.8657C37.5212 38.8235 37.5362 38.783 37.5495 38.7414C36.9996 38.5711 36.289 38.3397 35.3555 38.0228C28.5164 35.6796 23.2987 33.3141 18.3188 30.5908C16.3842 29.5326 14.1847 30.2418 13.5655 32.5334C13.0129 34.5787 14.2268 36.3255 16.0694 36.9392C21.5814 38.7752 18.7118 38.2653 20.5116 38.8452C25.3463 40.3417 31.3628 41.705 36.8981 42.0773C36.8943 41.9996 36.8898 41.922 36.8871 41.8448Z" fill="url(#paint12_linear)"/>
<path d="M24.9294 13.9571C24.9294 13.9571 25.665 17.1477 29.2359 17.0817C32.8733 17.0156 33.1975 13.9466 33.1975 13.9466L30.8218 13.4378L30.6233 10.7877L27.0491 11.0529L26.9832 13.5704L24.9294 13.9571Z" fill="url(#paint13_linear)"/>
<path d="M27.5508 3.27902C27.5508 3.27902 23.455 11.221 28.3135 13.1476C31.7403 14.5065 33.8894 7.87343 33.2486 6.07673C32.258 3.29955 31.605 3.62915 31.605 3.62915L27.5508 3.27902Z" fill="url(#paint14_linear)"/>
<path d="M34.234 2.55658C36.2573 3.11312 34.5284 7.50611 31.4819 6.46737C28.4354 5.42864 27.2387 5.44362 26.7636 6.28093C26.2891 7.11825 26.1871 10.0918 25.1567 8.62197C24.0275 7.0106 23.3978 3.7762 24.7825 2.73358C26.0197 1.80194 26.3085 0.357032 27.793 0.406972C29.763 0.473557 31.2862 -0.400934 32.1753 0.229965C33.1969 0.954083 32.7452 2.14708 34.234 2.55658Z" fill="url(#paint15_linear)"/>
<path d="M26.5762 6.964C26.5762 6.964 25.7026 6.02292 25.5629 7.1571C25.4232 8.29127 25.8722 9.75172 26.3977 8.95103C26.9237 8.15033 26.5762 6.964 26.5762 6.964Z" fill="url(#paint16_linear)"/>
<path d="M30.0558 29.9876C30.1406 30.5603 29.834 31.0796 29.262 31.1645C28.6899 31.2494 28.1578 30.8538 28.073 30.2812C27.9882 29.7085 28.2504 29.1403 28.8219 29.0554C29.3945 28.9711 29.971 29.4155 30.0558 29.9876Z" fill="url(#paint17_linear)"/>
<defs>
<linearGradient id="paint0_linear" x1="20.3456" y1="43.1399" x2="67.1472" y2="73.4478" gradientUnits="userSpaceOnUse">
<stop stop-color="#53D8FF"/>
<stop offset="1" stop-color="#3840F7"/>
</linearGradient>
<linearGradient id="paint1_linear" x1="35.1291" y1="17.8786" x2="29.079" y2="44.9166" gradientUnits="userSpaceOnUse">
<stop stop-color="#A737D5"/>
<stop offset="1" stop-color="#EF497A"/>
</linearGradient>
<linearGradient id="paint2_linear" x1="38.7664" y1="-7.55206" x2="30.107" y2="4.74113" gradientUnits="userSpaceOnUse">
<stop stop-color="#2B3582"/>
<stop offset="1" stop-color="#150E42"/>
</linearGradient>
<linearGradient id="paint3_linear" x1="29.3734" y1="15.3684" x2="29.3734" y2="44.5206" gradientUnits="userSpaceOnUse">
<stop stop-color="#ABDE23"/>
<stop offset="1" stop-color="#657735"/>
</linearGradient>
<linearGradient id="paint4_linear" x1="17.0113" y1="19.0591" x2="30.8678" y2="52.4963" gradientUnits="userSpaceOnUse">
<stop stop-color="#F9B776"/>
<stop offset="1" stop-color="#F47960"/>
</linearGradient>
<linearGradient id="paint5_linear" x1="41.5326" y1="18.9872" x2="27.6761" y2="52.4244" gradientUnits="userSpaceOnUse">
<stop stop-color="#F9B776"/>
<stop offset="1" stop-color="#F47960"/>
</linearGradient>
<linearGradient id="paint6_linear" x1="29.2981" y1="23.3819" x2="28.5776" y2="52.5321" gradientUnits="userSpaceOnUse">
<stop stop-color="#2B3582"/>
<stop offset="1" stop-color="#150E42"/>
</linearGradient>
<linearGradient id="paint7_linear" x1="37.6" y1="40.9218" x2="45.1589" y2="40.9799" gradientUnits="userSpaceOnUse">
<stop stop-color="#2B3582"/>
<stop offset="1" stop-color="#150E42"/>
</linearGradient>
<linearGradient id="paint8_linear" x1="42.5892" y1="27.2788" x2="34.5958" y2="48.9075" gradientUnits="userSpaceOnUse">
<stop stop-color="#F9B776"/>
<stop offset="1" stop-color="#F47960"/>
</linearGradient>
<linearGradient id="paint9_linear" x1="19.2552" y1="40.8845" x2="11.6947" y2="40.7334" gradientUnits="userSpaceOnUse">
<stop stop-color="#2B3582"/>
<stop offset="1" stop-color="#150E42"/>
</linearGradient>
<linearGradient id="paint10_linear" x1="26.6033" y1="20.7596" x2="18.6058" y2="42.3994" gradientUnits="userSpaceOnUse">
<stop stop-color="#F9B776"/>
<stop offset="1" stop-color="#F47960"/>
</linearGradient>
<linearGradient id="paint11_linear" x1="45.971" y1="26.8614" x2="25.2135" y2="42.4383" gradientUnits="userSpaceOnUse">
<stop stop-color="#53D8FF"/>
<stop offset="1" stop-color="#3840F7"/>
</linearGradient>
<linearGradient id="paint12_linear" x1="27.2138" y1="40.8506" x2="21.7679" y2="26.9779" gradientUnits="userSpaceOnUse">
<stop stop-color="#53D8FF"/>
<stop offset="1" stop-color="#3840F7"/>
</linearGradient>
<linearGradient id="paint13_linear" x1="29.1541" y1="21.8207" x2="28.9696" y2="5.79112" gradientUnits="userSpaceOnUse">
<stop stop-color="#F9B776"/>
<stop offset="1" stop-color="#F47960"/>
</linearGradient>
<linearGradient id="paint14_linear" x1="28.6205" y1="12.9228" x2="31.4325" y2="-0.751027" gradientUnits="userSpaceOnUse">
<stop stop-color="#F9B776"/>
<stop offset="1" stop-color="#F47960"/>
</linearGradient>
<linearGradient id="paint15_linear" x1="39.1199" y1="-9.42422" x2="29.3761" y2="4.40827" gradientUnits="userSpaceOnUse">
<stop stop-color="#2B3582"/>
<stop offset="1" stop-color="#150E42"/>
</linearGradient>
<linearGradient id="paint16_linear" x1="26.7603" y1="14.739" x2="24.7446" y2="-7.0442" gradientUnits="userSpaceOnUse">
<stop stop-color="#F9B776"/>
<stop offset="1" stop-color="#F47960"/>
</linearGradient>
<linearGradient id="paint17_linear" x1="29.2171" y1="22.7774" x2="28.7513" y2="45.0452" gradientUnits="userSpaceOnUse">
<stop stop-color="#53D8FF"/>
<stop offset="1" stop-color="#3840F7"/>
</linearGradient>
</defs>
</svg>
