<svg width="85" height="159" viewBox="0 0 85 159" fill="none" xmlns="http://www.w3.org/2000/svg">
<path d="M52.0887 34.5089C52.0887 34.5089 58.4511 23.403 59.9995 21.0418C61.548 18.6805 65.579 9.29942 65.7242 8.93003C65.868 8.56064 62.9469 4.12085 63.5991 3.96883C64.2513 3.81681 64.9718 6.31019 65.6676 6.01184C66.3634 5.71349 68.3956 -0.286269 68.7921 0.0106647C69.5344 0.567592 67.6969 3.73299 68.092 3.93331C68.4871 4.13221 69.6855 0.451092 70.4612 0.559068C71.2383 0.667043 68.9839 3.93331 69.2018 4.22314C69.4196 4.51155 71.7583 1.43424 72.181 2.09062C72.4106 2.44722 70.0297 4.77722 70.4873 4.99602C70.9449 5.21481 73.0628 3.71025 73.2865 4.14358C73.5102 4.5769 71.3284 5.17077 70.6747 6.34145C70.0225 7.51071 68.9098 8.01649 68.4493 10.1817C67.9874 12.3469 67.2974 20.1837 64.9326 24.0935C62.5677 28.0034 57.3674 36.6571 57.3674 36.6571L52.0887 34.5089Z" fill="#FDBDB5"/>
<path d="M23.8906 88.1045C23.8906 88.1045 24.4078 87.4723 24.5632 87.2492C24.7462 86.9878 25.2299 86.1623 25.2299 86.1623C25.2299 86.1623 26.7798 83.2115 26.5474 83.1177C26.315 83.0225 25.7601 83.3848 25.5989 83.534C25.4377 83.6832 25.2357 83.8423 25.0745 83.9915C24.9133 84.1406 24.6678 84.1477 24.463 83.9645C24.2596 83.7812 24.768 83.0509 24.9961 82.8322C25.7049 82.1516 27.9753 80.7053 28.2092 80.5419C28.4852 80.3487 30.2094 74.7482 30.9561 72.8742C30.9561 72.8742 30.9561 72.8742 30.9546 72.8742C32.0833 69.7728 33.0841 66.5292 33.2033 66.1996L33.9136 52.1173L39.2925 50.3641C39.2925 50.3641 38.7275 66.0036 38.6084 66.7835C38.5517 67.1544 35.3662 74.1444 35.3633 74.1444C33.5722 77.4902 31.986 80.434 31.6984 81.0079C31.6984 81.0079 31.3076 82.9515 31.1333 84.2032C30.959 85.4548 30.285 86.5388 30.1818 86.8827C30.1659 86.9338 29.8739 88.1372 28.9864 89.386C28.2208 90.4615 28.4416 89.0905 28.4416 89.0905C28.4416 89.0905 29.4919 86.8429 29.2972 86.7903C29.1461 86.7491 28.6464 88.0107 27.8127 89.2098C27.5977 89.5181 27.3856 89.8207 27.188 90.0978C26.6695 90.8252 26.0637 90.7144 26.4821 89.8662C26.6302 89.5664 26.8873 89.0748 27.1227 88.7509C27.3769 88.4014 27.4931 87.9979 27.6601 87.6712C27.9913 87.0219 28.2412 86.553 28.2063 86.5545C28.1613 86.5559 28.1337 86.3797 27.8954 86.6994C27.6093 87.0844 27.1866 88.0363 26.7218 88.5691C26.4574 88.8717 25.946 89.5366 25.946 89.5366C25.946 89.5366 24.9946 90.5254 24.9234 90.4856C24.5399 90.2725 25.0135 89.3718 25.4275 89.0081C25.5684 88.6415 26.1276 87.9567 26.1276 87.9567C26.1276 87.9567 26.9396 86.3186 26.7043 86.1993C26.5111 86.1013 23.7918 89.646 23.4214 89.4059C23.1207 89.207 23.8906 88.1045 23.8906 88.1045Z" fill="#FDBDB5"/>
<path d="M33.5098 33.2417C33.379 30.1701 33.8424 27.1368 35.2471 24.2769C36.4556 21.8162 39.448 20.4196 42.176 20.4168C50.8378 20.4054 51.9403 31.5993 57.4544 35.9184C59.1394 37.2382 61.022 38.3123 62.617 39.7359C68.5043 44.9898 65.8519 54.7161 60.4468 59.3221C56.6962 62.5188 50.8 64.3345 46.1764 61.8354C43.7637 60.5312 41.9305 58.3631 40.626 55.9877C38.774 52.6162 37.5799 48.7263 36.2624 45.1332C34.8592 41.3058 33.6841 37.3249 33.5098 33.2417Z" fill="#555E61"/>
<path d="M60.5889 132.137C60.5889 132.137 61.199 136.269 62.2492 137.603C62.6022 138.051 63.2457 138.616 63.6684 139.426C64.3265 140.685 63.9618 142.56 63.4767 143.591C63.2283 144.121 63.4941 144.12 62.9276 144.29C61.2484 144.796 59.4617 143.945 58.747 142.374C58.3476 141.497 57.9975 140.327 57.9263 138.853C57.7476 135.101 56.5521 133.194 56.5521 133.194L60.5889 132.137Z" fill="#F9CBC1"/>
<path d="M42.2215 134.027C42.2215 134.027 41.8452 138.686 42.1503 140.2C42.3144 141.011 43.2267 142.681 42.8083 143.444C42.39 144.207 41.9121 144.397 41.9121 144.397L31.0698 144.567C30.4786 144.576 30.8694 144.205 31.3458 143.864C32.1259 143.304 32.7549 142.935 35.2446 141.759C35.4073 141.682 35.9985 141.315 36.2121 141.187C36.7524 140.865 37.2957 140.358 37.7634 139.851C38.542 139.004 38.6103 134.902 38.6103 134.902L42.2215 134.027Z" fill="#F9CBC1"/>
<path d="M33.7449 72.093C33.7449 72.093 32.3795 79.6584 33.2757 84.6182C34.172 89.578 38.4746 135.549 38.4746 135.549L43.2565 135.811C43.2565 135.811 44.2588 116.609 44.0802 113.938C43.9015 111.267 42.4823 106.799 42.4823 106.799L42.9587 91.2942L36.9247 70.9252L33.7449 72.093Z" fill="#92BB25"/>
<path d="M47.799 70.5017C47.799 70.5017 51.5641 76.034 52.4604 80.6116C53.3566 85.1892 51.8023 99.2587 53.5266 105.259C54.4606 108.506 57.9977 113.521 58.5366 117.718C59.0741 121.915 61.1847 132.907 61.1847 132.907L56.4056 133.832L45.2976 106.379L36.5849 81.5664L34.3523 68.7869L47.799 70.5017Z" fill="#AADD22"/>
<path d="M44.7513 39.0283C44.7513 39.0283 49.7367 38.7186 51.7093 40.817C53.6819 42.9154 47.334 59.5138 46.9752 62.1848C46.6165 64.8558 48.8026 71.9566 48.8026 71.9566C48.8026 71.9566 37.0918 74.2568 33.745 72.0944C33.745 72.0944 33.3862 52.8918 33.745 50.9838C34.1038 49.0757 37.0918 41.3185 37.8093 40.5556C38.5269 39.7912 44.7513 39.0283 44.7513 39.0283Z" fill="#F7CC7F"/>
<path d="M43.0931 32.5255C43.0931 32.5255 43.1193 32.669 43.1658 32.9133C43.388 34.0826 44.2436 37.964 44.8217 39.031C45.5204 40.3196 42.4293 44.4326 39.4544 43.9311C38.5683 43.7819 40.2025 40.1534 40.124 39.7684C39.9729 39.0324 39.7696 38.028 39.5619 36.9993C39.4442 36.4183 39.3251 35.8301 39.2132 35.276C38.8951 33.7032 38.6351 32.4175 38.6351 32.4175L43.0931 32.5255Z" fill="#F9CBC1"/>
<path d="M43.1642 32.9133C43.1177 32.669 43.0916 32.5255 43.0916 32.5255L38.6336 32.4175C38.6336 32.4175 38.8936 33.7032 39.2117 35.276C39.3235 35.8258 39.4412 36.4112 39.5589 36.9894C40.2474 36.8899 40.9664 36.5646 41.6869 35.948C42.4728 35.276 42.9885 34.469 43.2993 33.6066C43.2456 33.331 43.1991 33.0952 43.1642 32.9133Z" fill="#F47458"/>
<path d="M40.0916 22.6345C40.0916 22.6345 42.1935 22.3972 43.5096 24.0609C44.8271 25.7232 46.2463 30.8662 42.975 33.6622C39.7038 36.4582 36.4703 33.2928 35.9909 29.9385C35.5116 26.5813 35.3242 22.5137 40.0916 22.6345Z" fill="#F9CBC1"/>
<path d="M35.0217 29.8873C35.4124 30.6289 36.0675 31.0381 36.4859 30.8037C36.9042 30.5693 36.926 29.7779 36.5353 29.0363C36.1445 28.2947 35.4894 27.8841 35.0711 28.1199C34.6542 28.3558 34.6309 29.1471 35.0217 29.8873Z" fill="#F9CBC1"/>
<path d="M39.8561 22.0847C39.8561 22.0847 42.664 26.9748 44.6715 27.2007C46.6804 27.4266 46.9434 30.0251 46.9434 30.0251C46.9434 30.0251 46.2258 24.0382 44.2372 22.8831C42.25 21.7295 39.8561 22.0847 39.8561 22.0847Z" fill="#555E61"/>
<path d="M58.4203 141.548C61.0248 142.011 62.7578 140.525 63.6599 139.411C64.3222 140.673 64.6447 142.556 64.1581 143.591C63.7296 144.503 62.476 144.478 61.4882 144.513C60.4452 144.552 59.6376 143.985 59.119 143.098C58.8793 142.683 58.6295 142.168 58.4203 141.548Z" fill="#DC7C67"/>
<path d="M36.2093 141.187C39.0768 141.906 41.1961 141.418 42.3829 140.95C42.6879 141.796 43.0947 142.857 42.8797 143.469C42.6168 144.218 42.242 144.388 41.9108 144.397C39.2917 144.464 32.3164 144.556 30.319 144.58C30.0401 144.583 29.8862 144.266 30.0663 144.056C30.5602 143.481 35.9958 141.315 36.2093 141.187Z" fill="#DC7C67"/>
<path d="M44.1461 28.4295C43.9834 29.2976 44.3117 30.0946 44.8797 30.2083C45.4476 30.3219 46.0417 29.711 46.2044 28.8415C46.3671 27.9735 46.0388 27.1764 45.4709 27.0628C44.9029 26.9491 44.3088 27.5615 44.1461 28.4295Z" fill="#F9CBC1"/>
<path d="M53.8492 30.9088C53.8492 30.9088 46.8113 38.2952 45.7654 41.2731C44.7196 44.2495 46.7852 48.5089 49.6395 48.695C52.4924 48.8811 58.8432 35.5844 58.8432 35.5844L53.8492 30.9088Z" fill="#F7CC7F"/>
<path d="M11.61 140.232C15.3667 141.259 18.1967 143.815 19.4324 146.861C19.5189 147.067 19.834 146.982 19.7908 146.758C19.0308 142.673 16.2256 139.271 12.197 138.171C8.16219 137.065 3.9482 138.558 1.13064 141.676C0.976173 141.845 1.20479 142.081 1.38398 141.942C4.0656 139.954 7.84706 139.198 11.61 140.232Z" fill="#DECBB6"/>
<path d="M8.90992 158.38C13.8307 158.38 17.8198 154.478 17.8198 149.665C17.8198 144.852 13.8307 140.951 8.90992 140.951C3.98911 140.951 0 144.852 0 149.665C0 154.478 3.98911 158.38 8.90992 158.38Z" fill="#393762"/>
<path d="M8.91011 154.542C11.664 154.542 13.8964 152.359 13.8964 149.665C13.8964 146.972 11.664 144.788 8.91011 144.788C6.15623 144.788 3.92377 146.972 3.92377 149.665C3.92377 152.359 6.15623 154.542 8.91011 154.542Z" fill="#DECBB6"/>
<path d="M74.0843 158.38C79.0051 158.38 82.9942 154.478 82.9942 149.665C82.9942 144.852 79.0051 140.951 74.0843 140.951C69.1635 140.951 65.1744 144.852 65.1744 149.665C65.1744 154.478 69.1635 158.38 74.0843 158.38Z" fill="#393762"/>
<path d="M74.0845 154.542C76.8384 154.542 79.0708 152.359 79.0708 149.665C79.0708 146.972 76.8384 144.788 74.0845 144.788C71.3306 144.788 69.0981 146.972 69.0981 149.665C69.0981 152.359 71.3306 154.542 74.0845 154.542Z" fill="#DECBB6"/>
<path d="M17.7393 123.31C17.6528 123.31 17.5663 123.298 17.4798 123.268C17.0287 123.129 16.7754 122.652 16.9175 122.21L28.9478 83.5574C29.0899 83.1162 29.5718 82.8684 30.0291 83.0074C30.4801 83.1464 30.7335 83.6238 30.5913 84.065L18.5611 122.718C18.4437 123.081 18.1039 123.31 17.7393 123.31Z" fill="#393762"/>
<path d="M16.4794 120.409L7.00104 149.073C6.66738 150.106 7.24819 151.212 8.31096 151.545C8.51486 151.605 8.71876 151.635 8.92266 151.635C9.77535 151.635 10.5662 151.097 10.8381 150.263L20.3227 121.588L16.4794 120.409Z" fill="#DECBB6"/>
<path d="M77.1303 137.071C76.7163 136.938 76.2838 136.835 75.8389 136.757C69.9134 135.766 65.8848 140.497 62.3443 144.359H26.5873L17.3931 127.365L15.5271 133.826L23.572 148.154H63.6419C63.6419 148.154 65.2237 141.694 72.6877 139.869C72.6877 139.869 74.6959 139.591 76.8152 140.232C80.5349 141.368 83.4019 143.815 84.6376 146.861C84.7241 147.067 85.0393 146.982 84.996 146.758C84.2298 142.655 81.3567 138.419 77.1303 137.071Z" fill="#DECBB6"/>
<path d="M29.6643 85.727C30.6607 85.727 31.4685 84.937 31.4685 83.9624C31.4685 82.9878 30.6607 82.1978 29.6643 82.1978C28.6678 82.1978 27.86 82.9878 27.86 83.9624C27.86 84.937 28.6678 85.727 29.6643 85.727Z" fill="#393762"/>
</svg>
