<svg width="169" height="178" viewBox="0 0 169 178" fill="none" xmlns="http://www.w3.org/2000/svg">
<path d="M71.1165 23.4696C67.4004 21.0128 64.0187 20.2909 61.0407 21.3499C44.1761 27.3468 58.0508 78.3803 64.2373 95.7778C71.2988 115.636 79.5625 131.924 88.1569 142.886C96.071 152.978 103.427 157.478 108.897 155.532C114.696 153.47 117.413 144.33 116.556 129.804C114.355 92.7337 90.151 36.0865 71.1165 23.4696ZM113.052 130.626C113.666 142.679 111.621 150.732 107.562 152.176C103.502 153.619 96.8323 148.664 89.6987 138.931C81.7431 128.077 73.9005 112.327 67.597 94.6008C61.2935 76.8742 57.4476 59.7037 56.7488 46.2693C56.1354 34.217 58.1796 26.1632 62.239 24.7196C66.2984 23.2761 72.9686 28.2312 80.1022 37.965C88.0578 48.8189 95.9004 64.5681 102.204 82.2948C108.507 100.021 112.353 117.192 113.052 130.626Z" fill="#AADD22"/>
<path d="M148.817 86.624C127.38 69.0354 53.1872 57.9004 24.7869 67.9994C18.2354 70.329 14.6132 73.6475 13.992 77.8585C13.4125 81.7898 15.4795 85.7157 20.0957 89.5121C41.603 107.147 115.735 118.409 144.025 108.349C150.624 106.003 154.298 102.631 154.912 98.3515C155.506 94.362 153.455 90.4304 148.817 86.624ZM151.578 97.1182C151.457 100.004 148.414 102.569 142.803 104.564C123.148 111.553 72.4641 110.721 34.5755 93.491C20.1283 86.9228 17.2369 82.0188 17.373 79.075C17.5 76.2049 20.5215 73.6298 26.1169 71.6401C36.5867 67.9171 54.5448 66.6336 74.1641 68.1846C96.313 69.9484 117.688 75.0949 134.359 82.6552C148.817 89.2547 151.693 94.1643 151.578 97.1182Z" fill="#AADD22"/>
<path d="M131.234 35.3379C127.993 32.4297 123.099 32.122 116.657 34.4126C103.789 38.9884 84.6139 54.4756 66.6454 74.7952C48.6925 95.1092 35.9537 115.688 33.415 128.508C32.2634 134.355 33.1325 138.636 36.0148 141.231C39.1754 144.062 44.0113 144.355 50.406 142.081C78.5085 132.088 128.471 76.027 133.955 48.3532C135.126 42.4107 134.218 38.0197 131.234 35.3379ZM112.367 81.93C97.4259 102.868 78.0055 121.885 60.4393 132.81C56.2294 135.42 52.3954 137.348 49.0569 138.535C44.0258 140.324 40.3275 140.351 38.3773 138.59C36.4751 136.865 35.9501 133.75 36.82 129.345C39.1344 117.682 51.2401 97.805 67.7075 78.7254C85.4033 58.185 104.258 42.9883 118.16 38.0447C124.539 35.7763 128.568 36.2328 130.089 39.4172C133.179 45.8221 126.224 62.5078 112.367 81.93Z" fill="#AADD22"/>
<path d="M94.9861 82.6013C97.0928 88.5259 93.9921 95.0487 88.0675 97.1554C82.143 99.2622 75.6202 96.1614 73.5135 90.2369C71.4067 84.3123 74.5074 77.7896 80.432 75.6828C86.351 73.5604 92.8737 76.6611 94.9861 82.6013Z" fill="#AADD22"/>
<path d="M63.2134 37.1906C64.7962 41.6418 62.4732 46.5286 58.022 48.1114C53.5707 49.6943 48.684 47.3713 47.1011 42.92C45.5183 38.4688 47.8413 33.582 52.2925 31.9991C56.7493 30.432 61.6361 32.755 63.2134 37.1906Z" fill="#AADD22"/>
<path d="M122.004 123.877C123.32 127.575 121.381 131.655 117.682 132.97C113.983 134.285 109.903 132.346 108.588 128.647C107.273 124.948 109.212 120.869 112.911 119.554C116.625 118.233 120.689 120.178 122.004 123.877Z" fill="#AADD22"/>
<path d="M40.9948 124.205C44.8208 122.844 46.8195 118.639 45.459 114.813C44.0985 110.987 39.8939 108.989 36.0679 110.349C32.2419 111.71 30.2432 115.914 31.6037 119.74C32.9642 123.566 37.1687 125.565 40.9948 124.205Z" fill="#AADD22"/>
<path d="M137.123 47.332C138.243 50.4823 136.597 53.9456 133.446 55.0658C130.296 56.1861 126.833 54.5398 125.713 51.3894C124.592 48.2391 126.239 44.7758 129.389 43.6556C132.539 42.5353 136.003 44.1816 137.123 47.332Z" fill="#AADD22"/>
<path d="M48.3907 65.414C49.5109 68.5644 47.8646 72.0276 44.7142 73.1478C41.5639 74.2681 38.1007 72.6218 36.9804 69.4715C35.8601 66.3211 37.5064 62.8578 40.6568 61.7376C43.8072 60.6173 47.2704 62.2637 48.3907 65.414Z" fill="#AADD22"/>
</svg>
