<svg width="127" height="122" viewBox="0 0 127 122" fill="none" xmlns="http://www.w3.org/2000/svg">
<path d="M81.5802 93.6108L71.873 78.724L69.3095 80.3956L79.0167 95.2824L81.5802 93.6108Z" fill="#8282A8"/>
<path d="M106.192 55.5029L87.9772 51.203L87.2741 54.1814L105.489 58.4813L106.192 55.5029Z" fill="#8282A8"/>
<path d="M40.1065 79.6025L37.5837 77.8699L26.5253 93.9713L29.048 95.7039L40.1065 79.6025Z" fill="#8282A8"/>
<path d="M38.8699 79.7898L22.8887 52.2362L35.5105 24.822L38.289 26.1049L26.3304 52.0781L40.6398 76.7382L70.0302 77.0028L85.7726 51.768L88.3753 53.3831L71.7218 80.0845L38.8699 79.7898Z" fill="#8282A8"/>
<path d="M41.0061 31.0003C37.6411 33.3078 33.0318 32.4545 30.7243 29.0895C28.4168 25.7245 29.2702 21.1152 32.6352 18.8077C36.0001 16.5002 40.6094 17.3535 42.917 20.7185C45.234 24.081 44.378 28.6807 41.0061 31.0003Z" fill="#B1B1DE"/>
<path d="M27.8083 58.6198C24.4433 60.9273 19.8341 60.0739 17.5266 56.7089C15.219 53.3439 16.0724 48.7347 19.4374 46.4272C22.8024 44.1197 27.4117 44.9731 29.7192 48.3381C32.0293 51.7126 31.1733 56.3123 27.8083 58.6198Z" fill="#B1B1DE"/>
<path d="M43.916 84.4789C40.551 86.7864 35.9418 85.933 33.6342 82.568C31.3267 79.203 32.1801 74.5938 35.5451 72.2862C38.9101 69.9787 43.5193 70.8321 45.8269 74.1971C48.1344 77.5621 47.281 82.1713 43.916 84.4789Z" fill="#B1B1DE"/>
<path d="M30.6683 103.473C27.3034 105.78 22.6941 104.927 20.3866 101.562C18.0791 98.197 18.9324 93.5877 22.2974 91.2802C25.6624 88.9727 30.2717 89.8261 32.5792 93.1911C34.8892 96.5656 34.0333 101.165 30.6683 103.473Z" fill="#B1B1DE"/>
<path d="M86.7141 104.898C83.3491 107.205 78.7398 106.352 76.4323 102.987C74.1248 99.6219 74.9782 95.0126 78.3432 92.7051C81.7082 90.3976 86.3174 91.251 88.625 94.616C90.9325 97.981 90.0765 102.581 86.7141 104.898Z" fill="#B1B1DE"/>
<path d="M113.538 65.1308C110.173 67.4384 105.567 66.5945 103.257 63.22C100.949 59.855 101.803 55.2458 105.168 52.9382C108.532 50.6307 113.142 51.4841 115.449 54.849C117.757 58.214 116.901 62.8138 113.538 65.1308Z" fill="#B1B1DE"/>
<path d="M75.7122 85.7392C72.3472 88.0467 67.7379 87.1933 65.4304 83.8283C63.1229 80.4633 63.9762 75.854 67.3412 73.5465C70.7062 71.239 75.3155 72.0924 77.623 75.4574C79.94 78.8198 79.0867 83.4291 75.7122 85.7392Z" fill="#B1B1DE"/>
<path d="M91.8484 58.7789C88.4834 61.0864 83.8741 60.233 81.5666 56.868C79.2591 53.503 80.1125 48.8938 83.4775 46.5863C86.8425 44.2788 91.4517 45.1322 93.7592 48.4972C96.0668 51.8622 95.2134 56.4714 91.8484 58.7789Z" fill="#B1B1DE"/>
</svg>
