<svg width="433" height="456" viewBox="0 0 433 456" fill="none" xmlns="http://www.w3.org/2000/svg">
<path d="M229.08 367.829L286.218 390.776L356.947 214.657L308.649 195.259C303.768 193.298 298.219 195.666 296.258 200.551L229.08 367.829Z" fill="#F4A640"/>
<path d="M222.384 361.272L331.783 380.672L359.06 226.855L249.661 207.456L222.384 361.272Z" fill="#ADCFD8"/>
<path d="M277.094 229.19L325.947 237.853L326.141 236.757L277.288 228.093L277.094 229.19Z" fill="#55769F"/>
<path d="M267.323 224.588L336.701 236.891L336.895 235.795L267.517 223.492L267.323 224.588Z" fill="#55769F"/>
<path d="M257.391 237.576L341.564 252.503L341.759 251.406L257.585 236.48L257.391 237.576Z" fill="#55769F"/>
<path d="M256.458 242.851L340.631 257.777L340.825 256.681L256.652 241.754L256.458 242.851Z" fill="#55769F"/>
<path d="M254.587 253.403L338.76 268.329L338.955 267.233L254.781 252.306L254.587 253.403Z" fill="#55769F"/>
<path d="M253.65 258.679L337.824 273.605L338.018 272.509L253.845 257.582L253.65 258.679Z" fill="#55769F"/>
<path d="M252.717 263.953L336.89 278.879L337.085 277.783L252.911 262.856L252.717 263.953Z" fill="#55769F"/>
<path d="M248.604 287.159L332.778 302.085L332.972 300.989L248.799 286.062L248.604 287.159Z" fill="#55769F"/>
<path d="M247.635 292.629L331.808 307.555L332.003 306.459L247.829 291.532L247.635 292.629Z" fill="#55769F"/>
<path d="M246.666 298.1L330.839 313.026L331.034 311.93L246.861 297.003L246.666 298.1Z" fill="#55769F"/>
<path d="M245.695 303.57L329.869 318.497L330.063 317.4L245.89 302.473L245.695 303.57Z" fill="#55769F"/>
<path d="M244.725 309.042L328.899 323.969L329.093 322.872L244.92 307.946L244.725 309.042Z" fill="#55769F"/>
<path d="M243.755 314.512L327.928 329.439L328.123 328.342L243.949 313.416L243.755 314.512Z" fill="#55769F"/>
<path d="M242.785 319.982L326.959 334.908L327.153 333.812L242.98 318.885L242.785 319.982Z" fill="#55769F"/>
<path d="M225.624 354.683L333.079 382.961L372.837 231.878L265.383 203.601L225.624 354.683Z" fill="#DAEEF7"/>
<path d="M290.954 227.519L338.938 240.146L339.222 239.069L291.237 226.442L290.954 227.519Z" fill="#55769F"/>
<path d="M281.589 222.134L349.737 240.068L350.021 238.991L281.873 221.057L281.589 222.134Z" fill="#55769F"/>
<path d="M270.63 234.266L353.307 256.023L353.591 254.946L270.913 233.189L270.63 234.266Z" fill="#55769F"/>
<path d="M269.266 239.447L351.943 261.205L352.226 260.128L269.549 238.37L269.266 239.447Z" fill="#55769F"/>
<path d="M266.539 249.807L349.216 271.564L349.499 270.487L266.822 248.73L266.539 249.807Z" fill="#55769F"/>
<path d="M265.174 254.989L347.851 276.746L348.135 275.669L265.458 253.912L265.174 254.989Z" fill="#55769F"/>
<path d="M263.813 260.171L346.49 281.928L346.774 280.851L264.096 259.094L263.813 260.171Z" fill="#55769F"/>
<path d="M257.812 282.959L340.49 304.716L340.773 303.639L258.096 281.882L257.812 282.959Z" fill="#55769F"/>
<path d="M256.4 288.33L339.078 310.088L339.361 309.011L256.684 287.253L256.4 288.33Z" fill="#55769F"/>
<path d="M254.986 293.703L337.664 315.46L337.947 314.383L255.27 292.626L254.986 293.703Z" fill="#55769F"/>
<path d="M253.574 299.077L336.251 320.834L336.534 319.757L253.857 298L253.574 299.077Z" fill="#55769F"/>
<path d="M252.159 304.448L334.836 326.205L335.119 325.128L252.442 303.371L252.159 304.448Z" fill="#55769F"/>
<path d="M250.741 309.822L333.419 331.58L333.702 330.503L251.025 308.745L250.741 309.822Z" fill="#55769F"/>
<path d="M249.331 315.194L332.009 336.952L332.292 335.875L249.615 314.117L249.331 315.194Z" fill="#55769F"/>
<path d="M250.76 376.536L365.793 422.735L432.885 255.672L336.223 196.04C330.79 192.688 323.648 195.04 321.271 200.963L250.76 376.536Z" fill="#FEB546"/>
<path d="M389.214 359.003L410.055 352.897C413.723 337.73 415.928 324.812 415.928 324.812C390.782 325.825 371.428 333.521 356.54 344.462L353.46 369.234L346.811 352.626C311.669 386.139 307.555 437.875 307.555 437.875C307.555 437.875 378.287 410.199 391.771 398.794C396.976 394.389 401.763 382.357 405.678 369.242C398.644 365.455 389.214 359.003 389.214 359.003Z" fill="#FF5B7E"/>
<path d="M415.928 324.812C415.928 324.812 333.153 389.743 307.558 437.877C307.558 437.877 378.29 410.202 391.774 398.796C396.979 394.391 401.766 382.36 405.681 369.245C398.644 365.455 389.214 359.003 389.214 359.003L410.055 352.897C413.726 337.73 415.928 324.812 415.928 324.812Z" fill="#E03268"/>
<path d="M430.143 388.54C415.452 384.313 401.625 383.684 388.878 385.407C386.499 390.873 383.515 397.353 383.515 397.353L380.177 386.975C332.411 397.724 301.959 440.022 301.959 440.022C333.992 449.776 358.601 448.153 377.274 441.393C377.401 437.409 377.503 431.489 377.503 431.489L383.183 439.008C391.945 435.074 399.242 430.012 405.262 424.616C402.279 420.726 399.029 416.236 399.029 416.236L410.778 419.233C424.968 404.154 430.143 388.54 430.143 388.54Z" fill="#FF5B7E"/>
<path d="M377.274 441.393C377.401 437.409 377.503 431.489 377.503 431.489L383.183 439.008C391.945 435.074 399.242 430.012 405.262 424.616C402.279 420.726 399.029 416.236 399.029 416.236L410.778 419.233C424.971 404.157 430.143 388.543 430.143 388.543C373.437 397.22 301.959 440.024 301.959 440.024C333.992 449.773 358.599 448.15 377.274 441.393Z" fill="#E03268"/>
<path d="M68.7488 261.842H60.881C62.1692 260.961 63.7788 260.434 65.5296 260.434H262.601C272.912 260.434 281.27 267.842 281.27 276.982V287.492C281.27 296.632 272.912 304.042 262.601 304.042L67.7348 303.984L68.7488 261.842Z" fill="#E03268"/>
<path d="M264.737 287.495V276.984C264.737 267.845 256.378 260.437 246.067 260.437H250.3C260.612 260.437 268.97 267.845 268.97 276.984V287.495C268.97 296.634 260.612 304.045 250.3 304.045H246.125C256.409 304.014 264.737 296.618 264.737 287.495Z" fill="#FEB546"/>
<path d="M218.583 287.495V276.984C218.583 267.845 210.224 260.437 199.913 260.437H204.146C214.458 260.437 222.816 267.845 222.816 276.984V287.495C222.816 296.634 214.458 304.045 204.146 304.045H199.971C210.255 304.014 218.583 296.618 218.583 287.495Z" fill="#FEB546"/>
<path d="M180.629 260.473C190.489 260.473 198.481 267.56 198.481 276.3V288.179C198.481 296.92 190.489 304.006 180.629 304.006H57.9499V301.35H58.4541L89.6426 298.732L95.9451 276.81C95.9451 276.81 83.7778 264.695 82.9855 264.382C82.1931 264.069 58.4541 263.122 58.4541 263.122L57.9471 263.116V260.473H180.629Z" fill="#FF5B7E"/>
<path d="M65.9064 282.16C65.9064 269.344 58.4348 263.13 58.4348 263.13H178.116C187.173 263.13 194.514 269.638 194.514 277.666V286.811C194.514 294.839 187.173 301.347 178.116 301.347H58.4348C58.4348 301.347 65.9064 298.3 65.9064 282.16Z" fill="#DAEEF7"/>
<path d="M194.514 277.666V286.811C194.514 288.013 194.345 289.179 194.035 290.296C189.998 281.542 182.261 273.109 167.534 270.397C133.148 264.066 58.4292 263.127 58.4292 263.127H178.111C187.173 263.13 194.514 269.64 194.514 277.666Z" fill="#DAEEF7"/>
<path d="M71.9927 349.005H63.0888C64.546 347.902 66.3662 347.243 68.3497 347.243H291.393C303.061 347.243 312.522 356.518 312.522 367.957V381.113C312.522 392.555 303.061 401.827 291.393 401.827L70.843 401.752L71.9927 349.005Z" fill="#07085B"/>
<path d="M198.62 347.293C209.779 347.293 218.827 356.161 218.827 367.101V381.97C218.827 392.91 209.779 401.78 198.62 401.78H59.7702V398.453H60.3437L95.6434 395.176L102.777 367.736C102.777 367.736 89.0056 352.573 88.108 352.183C87.2104 351.792 60.3437 350.607 60.3437 350.607L59.7702 350.601V347.293H198.62Z" fill="#55769F"/>
<path d="M68.7763 374.44C68.7763 358.396 60.3213 350.62 60.3213 350.62H195.78C206.03 350.62 214.341 358.768 214.341 368.816V380.263C214.341 390.311 206.03 398.458 195.78 398.458H60.3185C60.3185 398.456 68.7763 394.641 68.7763 374.44Z" fill="#DAEEF7"/>
<path d="M214.336 368.816V380.263C214.336 381.767 214.144 383.227 213.795 384.626C209.227 373.667 200.47 363.114 183.804 359.718C144.889 351.795 60.3213 350.62 60.3213 350.62H195.78C206.027 350.62 214.336 358.765 214.336 368.816Z" fill="#DAEEF7"/>
<path d="M319.875 305.331H328.781C327.324 304.455 325.501 303.935 323.518 303.935H100.389C88.7147 303.935 79.2512 311.293 79.2512 320.371V330.81C79.2512 339.888 88.7147 347.246 100.389 347.246L321.024 347.188L319.875 305.331Z" fill="#02CCC0"/>
<path d="M193.201 303.97C182.036 303.97 172.986 311.007 172.986 319.689V331.488C172.986 340.168 182.036 347.207 193.201 347.207H332.106V344.567H331.532L296.219 341.966L289.082 320.194C289.082 320.194 302.859 308.162 303.757 307.852C304.654 307.541 331.532 306.6 331.532 306.6L332.106 306.594V303.97H193.201Z" fill="#06BFAD"/>
<path d="M323.097 325.51C323.097 312.78 331.557 306.61 331.557 306.61H196.046C185.79 306.61 177.479 313.074 177.479 321.049V330.131C177.479 338.104 185.793 344.567 196.046 344.567H331.557C331.555 344.567 323.097 341.539 323.097 325.51Z" fill="#DAEEF7"/>
<path d="M177.476 321.046V330.128C177.476 331.322 177.668 332.48 178.019 333.591C182.59 324.894 191.35 316.52 208.025 313.827C246.957 307.541 331.557 306.607 331.557 306.607H196.046C185.79 306.61 177.476 313.073 177.476 321.046Z" fill="#DAEEF7"/>
<path opacity="0.5" d="M120.128 330.809V320.371C120.128 311.292 129.591 303.934 141.265 303.934H120.078C108.404 303.934 98.94 311.292 98.94 320.371V330.809C98.94 339.888 108.404 347.246 120.078 347.246L140.986 347.24C129.441 347.121 120.128 339.813 120.128 330.809Z" fill="#55769F"/>
<path d="M334.574 403.503H345.739C343.913 402.525 341.628 401.94 339.14 401.94H59.4072C44.7715 401.94 32.9061 410.163 32.9061 420.305V431.971C32.9061 442.113 44.7715 450.336 59.4072 450.336L336.012 450.269L334.574 403.503Z" fill="#FEB546"/>
<path d="M175.764 401.985C161.769 401.985 150.421 409.847 150.421 419.546V432.727C150.421 442.426 161.769 450.289 175.764 450.289H349.905V447.341H349.185L304.915 444.435L295.967 420.108C295.967 420.108 313.237 406.667 314.365 406.32C315.489 405.974 349.185 404.921 349.185 404.921L349.905 404.916V401.985H175.764Z" fill="#F4A640"/>
<path d="M338.611 426.051C338.611 411.828 349.215 404.933 349.215 404.933H179.33C166.475 404.933 156.053 412.155 156.053 421.064V431.212C156.053 440.121 166.475 447.344 179.33 447.344H349.215C349.215 447.341 338.611 443.961 338.611 426.051Z" fill="#DAEEF7"/>
<path d="M156.053 421.064V431.212C156.053 432.547 156.292 433.841 156.732 435.079C162.461 425.364 173.443 416.008 194.348 412.997C243.156 405.971 349.215 404.933 349.215 404.933H179.33C166.475 404.933 156.053 412.155 156.053 421.064Z" fill="#DAEEF7"/>
<path d="M2.17195 455.339H407.85C409.049 455.339 410.019 454.367 410.019 453.167V452.167C410.019 450.967 409.047 449.998 407.85 449.998H2.17195C0.97239 449.998 0 450.97 0 452.167V453.167C0 454.369 0.97239 455.339 2.17195 455.339Z" fill="#C4DFE8"/>
<path d="M412.507 274.117L334.189 229.321L323.604 250.289L403.741 292.687L412.507 274.117Z" fill="#F4A640"/>
<path d="M216.447 161.347L229.082 162.361L225.004 172.584L218.624 172.071L215.968 180.593C215.319 180.297 214.843 180.072 214.749 180.008C214.555 179.881 213.851 175.651 213.231 171.659L216.447 161.347Z" fill="#DAEEF7"/>
<path d="M223.658 255.351V259.806C223.658 260.174 223.954 260.473 224.323 260.473H234.723C235.476 260.473 235.762 259.487 235.127 259.082L229.293 255.354C229.293 255.351 227.005 257.03 223.658 255.351Z" fill="#E03268"/>
<path d="M203.243 66.5296C203.091 66.5878 202.933 66.4576 202.966 66.2969C203.227 65.0586 204.022 61.1635 203.723 61.0249C203.365 60.8615 202.57 64.3272 202.21 64.3688C201.847 64.4103 202.709 61.0499 202.301 60.9363C201.891 60.8227 201.21 63.9144 201.022 63.9255C200.833 63.9366 201.168 60.9058 200.969 60.6953C200.769 60.4847 200.016 63.6762 199.789 63.7565C199.564 63.8368 199.351 61.4599 199.146 61.4544C198.941 61.4488 198.803 61.41 197.75 66.8953C197.75 66.8953 197.689 68.9066 197.331 69.3775L198.124 70.9926L200.578 71.073C200.578 71.073 205.908 66.2498 205.864 65.9562C205.817 65.6791 205.582 65.6126 203.243 66.5296Z" fill="#FFC0BB"/>
<path d="M228.495 67.7458C228.603 67.8677 228.805 67.8233 228.847 67.6654C229.179 66.4465 230.249 62.6151 230.578 62.6289C230.972 62.6456 230.099 66.0919 230.401 66.2941C230.703 66.4963 231.47 63.1138 231.886 63.1969C232.302 63.2827 231.501 66.344 231.664 66.4409C231.828 66.5379 232.908 63.6872 233.182 63.5902C233.457 63.4933 232.673 66.6792 232.836 66.8509C233 67.0255 234.271 65.0059 234.457 65.0973C234.642 65.186 234.781 65.2137 233.218 70.5771C233.218 70.5771 232.357 72.3944 232.459 72.9762L231.019 74.0538L228.797 73.0066C228.797 73.0066 226.251 66.283 226.423 66.042C226.592 65.8148 226.833 65.8619 228.495 67.7458Z" fill="#FFC0BB"/>
<path d="M208.997 111.67L209.036 121.047L199.927 119.643L201.445 109.096L208.997 111.67Z" fill="#FFC0BB"/>
<path opacity="0.6" d="M200.747 113.953L201.448 109.099L209.008 112.559L209.014 114.41C207.188 114.853 203.781 115.252 200.747 113.953Z" fill="#FC8D84"/>
<path d="M192.536 254.857V259.744C192.536 260.149 192.209 260.476 191.805 260.476H180.366C179.538 260.476 179.222 259.395 179.92 258.949L186.339 254.857C186.339 254.857 188.857 256.697 192.536 254.857Z" fill="#E03268"/>
<path d="M182.089 171.847C182.111 170.803 179.391 173.883 179.443 173.049C180.51 155.699 214.408 170.246 214.408 170.246L222.683 176.318L232.024 256.727C232.024 256.727 226.955 258.196 223.616 256.993L202.93 188.089L200.387 187.112C200.387 187.112 189.073 179.219 182.089 171.847Z" fill="#07085B"/>
<path d="M179.405 173.756C179.393 173.958 179.385 174.166 179.377 174.379C179.385 174.166 179.393 173.958 179.405 173.756Z" fill="#06BFAD"/>
<path d="M179.377 174.39C179.369 174.606 179.36 174.831 179.355 175.058C179.36 174.831 179.369 174.606 179.377 174.39Z" fill="#06BFAD"/>
<path d="M179.352 175.146C179.346 175.382 179.338 175.623 179.333 175.872C179.338 175.626 179.344 175.384 179.352 175.146Z" fill="#06BFAD"/>
<path d="M179.443 173.049C179.432 173.237 179.421 173.431 179.41 173.631C179.421 173.431 179.432 173.235 179.443 173.049Z" fill="#06BFAD"/>
<path d="M179.447 169.107C186.431 176.479 200.388 187.111 200.388 187.111L202.931 188.089L200.388 187.111L192.523 256.727C192.523 256.727 186.919 257.794 183.713 256.06C183.713 256.057 178.993 189.793 179.447 169.107Z" fill="#07085B"/>
<path d="M232.024 256.725C232.024 256.725 229.841 257.356 227.395 257.453C229.841 257.359 232.024 256.725 232.024 256.725Z" fill="#06BFAD"/>
<path d="M224.597 257.265C224.822 257.312 225.051 257.348 225.284 257.378C225.051 257.348 224.822 257.309 224.597 257.265Z" fill="#06BFAD"/>
<path d="M227.398 257.453C226.816 257.475 226.221 257.467 225.633 257.414C226.218 257.467 226.813 257.475 227.398 257.453Z" fill="#06BFAD"/>
<path d="M222.683 176.318L224.015 187.793C220.486 189.159 211.887 190.619 205.41 176.446C203.365 171.977 202.842 168.758 203.218 166.448C209.424 168.107 214.411 170.246 214.411 170.246L222.683 176.318Z" fill="#050645"/>
<path d="M191.58 129.477C191.971 129.477 197.844 116.168 197.844 116.168C202.867 119.692 209.684 117.246 209.684 117.246C209.684 117.246 237.116 167.442 218.719 175.271C200.323 183.1 182.97 173.575 182.97 173.575C182.97 173.575 179.056 163.4 179.056 163.007C179.056 162.616 191.19 129.477 191.58 129.477Z" fill="#DAEEF7"/>
<path d="M227.329 73.1147C227.329 73.1147 228.517 96.9314 226.284 101.295C218.879 115.775 209.682 117.243 209.682 117.243C209.682 117.243 206.518 167.896 209.128 180.031C209.128 180.031 217.804 182.707 230.589 176.703C230.589 176.703 220.805 137.434 221.325 132.475C221.325 132.475 236.981 118.515 237.504 102.076C238.025 85.6367 233.72 71.0259 233.72 71.0259L227.329 73.1147Z" fill="#AADD22"/>
<path d="M185.123 178.207C185.123 178.207 186.101 159.355 190.406 141.481C194.711 123.607 197.841 116.171 197.841 116.171C192.068 109.811 193.026 104.062 193.536 96.6015C194.123 87.9913 202.54 70.7681 202.54 70.7681L196.863 67.0503C169.661 99.732 184.729 125.759 184.729 125.759C184.729 125.759 174.554 161.768 173.182 172.728C173.185 172.728 178.598 175.858 185.123 178.207Z" fill="#AADD22"/>
<path d="M221.062 132.422C220.735 132.19 220.347 131.835 219.968 131.383C218.815 129.99 218.217 128.425 217.804 126.671C218.054 127.419 218.724 129.591 220.134 131.245C220.766 131.965 221.101 132.209 221.406 132.406C221.356 132.45 221.328 132.475 221.328 132.475C221.325 132.508 221.323 132.541 221.32 132.578C220.957 132.652 220.323 132.674 219.253 132.093C218.588 131.744 218.062 131.311 217.513 130.843C217.874 131.098 218.616 131.638 219.317 131.965C219.802 132.209 220.519 132.461 221.062 132.422Z" fill="white"/>
<path d="M184.94 125.638C185.405 125.341 185.81 124.92 186.184 124.494C187.339 123.139 187.971 121.538 188.513 119.92C188.101 121.662 187.508 123.233 186.347 124.632C185.97 125.084 185.588 125.435 185.253 125.671C185.508 125.688 185.815 125.64 186.017 125.582C186.353 125.496 186.685 125.374 187.001 125.217C187.655 124.909 188.3 124.452 188.804 124.095C188.317 124.507 187.76 124.978 187.065 125.344C186.749 125.516 186.416 125.66 186.065 125.762C185.71 125.851 185.35 125.929 184.948 125.821L184.74 125.765L184.94 125.638Z" fill="white"/>
<path d="M195.93 92.5321L195.378 98.9676L196.395 99.6076L198.276 91.7703L195.93 92.5321Z" fill="#07085B"/>
<path d="M197.298 98.3028C197.578 99.76 196.858 101.123 195.691 101.347C194.525 101.572 193.353 100.572 193.073 99.1117C192.794 97.6545 193.514 96.2915 194.68 96.0671C195.847 95.8455 197.018 96.8456 197.298 98.3028Z" fill="#F99893"/>
<path d="M195.628 104.253C195.329 102.389 195.373 100.486 195.536 98.8483C195.572 98.4964 195.586 98.1446 195.594 97.7928C195.628 96.3688 195.927 94.9088 196.55 93.4738C198.559 88.8529 203.454 86.0465 208.454 86.6671C215.192 87.5037 219.63 93.8422 218.333 100.319C219.117 100.07 219.926 100.136 220.561 100.588C221.777 101.452 221.888 103.386 220.807 104.907C219.727 106.428 217.865 106.96 216.649 106.095C216.48 105.976 216.336 105.832 216.209 105.677C214.544 111.077 209.175 114.429 203.775 113.254C199.678 112.359 196.295 108.96 195.628 104.253Z" fill="#FFC0BB"/>
<path d="M208.08 99.1063C207.814 99.7712 208.296 100.491 209.025 100.489C209.421 100.489 209.79 100.234 209.937 99.8653C210.202 99.1977 209.72 98.4774 208.989 98.4829C208.596 98.4829 208.227 98.7378 208.08 99.1063Z" fill="#333333"/>
<path d="M199.551 97.829C199.285 98.4939 199.767 99.2142 200.498 99.2086C200.897 99.2059 201.263 98.9538 201.409 98.5825C201.673 97.9177 201.193 97.1974 200.462 97.2029C200.066 97.2057 199.697 97.4606 199.551 97.829Z" fill="#333333"/>
<path d="M206.753 106.118C206.224 106.381 205.629 106.578 205.144 106.672C204.59 106.78 204.022 106.813 203.468 106.736C202.914 106.661 202.379 106.467 201.891 106.185C201.407 105.896 200.974 105.52 200.581 105.101C200.98 105.664 201.343 105.988 201.811 106.315C202.296 106.631 202.811 106.838 203.443 106.933C204.025 107.01 204.62 106.966 205.183 106.819C205.739 106.672 206.28 106.445 206.753 106.118Z" fill="#F99893"/>
<path d="M207.271 97.0727C207.795 96.9785 208.285 96.9203 208.77 96.912C209.252 96.9037 209.718 96.9564 210.164 97.0783C210.604 97.2057 211.042 97.3691 211.444 97.6351C211.992 97.9481 212.386 98.3277 212.671 98.5161C212.488 98.0534 212.194 97.5049 211.793 97.1808C211.405 96.7901 210.887 96.5242 210.349 96.3746C209.806 96.2278 209.23 96.2222 208.698 96.3469C208.166 96.4771 207.662 96.7043 207.271 97.0727Z" fill="#07085B"/>
<path d="M203.288 96.4162C203.033 95.9425 202.628 95.5657 202.169 95.2721C201.703 94.9839 201.157 94.8039 200.598 94.7679C200.041 94.7374 199.465 94.8233 198.972 95.0671C198.487 95.2444 198.03 95.6738 197.711 96.0505C198.068 95.9563 198.52 95.7319 199.157 95.61C199.623 95.4881 200.091 95.4715 200.548 95.4937C201.008 95.5214 201.468 95.6211 201.919 95.7846C202.374 95.9453 202.822 96.1613 203.288 96.4162Z" fill="#07085B"/>
<path d="M205.025 97.6792C204.554 98.1197 204.124 98.599 203.717 99.0948C203.31 99.5935 202.93 100.114 202.592 100.671C202.401 101.006 202.157 101.452 202.099 101.832C202.066 102.042 202.083 102.247 202.434 102.594C202.664 102.838 202.925 103.037 203.191 103.22C203.46 103.4 203.737 103.566 204.03 103.702C203.543 103.284 203.052 102.868 202.667 102.392C202.606 102.32 202.487 102.145 202.446 102.048C202.426 101.979 202.462 101.821 202.515 101.691C202.62 101.416 202.77 101.139 202.93 100.873C203.249 100.333 203.609 99.8096 203.961 99.2805C204.318 98.7513 204.678 98.2222 205.025 97.6792Z" fill="#F99893"/>
<path d="M197.126 85.6614C197.126 85.6614 193.747 85.0104 197.91 82.9686C202.074 80.9269 212.283 79.7384 217.621 84.3095C217.621 84.3095 219.417 82.0073 221.029 83.0185C222.641 84.0297 219.35 85.1489 219.35 85.1489C219.35 85.1489 221.602 85.5839 222.037 86.8333C222.359 87.7586 220.979 87.4843 220.239 87.2793C221.464 87.7835 225.065 91.1855 220.389 100.477C219.561 100.089 214.208 92.4543 214.208 92.4543C214.208 92.4543 203.448 95.9893 205.41 93.0582C205.41 93.0582 192.868 96.2137 195.908 90.5289C195.908 90.5261 191.284 89.8308 197.126 85.6614Z" fill="#07085B"/>
<path d="M220.389 100.477C220.389 100.477 219.577 99.8567 218.336 100.317C217.095 100.776 216.308 103.561 216.308 103.561C216.308 103.561 212.247 106.885 214.228 92.3934C216.173 78.1538 218.868 94.7648 218.868 94.7648L220.389 100.477Z" fill="#07085B"/>
<path d="M226.312 55.9138L207.745 54.5923C206.806 54.5259 206.097 53.7086 206.166 52.7695C206.233 51.8303 207.05 51.1239 207.989 51.1904L226.556 52.5118C227.495 52.5783 228.201 53.3956 228.135 54.3347C228.068 55.2711 227.251 55.9803 226.312 55.9138Z" fill="#FEB546"/>
<path d="M220.965 0L227.453 15.9045L244.236 19.578L231.113 30.6649L232.806 47.7579L218.209 38.7044L202.473 45.5971L206.573 28.9168L195.154 16.0818L212.289 14.8241L220.965 0Z" fill="#FEB546"/>
<path d="M220.965 0L219.303 23.3401L227.453 15.9045L220.965 0Z" fill="#F4A640"/>
<path d="M244.236 19.5781L219.303 23.3403L231.113 30.665L244.236 19.5781Z" fill="#F4A640"/>
<path d="M219.303 23.34L212.288 14.824L195.154 16.0817L219.303 23.34Z" fill="#F4A640"/>
<path d="M202.473 45.597L219.303 23.3401L206.573 28.9168L202.473 45.597Z" fill="#F4A640"/>
<path d="M232.806 47.7579L219.303 23.3401L218.209 38.7044L232.806 47.7579Z" fill="#F4A640"/>
<path d="M231.111 56.6271L202.902 54.6165L202.195 64.5316L230.404 66.5423L231.111 56.6271Z" fill="#6F747A"/>
<path d="M202.26 63.4307L202.182 64.5139L230.391 66.5218L230.468 65.4385L202.26 63.4307Z" fill="#CDD6E0"/>
<path d="M202.908 54.3225L202.831 55.4058L231.04 57.4136L231.117 56.3304L202.908 54.3225Z" fill="#CDD6E0"/>
<path d="M230.861 57.0883L203.074 55.1103C202.371 55.0605 201.842 54.4482 201.891 53.7445C201.941 53.0409 202.554 52.5117 203.257 52.5616L231.044 54.5424C231.747 54.5923 232.277 55.2045 232.227 55.9082C232.177 56.6091 231.565 57.1382 230.861 57.0883Z" fill="#F4A640"/>
<path d="M230.767 68.8596L201.119 66.7486C200.93 66.7348 200.786 66.5713 200.8 66.3802L200.933 64.5185C200.947 64.3301 201.11 64.186 201.301 64.1999L230.95 66.3109C231.138 66.3247 231.282 66.4882 231.268 66.6794L231.135 68.541C231.119 68.7322 230.955 68.8735 230.767 68.8596Z" fill="#6F747A"/>
<path d="M221.733 63.283L211.006 62.5183C209.673 62.4241 208.67 61.2661 208.765 59.9336C208.859 58.6011 210.017 57.5982 211.349 57.6924L222.076 58.457C223.409 58.5512 224.412 59.7092 224.317 61.0417C224.223 62.3743 223.065 63.3771 221.733 63.283Z" fill="#FEB546"/>
<path d="M211.061 61.715C210.108 61.6457 209.405 60.7592 209.593 59.7924C209.751 58.9806 210.535 58.4432 211.36 58.5014L221.949 59.2549C222.774 59.3131 223.472 59.9586 223.514 60.7841C223.561 61.7676 222.741 62.5461 221.788 62.4796L211.061 61.715Z" fill="#D9D9D9"/>
<path d="M220.181 53.0937L214.214 52.6671L214.253 52.113C214.413 49.8635 214.663 45.19 218.206 38.7046C220.899 46.1208 220.381 50.2902 220.22 52.5397L220.181 53.0937Z" fill="#FEB546"/>
</svg>
