<svg width="63" height="64" viewBox="0 0 63 64" fill="none" xmlns="http://www.w3.org/2000/svg">
<path d="M21.7418 22.4245C10.9688 28.5303 13.1 44.8229 25.0984 48.0516C27.2508 48.627 29.1049 50.0123 30.3623 51.8664L34.6672 58.2278C35.85 59.986 38.1943 60.5295 40.0271 59.4852L44.1082 57.1729C45.9517 56.1286 46.6869 53.8483 45.7918 51.9303C42.5312 44.9295 40.8262 42.5745 41.9877 38.4934C45.3976 26.527 32.5148 16.3188 21.7418 22.4245Z" fill="#B1B1DE"/>
<path d="M34.1558 52.5805C31.1296 46.6666 27.6877 40.5182 26.6435 38.792C20.2074 41.5731 20.1541 33.7305 24.2246 35.4247C25.3861 35.9043 26.1959 36.8526 26.8992 37.9395C29.009 36.9379 30.9164 35.5313 32.4935 33.8157C31.8328 32.3239 31.2468 31.2264 31.3214 30.0969C31.4173 28.3813 33.1435 27.2944 34.4328 28.4559C34.9123 28.8928 35.2214 29.5641 35.2214 30.2141C35.232 31.5993 34.1984 32.8887 33.2714 33.9436C35.4238 38.7387 37.7254 43.5231 40.123 48.1797L39.5263 48.4887C37.1714 43.8961 34.9017 39.1969 32.7705 34.4764C31.1935 36.1493 29.3074 37.5239 27.2402 38.5149C28.5615 40.7206 31.8968 46.7198 34.7312 52.2821L34.1558 52.5805ZM22.9886 38.4829C23.7984 38.8985 24.8853 38.8133 26.2918 38.2272C25.6631 37.2682 24.9492 36.4583 23.9795 36.0534C21.7845 35.1264 21.6246 37.7903 22.9886 38.4829ZM31.982 30.1395C31.9287 31.0879 32.4509 32.0895 32.973 33.2723C33.7189 32.3879 34.5607 31.3223 34.55 30.2141C34.55 29.4362 33.9107 28.5731 33.1435 28.6477C33.0689 28.6583 32.0246 29.4682 31.982 30.1395Z" fill="#FBF3FF"/>
<path d="M30.2556 51.7061C30.2876 51.7594 30.3302 51.802 30.3728 51.8659L34.6777 58.2274C35.8605 59.9856 38.2048 60.5291 40.0376 59.4848L44.1187 57.1725C45.9622 56.1282 46.6974 53.8479 45.8023 51.9299C44.3532 48.8184 43.213 46.6233 42.4884 44.7905L30.2556 51.7061Z" fill="#8282A8"/>
<path d="M11.331 20.3245L5.59825 15.327C5.04416 14.8475 4.99087 14.0057 5.47037 13.4516C5.94988 12.8975 6.7917 12.8442 7.3458 13.3237L13.0786 18.3213C13.6327 18.8008 13.686 19.6426 13.2065 20.1967C12.7163 20.7508 11.8745 20.804 11.331 20.3245Z" fill="#B1B1DE"/>
<path d="M9.39182 38.2161L1.67705 40.3046C0.963116 40.4964 0.238526 40.0808 0.046723 39.3669C-0.14508 38.653 0.270499 37.9284 0.984434 37.7366L8.69918 35.648C9.41312 35.4562 10.1377 35.8718 10.3295 36.5857C10.532 37.289 10.1058 38.0243 9.39182 38.2161Z" fill="#B1B1DE"/>
<path d="M10.4041 63.8429C9.7328 63.5339 9.45574 62.7347 9.76476 62.0741C10.9369 59.5806 12.3435 57.1937 13.9631 54.9667C14.4 54.37 15.2312 54.2421 15.8279 54.679C16.4246 55.1159 16.5525 55.947 16.1156 56.5438C14.5918 58.6323 13.2705 60.87 12.173 63.2142C11.8746 63.8642 11.0754 64.1626 10.4041 63.8429Z" fill="#B1B1DE"/>
<path d="M29.659 13.1963C28.9238 13.2603 28.2738 12.7275 28.2099 11.9922C27.8902 8.50781 27.2082 5.05535 26.1852 1.7201C25.9721 1.01682 26.3664 0.270923 27.0697 0.0578079C27.773 -0.155307 28.5189 0.238958 28.732 0.942237C29.8189 4.45863 30.5328 8.09224 30.8631 11.7578C30.9377 12.4824 30.3943 13.1324 29.659 13.1963Z" fill="#B1B1DE"/>
<path d="M40.8902 19.9735C40.4426 19.3875 40.5705 18.5563 41.1566 18.1088L48.0615 12.9088C48.6475 12.4612 49.4894 12.5891 49.9262 13.1752C50.3631 13.7612 50.2459 14.603 49.6598 15.0399L42.7549 20.2399C42.1689 20.6768 41.3377 20.5596 40.8902 19.9735Z" fill="#B1B1DE"/>
<path d="M61.2534 35.9574C61.1468 36 61.0189 36.0213 60.9017 36.032C57.9288 36.2664 54.9239 36.1812 51.9722 35.7762C51.2476 35.6803 50.7362 35.009 50.8321 34.2738C50.928 33.5492 51.5993 33.0377 52.3345 33.1336C55.0944 33.5172 57.9075 33.5918 60.6886 33.3787C61.4239 33.3254 62.0632 33.8689 62.1165 34.6041C62.1698 35.2115 61.7968 35.7549 61.2534 35.9574Z" fill="#B1B1DE"/>
</svg>
