<svg width="73" height="67" viewBox="0 0 73 67" fill="none" xmlns="http://www.w3.org/2000/svg">
<path d="M2.97412 3.91314C7.14196 3.57231 13.5466 5.4087 16.4151 7.3519C16.8482 7.75377 20.1499 9.06618 23.5789 14.7432L22.8045 15.2773C19.1818 11.4927 16.7463 10.6431 13.8472 9.77834C9.06793 8.55239 4.24791 9.46807 3.85048 9.68172L2.97412 3.91314Z" fill="#355389"/>
<path d="M23.1963 15.0129C23.1963 15.0129 -2.21329 19.2452 0.155955 39.0639C2.5252 58.8826 29.3308 74.2961 53.2526 62.0417C85.4387 45.5549 72.7263 3.63343 49.8185 0.393047C26.9157 -2.84733 23.1963 15.0129 23.1963 15.0129Z" fill="#F47458"/>
<path d="M33.973 6.28374C33.973 6.28374 40.6018 -0.51239 55.1281 5.66824C69.6544 11.8489 70.704 40.6766 57.7521 39.003C44.7951 37.3294 23.6197 10.4449 33.973 6.28374Z" fill="#F48C7F"/>
</svg>
