<svg width="268" height="153" viewBox="0 0 268 153" fill="none" xmlns="http://www.w3.org/2000/svg">
<g filter="url(#filter0_d)">
<path d="M-147 63C-147 61.3431 -145.657 60 -144 60H38.9412H223.588C224.414 60 225.204 60.3406 225.77 60.9415L262.558 99.9415C263.648 101.097 263.648 102.903 262.558 104.059L225.77 143.059C225.204 143.659 224.414 144 223.588 144H-144C-145.657 144 -147 142.657 -147 141V63Z" fill="#AADD22"/>
<path d="M137.046 31.3458C136.52 30.3315 148.522 26.6786 148.711 36.6909C148.711 36.6909 171.195 36.1377 160.46 23.6064C156.744 19.2676 157.125 15.681 157.237 12.3419C157.35 9.00282 154.922 -0.702173 146.6 0.274959C146.6 0.274959 144.421 -0.611578 141.702 0.799116C135.517 4.00715 121.661 35.0376 137.046 31.3458Z" fill="#163560"/>
<path d="M173.803 42.5392C173.803 42.5392 175.267 40.3115 176.446 40.2679C177.626 40.2242 179.81 39.6127 179.635 40.0495C179.46 40.4863 178.106 40.5299 177.975 40.792C177.844 41.0541 179.984 41.4472 180.596 41.4909C181.207 41.5346 182.649 41.4909 182.605 41.7966C182.561 42.1024 180.007 43.3691 178.205 43.1944C176.402 43.0197 174.175 43.7186 174.175 43.7186L173.803 42.5392Z" fill="#FFB27D"/>
<path d="M152.638 43.259C152.638 43.259 153.434 44.8347 154.877 46.6434C156.616 48.8209 159.297 51.3381 162.665 51.8348C164.273 52.0726 165.846 51.7264 167.292 51.0841C167.295 51.0825 167.297 51.0825 167.297 51.0825C171.385 49.2674 174.46 45.0935 174.46 45.0935C175.182 43.1279 174.002 41.7949 174.002 41.7949C174.002 41.7949 165.745 43.6521 164.959 43.259C164.173 42.8659 159.586 29.6519 158.495 27.9905C157.401 26.3307 153.68 25.4684 153.68 25.4684L152.638 43.259Z" fill="#AADD22"/>
<path d="M154.877 46.645C156.616 48.8225 159.297 51.3398 162.665 51.8364C164.273 52.0742 165.845 51.728 167.292 51.0858C167.131 51.1068 163.048 51.6116 161.421 48.6996C159.761 45.7277 157.965 41.0103 155.498 42.5828C154.432 43.2606 154.48 44.948 154.877 46.645Z" fill="#93BB91"/>
<path d="M121.835 132.383C121.835 132.383 119.316 134.682 119.808 136.316C120.3 137.95 122.573 139.039 122.88 141.035C123.188 143.032 124.417 144.12 125.522 144.12C126.629 144.12 130.796 144.12 130.796 144.12C130.796 144.12 131.61 142.715 129.644 142.292C127.679 141.868 126.936 139.523 127.059 137.344C127.182 135.166 126.875 132.261 126.875 132.261L122.696 131.293L121.835 132.383Z" fill="#233862"/>
<path d="M143.159 133.359C143.159 133.359 142.253 143.1 143.358 143.643L157.514 143.614C157.514 143.614 157.514 141.98 155.241 141.618C152.968 141.255 148.973 139.924 148.297 136.959C147.621 133.995 143.159 133.359 143.159 133.359Z" fill="#233862"/>
<path d="M133.072 63.4827C135.986 56.9502 137.767 55.0752 137.427 53.0481C137.173 51.5387 138.199 24.9119 138.199 24.9119C138.545 24.8051 139.238 24.7097 139.616 24.6255C140.812 24.3602 141.8 23.5206 142.211 22.3687C142.706 20.9807 143.101 18.9294 143.091 16.3604L143.465 16.4332L149.739 17.6756C149.739 17.6756 149.596 19.6493 149.591 21.5097C149.591 21.5259 149.591 21.5404 149.591 21.5566C149.583 23.1728 150.643 24.598 152.196 25.0462C152.989 25.2743 153.678 25.47 153.678 25.47C153.678 25.47 155.982 32.0479 156.422 38.8037C156.862 45.5611 152.232 48.4957 156.457 61.9976C160.769 75.7875 131.463 67.092 133.072 63.4827Z" fill="#FFB27D"/>
<path d="M149.739 17.6741C149.739 17.6741 149.596 19.6478 149.591 21.5082C146.081 21.4095 144.225 18.2063 143.465 16.4316L149.739 17.6741Z" fill="#E8945B"/>
<path d="M150.91 19.4359C150.91 19.4359 142.603 19.5734 142.598 14.3982C142.592 9.22455 141.516 5.75767 146.819 5.45029C152.122 5.14453 153.154 7.11659 153.576 8.84437C153.999 10.5721 153.072 19.2677 150.91 19.4359Z" fill="#FFB27D"/>
<path d="M150.602 5.32401C150.602 5.32401 148.328 11.3939 144.838 12.2917C141.349 13.1896 139.834 12.2545 139.834 12.2545C139.834 12.2545 142.512 10.1272 143.067 6.41601C143.067 6.41601 148.888 2.43629 150.602 5.32401Z" fill="#163560"/>
<path d="M150.04 5.81743C150.04 5.81743 151.725 6.44836 152.421 7.67787C153.1 8.88149 153.678 10.4734 153.544 12.4276C153.544 12.4276 155.257 8.30232 153.332 5.96788C151.288 3.4927 150.04 5.81743 150.04 5.81743Z" fill="#163560"/>
<path d="M149.103 16.2261C149.103 16.2261 149.675 16.98 150.822 16.9266C151.746 16.8829 152.102 16.0821 152.102 16.0821C152.102 16.0821 150.406 15.6728 149.103 16.2261Z" fill="#EBF3FA"/>
<path d="M132.27 36.6893C132.27 36.6893 132.06 39.6627 132.27 43.2315C132.411 45.5967 134.804 48.7659 135.143 49.5489C135.996 51.5145 136.955 51.8348 136.955 51.8348L144.387 53.6564L147 54.2954L155.241 51.8348C155.241 51.8348 158.994 41.3581 157.488 35.4614C155.98 29.5646 153.678 25.4684 153.678 25.4684C153.678 25.4684 146.953 32.0527 138.198 24.9103L132.27 36.6893Z" fill="#AADD22"/>
<path d="M134.446 44.1974C134.587 46.5626 134.804 48.766 135.144 49.549C135.996 51.5146 136.955 51.8349 136.955 51.8349L144.387 53.6565L147.615 52.7069C147.615 52.7069 136.839 51.0745 138.033 41.8031L134.446 44.1974Z" fill="#F2CCAA"/>
<path d="M154.717 53.4252C154.717 53.4252 158.799 66.1279 159.061 70.4522C159.323 74.7765 151.26 131.89 150.935 133.883C150.629 135.762 148.296 136.959 148.296 136.959C148.296 136.959 147.223 137.591 145.691 137.159C143.567 136.559 142.896 135.841 142.896 135.841C142.896 135.841 139.72 95.1086 141.686 80.5584C143.651 66.0082 143.674 53.4252 143.674 53.4252H154.717Z" fill="#ED7D2B"/>
<path d="M137.426 53.0465C137.426 53.0465 131.201 61.399 130.62 67.0451C130.039 72.6911 129.709 92.5249 128.473 98.0286C127.237 103.532 122.694 114.125 122.694 131.293C122.694 131.293 123.167 132.277 124.624 132.801C125.09 132.969 125.715 133.131 126.321 133.27C127.523 133.545 128.758 132.958 129.306 131.853C132.377 125.67 142.161 105.726 142.662 101.586C143.017 98.6563 146.107 79.2673 152.845 67.8895C154.462 65.1587 151.851 54.2954 151.851 54.2954L137.426 53.0465Z" fill="#F99746"/>
<path d="M149.288 16.3652C149.288 16.3652 149.432 16.9751 150.947 16.8813C150.947 16.8813 152.221 16.802 152.182 16.1323C152.183 16.1306 150.947 15.655 149.288 16.3652Z" fill="white"/>
<path d="M155.368 51.4645C155.368 51.4645 153.73 52.7603 150.475 52.8266C146.587 52.9043 136.955 51.8349 136.955 51.8349C136.955 51.8349 136.526 53.0305 136.544 54.294C136.544 54.294 148.308 57.2609 155.126 54.7275C155.126 54.7275 156.006 53.0725 155.368 51.4645Z" fill="#233862"/>
<path d="M149.635 54.1693C149.635 53.0627 150.431 52.1616 151.408 52.1616C152.387 52.1616 153.183 53.0627 153.183 54.1693C153.183 55.2758 152.387 56.1769 151.408 56.1769C150.431 56.1769 149.635 55.2758 149.635 54.1693ZM150.223 54.1693C150.223 54.9523 150.755 55.5897 151.408 55.5897C152.062 55.5897 152.594 54.9523 152.594 54.1693C152.594 53.3863 152.062 52.7489 151.408 52.7489C150.755 52.7489 150.223 53.3863 150.223 54.1693Z" fill="white"/>
<path d="M124.289 53.7614L136.344 64.2578L150.711 47.7569L138.657 37.2605L124.289 53.7614Z" fill="#B5453C"/>
<path d="M139.674 53.8004C139.674 53.8004 144.091 54.3165 144.076 55.3648C144.062 56.4131 142.976 58.5664 142.431 58.6618C141.886 58.7573 138.836 55.7498 138.836 55.7498L139.674 53.8004Z" fill="#FFB27D"/>
<path d="M138.198 24.9103C138.198 24.9103 132.301 25.3244 130.041 30.8184C127.781 36.3123 123.492 45.5384 123.492 47.0899C123.492 48.6413 125.888 53.4267 138.753 56.1769C138.753 56.1769 140.084 54.7775 140.003 53.671C140.003 53.671 131.973 46.7728 131.994 45.9672C132.034 44.4416 133.31 42.4291 140.361 35.3756C142.278 33.4569 138.198 24.9103 138.198 24.9103Z" fill="#AADD22"/>
</g>
<defs>
<filter id="filter0_d" x="-151" y="0" width="418.376" height="152.12" filterUnits="userSpaceOnUse" color-interpolation-filters="sRGB">
<feFlood flood-opacity="0" result="BackgroundImageFix"/>
<feColorMatrix in="SourceAlpha" type="matrix" values="0 0 0 0 0 0 0 0 0 0 0 0 0 0 0 0 0 0 127 0"/>
<feOffset dy="4"/>
<feGaussianBlur stdDeviation="2"/>
<feColorMatrix type="matrix" values="0 0 0 0 0 0 0 0 0 0 0 0 0 0 0 0 0 0 0.25 0"/>
<feBlend mode="normal" in2="BackgroundImageFix" result="effect1_dropShadow"/>
<feBlend mode="normal" in="SourceGraphic" in2="effect1_dropShadow" result="shape"/>
</filter>
</defs>
</svg>
