<svg width="262" height="283" viewBox="0 0 262 283" fill="none" xmlns="http://www.w3.org/2000/svg">
<path d="M-58.1918 202.005C-58.1918 202.005 37.9328 96.4743 62.0821 78.0508C86.2268 59.6301 89.9423 83.824 89.9423 83.824C89.9423 83.824 129.295 37.7324 148.106 42.4297C166.915 47.1223 151.576 70.9274 151.576 70.9274C151.576 70.9274 213.477 38.2971 221.103 50.8331C235.304 74.1824 169.826 113.216 169.826 113.216C169.826 113.216 198.967 103.72 199.55 120.472C200.431 145.738 132.881 149.66 132.881 149.66C132.881 149.66 147.432 173.722 140.444 189.501C127.902 217.821 -58.1918 202.005 -58.1918 202.005Z" fill="#50BFA5"/>
<path d="M153.386 165.915C160.241 150.538 135.972 149.252 135.972 149.252C135.972 149.252 199.437 146.621 199.417 121.933C199.405 105.564 171.781 114.32 171.781 114.32C171.781 114.32 234.416 77.3696 221.848 54.3225L7.08941 192.018C24.1767 192.826 141.893 191.695 153.386 165.915Z" fill="#3C8F7C"/>
</svg>
