<svg width="512" height="512" viewBox="0 0 512 512" fill="none" xmlns="http://www.w3.org/2000/svg"><path fill="#fff" d="M0 0h512v512H0z"/><path d="M469.334 237.914c0-90.552-73.407-163.958-163.959-163.958-90.551 0-163.958 73.406-163.958 163.958 0 90.552 73.407 163.958 163.958 163.958 90.552 0 163.959-73.406 163.959-163.958z" fill="#AD2"/><path fill-rule="evenodd" clip-rule="evenodd" d="M140.376 136.018c-13.794 0-25.747 2.804-35.871 8.4-10.121 5.601-18.486 12.973-25.086 22.105-6.604 9.138-11.596 19.529-14.965 31.168a127.131 127.131 0 00-5.062 35.59c0 13.262 1.685 25.862 5.062 37.799 3.37 11.936 8.508 22.327 15.405 31.169 6.89 8.842 15.404 15.844 25.526 20.997 10.124 5.161 21.787 7.739 34.991 7.739 13.788 0 25.817-2.652 36.092-7.959 10.266-5.304 18.85-12.524 25.747-21.663 6.891-9.132 12.027-19.52 15.404-31.168 3.369-11.639 5.062-23.942 5.062-36.914 0-12.67-1.693-24.902-5.062-36.695-3.377-11.784-8.513-22.175-15.404-31.168-6.897-8.987-15.481-16.137-25.747-21.444-10.275-5.304-22.304-7.956-36.092-7.956zm99.031-9.286v215.305c0 12.67-1.464 24.979-4.395 36.914-2.929 11.938-7.976 22.472-15.15 31.61-7.173 9.135-17.054 16.43-29.64 21.885-12.586 5.45-28.54 8.179-47.858 8.179-12.001 0-23.274-1.257-33.808-3.758-10.536-2.507-19.757-6.486-27.66-11.935-7.909-5.458-14.277-12.676-19.103-21.665-4.83-8.994-7.539-20.114-8.123-33.377h16.726c.88 10.015 3.369 18.567 7.481 25.64 4.106 7.075 9.463 12.891 16.065 17.464 6.602 4.566 14.009 7.882 22.227 9.947 8.212 2.059 17.013 3.096 26.408 3.096 15.549 0 28.534-2.364 38.953-7.075 10.41-4.718 18.705-10.831 24.867-18.348 6.16-7.514 10.487-16.066 12.983-25.64 2.49-9.582 3.741-19.232 3.741-28.958v-52.167h-.879c-7.921 16.798-18.708 29.619-32.349 38.463-13.646 8.842-30.151 13.261-49.517 13.261-16.725 0-31.18-2.872-43.352-8.62-12.182-5.748-22.304-13.707-30.371-23.874-8.074-10.169-14.083-22.028-18.045-35.589-3.96-13.553-5.941-28.295-5.941-44.209 0-15.032 2.124-29.325 6.38-42.885 4.251-13.553 10.488-25.42 18.708-35.589 8.21-10.167 18.41-18.271 30.588-24.315 12.172-6.038 26.189-9.064 42.033-9.064 17.894 0 34.399 4.575 49.517 13.705 15.109 9.14 25.891 22.106 32.349 38.905h.879v-47.306h16.286z" fill="#000"/><mask id="icon_svg__a" style="mask-type:alpha" maskUnits="userSpaceOnUse" x="260" y="121" width="209" height="239"><path d="M260.329 121.428H468.07v237.851H260.329V121.428z" fill="#fff"/></mask><g mask="url(#icon_svg__a)"><path fill-rule="evenodd" clip-rule="evenodd" d="M277.052 240.354c0 13.559 1.906 26.602 5.723 39.124 3.808 12.531 9.386 23.654 16.723 33.379 7.333 9.728 16.433 17.464 27.289 23.212 10.853 5.746 23.328 8.62 37.411 8.62 14.086 0 26.554-2.874 37.413-8.62 10.853-5.748 19.95-13.484 27.287-23.212 7.333-9.725 12.911-20.848 16.726-33.379 3.811-12.522 5.722-25.565 5.722-39.124 0-13.553-1.911-26.594-5.722-39.125-3.815-12.525-9.393-23.654-16.726-33.379-7.337-9.727-16.434-17.464-27.287-23.21-10.859-5.748-23.327-8.622-37.413-8.622-14.083 0-26.558 2.874-37.411 8.622-10.856 5.746-19.956 13.483-27.289 23.21-7.337 9.725-12.915 20.854-16.723 33.379-3.817 12.531-5.723 25.572-5.723 39.125zm-16.723 0c0-16.205 2.268-31.459 6.82-45.757 4.548-14.293 11.224-26.892 20.027-37.801 8.802-10.899 19.655-19.521 32.57-25.862 12.908-6.333 27.729-9.506 44.452-9.506 16.726 0 31.54 3.173 44.455 9.506 12.908 6.341 23.769 14.963 32.57 25.862 8.804 10.909 15.474 23.508 20.026 37.801 4.546 14.298 6.823 29.552 6.823 45.757 0 16.213-2.277 31.541-6.823 45.978-4.552 14.445-11.222 27.044-20.026 37.8-8.801 10.764-19.662 19.307-32.57 25.642-12.915 6.335-27.729 9.505-44.455 9.505-16.723 0-31.544-3.17-44.452-9.505-12.915-6.335-23.768-14.878-32.57-25.642-8.803-10.756-15.479-23.355-20.027-37.8-4.552-14.437-6.82-29.765-6.82-45.978z" fill="#000"/></g></svg>