<svg width="120" height="93" viewBox="0 0 120 93" fill="none" xmlns="http://www.w3.org/2000/svg">
<path d="M116.223 59.3725L24.5172 92.0315C21.5617 93.085 18.3111 91.5449 17.2559 88.5941L0.332156 41.2217C-0.723061 38.2709 0.819529 35.0256 3.77503 33.972L95.4806 1.31307C98.4361 0.259551 101.687 1.79965 102.742 4.75038L119.67 52.1229C120.721 55.0736 119.178 58.319 116.223 59.3725Z" fill="#86B1F2"/>
<path d="M55.4402 47.1943C58.8116 56.6313 53.8842 67.0147 44.4275 70.3806C34.9753 73.7465 24.5751 68.8271 21.2038 59.3857C17.8325 49.9487 22.7598 39.5653 32.2165 36.1994C41.6687 32.8335 52.0689 37.7573 55.4402 47.1943Z" fill="white"/>
<path d="M40.9268 44.6544C41.9195 47.4355 40.4663 50.4979 37.6807 51.4933C34.8951 52.4844 31.8278 51.0335 30.8307 48.2524C29.8381 45.4713 31.2913 42.409 34.0769 41.4135C36.8669 40.418 39.9342 41.8733 40.9268 44.6544Z" fill="#86B1F2"/>
<path d="M49.6592 59.5735L33.5269 65.3187L32.883 63.5108C31.7071 60.2119 33.4285 56.5871 36.7283 55.4085L40.9 53.922C44.2042 52.7435 47.8349 54.4666 49.0153 57.7611L49.6592 59.5735Z" fill="#86B1F2"/>
<path d="M57.6986 37.289C56.7194 37.289 55.843 36.6729 55.5166 35.7533C55.0874 34.5525 55.7178 33.2267 56.9206 32.7981L97.0099 18.5221C97.2603 18.4328 97.5241 18.3882 97.7879 18.3882C98.7671 18.3882 99.6435 19.0042 99.9699 19.9238C100.399 21.1246 99.7687 22.4505 98.5659 22.879L58.4766 37.155C58.2262 37.2443 57.9668 37.289 57.6986 37.289Z" fill="white"/>
<path d="M68.5238 47.2659C67.5446 47.2659 66.6682 46.6499 66.3418 45.7303C65.9126 44.5295 66.543 43.2036 67.7458 42.7751L99.058 31.6239C99.3084 31.5346 99.5722 31.49 99.836 31.49C100.815 31.49 101.692 32.106 102.018 33.0256C102.224 33.6059 102.192 34.2354 101.929 34.7934C101.665 35.3514 101.195 35.7755 100.614 35.9808L69.3018 47.132C69.0514 47.2213 68.7876 47.2659 68.5238 47.2659Z" fill="white"/>
</svg>
