<svg width="74" height="60" viewBox="0 0 74 60" fill="none" xmlns="http://www.w3.org/2000/svg">
<path d="M61.1593 59.167L1.98645 48.1662C0.799025 47.9465 0.014641 46.8043 0.234764 45.6188L7.64765 5.87785C7.86778 4.69234 9.0118 3.90922 10.1992 4.12899L69.3721 15.1298C70.5595 15.3496 71.3439 16.4917 71.1238 17.6772L63.7109 57.4213C63.4908 58.6037 62.3468 59.3868 61.1593 59.167Z" fill="#F7CC7F"/>
<path d="M32.993 13.7307L14.9801 10.3815C13.7927 10.1618 13.0083 9.0196 13.2284 7.83409L14.3569 1.78581C14.5771 0.600299 15.7211 -0.182818 16.9085 0.0369509L34.9214 3.3861C36.1089 3.60587 36.8932 4.74804 36.6731 5.93355L35.5446 11.9818C35.3245 13.1704 34.1805 13.9536 32.993 13.7307Z" fill="#F7CC7F"/>
<path d="M63.8536 57.6473C63.5467 58.7338 62.4585 59.4085 61.3455 59.2012L1.78816 48.1292C0.681346 47.9218 -0.0906353 46.9127 0.00857522 45.7891L3.1244 10.165C3.17711 9.5521 3.49024 8.98874 3.9801 8.61421C4.47305 8.24277 5.09931 8.09419 5.70388 8.20562L71.868 20.5065C72.4726 20.6179 73.0027 20.98 73.3283 21.5032C73.6538 22.0263 73.7437 22.6577 73.5763 23.2489L63.8536 57.6473Z" fill="#FAE0B2"/>
</svg>
