<svg width="234" height="202" viewBox="0 0 234 202" fill="none" xmlns="http://www.w3.org/2000/svg">
<path d="M248.017 192.345C248.017 192.345 212.827 107.637 185.329 89.181C157.826 70.7226 154.605 94.2568 154.605 94.2568C154.605 94.2568 116.02 18.1013 97.1066 25.1304C78.1931 32.1596 88.217 50.3776 88.217 50.3776C88.217 50.3776 42.1004 21.5214 28.4145 34.9177C7.38277 55.5076 83.565 102.124 83.565 102.124C83.565 102.124 48.3819 90.6575 49.9811 109.542C52.3952 138.027 248.017 192.345 248.017 192.345Z" fill="#355389"/>
<path d="M28.4104 34.913C42.0963 21.5168 88.2129 50.3729 88.2129 50.3729C88.2129 50.3729 78.1889 32.155 97.1024 25.1258C116.016 18.0966 155.612 86.4268 155.612 86.4268C155.612 86.4268 152.495 54.9296 180.001 73.3828C207.504 91.8413 248.023 192.345 248.023 192.345L28.4104 34.913Z" fill="#466EB6"/>
</svg>
