<svg width="42" height="94" viewBox="0 0 42 94" fill="none" xmlns="http://www.w3.org/2000/svg">
<path d="M17.462 20.065C17.1561 20.0766 16.3163 20.3592 15.0907 22.6759C13.5241 25.6377 11.2346 34.5813 11.2346 34.5813L18.07 37.126L18.9487 35.2593L20.3945 20.8872C20.3926 20.8872 17.5458 20.0611 17.462 20.065Z" fill="#AADD22"/>
<path d="M26.497 18.7752C24.5427 18.7771 19.7065 19.348 17.4618 20.0651C17.4618 20.0651 15.8134 34.2365 18.9466 45.0059C19.6481 47.4161 18.366 54.9997 18.366 54.9997L38.6187 54.7328C38.6187 54.7328 36.2201 36.4013 37.1242 33.4415C38.0283 30.4798 38.0497 20.1625 38.0497 20.1625C38.0497 20.1625 37.9113 20.1411 33.4999 19.3792C31.4404 19.0207 28.5839 18.7732 26.497 18.7752Z" fill="#AADD22"/>
<path d="M28.8567 81.3044C28.8567 81.3044 28.4085 86.4758 27.5843 87.9079C26.7601 89.3401 27.6272 91.7737 27.672 92.1089C27.7149 92.4421 29.4062 92.9194 32.0951 92.633C34.784 92.3466 34.7392 91.727 34.5229 90.7235C34.3066 89.722 32.8745 88.4321 32.7888 87.4773C32.7011 86.5225 33.613 83.0854 33.613 83.0854L28.8567 81.3044Z" fill="#F7A491"/>
<path d="M24.9109 50.3346C24.9109 50.3346 14.155 49.5156 11.7534 51.5116C9.35189 53.5075 13.4594 63.3083 13.4594 63.3083C13.4594 63.3083 20.9443 62.835 35.6039 63.9956C39.0757 64.2713 39.374 51.5713 38.7249 50.5198C38.0758 49.4704 24.9109 50.3346 24.9109 50.3346Z" fill="#E0973F"/>
<path d="M32.4285 93.0342C35.1973 92.74 34.8544 91.3799 34.6303 90.3472C34.49 89.7003 33.697 88.9385 33.2235 88.2175C32.976 88.4143 32.5727 88.7631 31.3724 89.1177C30.1234 89.486 28.4126 88.7573 27.3234 88.2994C26.9337 89.7452 26.9162 91.5904 26.9532 91.871C26.9961 92.2139 29.6616 93.3284 32.4285 93.0342Z" fill="#DD513A"/>
<path d="M30.9006 60.7323C30.3414 64.9586 27.5765 86.0004 27.5765 86.0004L33.9929 86.7954C33.9929 86.7954 41.8843 59.3313 41.479 55.1323C41.0738 50.9314 38.1198 50.5787 38.1198 50.5787C38.1198 50.5787 32.3796 49.544 30.9006 60.7323Z" fill="#F7CC7F"/>
<path d="M38.2681 21.7369C36.3742 21.0257 35.4486 38.0887 35.1934 45.1111C31.84 45.4345 25.9945 45.113 24.539 45.0039C23.8551 44.9533 22.2768 44.3746 21.5948 44.2849C20.8972 44.1934 20.264 44.1466 19.923 44.205C19.7963 44.2265 16.3027 45.6567 16.0026 45.9704C15.6324 46.3601 14.6289 47.3402 14.7984 47.763C14.9679 48.1878 16.7255 46.5822 16.7255 46.5822L17.5848 46.099C16.5151 47.1434 14.473 48.521 14.7673 49.0217C15.0537 49.5108 16.895 48.1137 18.2064 47.1609C17.0801 48.178 15.683 49.996 16.0045 50.2805C16.2949 50.5357 17.8848 48.4294 19.5839 47.8234C20.2133 47.5993 20.8427 48.2209 21.3376 48.2969C21.702 48.3514 22.2631 48.4703 22.6217 48.369L24.463 47.8468C25.0904 47.9033 25.106 48.2735 25.7392 48.4099C26.4738 48.5658 27.68 48.7314 28.6152 48.9594C34.0048 50.2766 35.8032 50.8884 37.4536 50.8864C42.4535 50.8845 42.7438 23.4146 38.2681 21.7369Z" fill="#F7A491"/>
<path d="M41.8631 37.7536C42.2177 30.5597 42.1651 21.6941 38.1337 20.182C36.5418 19.5858 33.7379 23.173 34.2425 37.8997C36.3937 38.079 39.5541 38.2212 41.8631 37.7536Z" fill="#AADD22"/>
<path d="M16.8518 85.0256C16.8518 85.0256 17.411 86.8202 16.4095 88.0088C15.406 89.1954 11.2401 90.3606 10.6945 91.0036C10.147 91.6466 10.1899 92.1942 10.1899 92.1942L21.8828 91.8727L21.7562 88.342L21.2184 85.805L16.8518 85.0256Z" fill="#F7A491"/>
<path d="M15.6803 88.5991C15.6803 88.5991 18.6849 89.815 20.1366 89.094C21.5882 88.375 21.5434 88.1743 21.9642 88.4432C22.3851 88.7121 22.5352 92.0226 22.5352 92.0226L9.38668 92.4084C8.47089 92.387 8.0091 91.7128 8.75342 91.136C9.26393 90.7405 9.85238 90.4755 10.1875 90.2846C11.2144 89.6961 15.6803 88.5991 15.6803 88.5991Z" fill="#DD513A"/>
<path d="M17.294 53.3432C16.3899 51.4414 14.3343 48.9649 10.7179 50.4574C7.26901 51.8798 6.34347 55.3755 7.43074 58.9549C8.518 62.5342 15.6826 83.578 15.932 86.4716L21.6528 86.5086C21.6528 86.5086 20.6143 69.847 20.359 65.8194C20.1135 61.9439 18.8587 56.6342 17.294 53.3432Z" fill="#F7CC7F"/>
<path d="M1.24857 34.6633H20.3711C20.8777 34.6633 21.3317 34.9692 21.5246 35.4388L27.413 49.848H37.9544C38.2486 49.848 38.4883 50.0877 38.4883 50.3838C38.4883 50.68 38.2486 50.9197 37.9544 50.9197H7.9514C7.12719 50.9197 6.37896 50.4345 6.03992 49.6785L0.110645 36.4267C-0.259571 35.5986 0.344463 34.6633 1.24857 34.6633Z" fill="black"/>
<path d="M11.5443 43.0535C11.6729 43.7004 12.236 44.133 12.8011 44.0199C13.3662 43.9069 13.7188 43.2893 13.5902 42.6424C13.4616 41.9955 12.8985 41.5629 12.3335 41.6759C11.7684 41.7909 11.4138 42.4066 11.5443 43.0535Z" fill="white"/>
<path d="M21.9512 1.46661C22.5279 1.27176 23.0949 1.05353 23.6425 0.788531C24.2621 0.490411 25.0649 0.139681 25.5715 0.061741C26.6393 -0.103881 28.4708 0.00718291 29.4841 1.10419C30.7447 2.47203 32.9855 1.35165 32.5354 8.51628C32.0249 16.6279 27.5141 15.7374 27.405 15.5991C27.2959 15.4627 23.3833 10.4102 23.3833 10.4102C23.3833 10.4102 22.0155 13.4031 22.0155 13.2921C22.0155 13.1907 15.0301 3.79896 21.9512 1.46661Z" fill="#0E2E35"/>
<path d="M25.3767 16.2011L24.987 19.0985C24.987 19.0985 24.1141 23.2741 25.2364 24.0789C26.3588 24.8836 30.0083 18.9796 30.0083 18.9796L29.6225 11.6357L25.3767 16.2011Z" fill="#F7A491"/>
<path d="M29.7471 14.0168C28.8196 16.5226 26.6119 18.0619 25.0453 18.6581L25.3746 16.2011L29.6224 11.6377L29.7471 14.0168Z" fill="#F47458"/>
<path d="M25.6067 3.64497C23.2296 3.26112 21.096 5.1726 21.1564 7.55366C21.1817 8.58831 21.2674 9.88017 21.4818 11.2714C21.9981 14.617 24.2817 17.5631 25.7899 17.3001C27.3 17.037 31.0976 14.1513 30.4273 9.38915C30.0162 6.45081 28.1008 4.04831 25.6067 3.64497Z" fill="#F7A491"/>
<path d="M29.3808 9.95815C29.5075 10.6947 30.0979 11.2052 30.696 11.1019C31.2962 10.9967 31.6781 10.3167 31.5514 9.58014C31.4248 8.8436 30.8344 8.3331 30.2362 8.43637C29.6361 8.54159 29.2542 9.22161 29.3808 9.95815Z" fill="#F7A491"/>
<path d="M30.2362 8.43631C30.2362 8.43631 28.4105 8.89031 27.7344 7.71537C27.0563 6.54237 24.6362 4.00932 21.5576 5.05956C18.479 6.1098 24.266 2.50703 24.5135 2.50703C24.759 2.50703 27.7149 2.4856 27.7149 2.4856C27.7149 2.4856 29.9907 4.36005 30.0745 4.56464C30.1563 4.77119 30.813 7.01586 30.813 7.01586L30.2362 8.43631Z" fill="#0E2E35"/>
<path d="M26.8966 13.333L23.5764 13.9682C23.5764 13.9682 23.894 15.2192 25.3612 14.9814C27.1519 14.6931 26.8966 13.333 26.8966 13.333Z" fill="white"/>
</svg>
