<svg width="454" height="406" viewBox="0 0 454 406" fill="none" xmlns="http://www.w3.org/2000/svg">
<path d="M144.402 76.9137L140.056 78.2446L137.138 71.4999L130.544 72.6638L127.533 67.9744L125.152 69.4942L129.18 75.7684L135.43 74.6665L138.465 81.6835L145.004 79.6778L144.402 76.9137Z" fill="#50BFA5"/>
<path d="M423.094 319.497L418.747 320.828L415.83 314.084L409.235 315.248L406.225 310.558L403.844 312.078L407.871 318.352L414.121 317.25L417.157 324.267L423.695 322.262L423.094 319.497Z" fill="#50BFA5"/>
<path d="M125.205 388.963C125.205 388.963 58.3525 377.801 43.8119 365.974C29.2714 354.146 43.6631 348.813 43.6631 348.813C43.6631 348.813 10.0803 331.625 10.4679 319.937C10.8554 308.249 27.5414 314.192 27.5414 314.192C27.5414 314.192 -0.755318 281.979 5.94139 275.859C18.4202 264.462 51.1318 297.951 51.1318 297.951C51.1318 297.951 41.4185 282.025 51.6496 279.506C67.0768 275.705 78.4643 314.975 78.4643 314.975C78.4643 314.975 75.5717 299.467 86.2089 301.532C105.298 305.24 125.205 388.963 125.205 388.963Z" fill="#50BFA5"/>
<path d="M117.625 399.348C117.625 399.348 94.4344 320.875 92.5742 303.563C90.714 286.254 103.68 291.618 103.68 291.618C103.68 291.618 92.7695 258.634 100.66 250.806C108.547 242.978 115.662 257.569 115.662 257.569C115.662 257.569 118.05 217.528 126.461 217.513C142.127 217.485 141.817 261.182 141.817 261.182C141.817 261.182 145.816 244.074 154.203 248.763C166.852 255.836 148.712 290.12 148.712 290.12C148.712 290.12 164.83 290.132 170.492 298.245C180.651 312.806 117.625 399.348 117.625 399.348Z" fill="#50BFA5"/>
<path d="M86.2089 301.532C75.5438 299.607 78.4643 314.975 78.4643 314.975C78.4643 314.975 67.0799 275.705 51.6496 279.506C41.4185 282.025 51.1318 297.951 51.1318 297.951C51.1318 297.951 18.4202 264.465 5.94141 275.859L124.979 388.981C122.861 378.176 104.089 304.76 86.2089 301.532Z" fill="#3C8F7C"/>
<path d="M144.227 398.17C144.227 398.17 109.02 362.425 91.2924 358.701C73.5616 354.977 76.7518 367.572 76.7518 367.572C76.7518 367.572 41.5755 336.86 33.4247 344.302C25.274 351.743 34.0913 358.927 34.0913 358.927C34.0913 358.927 4.79011 353.745 0.595366 363.344C-5.85022 378.096 42.3382 386.123 42.3382 386.123C42.3382 386.123 22.1458 387.519 26.8272 396.767C33.8898 410.718 144.227 398.17 144.227 398.17Z" fill="#355389"/>
<path d="M0.592285 363.342C4.78703 353.744 34.0882 358.925 34.0882 358.925C34.0882 358.925 25.2709 351.741 33.4217 344.3C41.5724 336.859 75.6574 363.395 75.6574 363.395C75.6574 363.395 67.6214 348.061 85.3522 351.781C103.083 355.505 144.231 398.168 144.231 398.168L0.592285 363.342Z" fill="#466EB6"/>
<path d="M200.276 29.5023C188.427 31.4493 184.905 46.9785 194.757 53.9245C196.528 55.1719 197.752 57.0476 198.273 59.1463L200.068 66.3708C200.561 68.3611 202.505 69.6394 204.533 69.3051L209.022 68.5685C211.05 68.2342 212.479 66.4048 212.308 64.3588C211.685 56.9022 210.916 54.1968 213.344 50.8694C220.444 41.1408 212.128 27.5554 200.276 29.5023Z" fill="#F7CC7F"/>
<path d="M201.485 61.0746C200.714 54.6858 199.631 47.9411 199.263 46.0282C192.47 46.4027 195.052 39.2525 198.187 42.159C199.08 42.9886 199.501 44.1122 199.78 45.341C202.037 45.1367 204.242 44.496 206.254 43.4591C206.145 41.8835 205.99 40.6887 206.431 39.6797C207.097 38.1568 209.029 37.742 209.816 39.2246C210.111 39.7818 210.163 40.4937 209.949 41.0849C209.494 42.3447 208.123 43.1774 206.927 43.8305C207.283 48.9099 207.779 54.0296 208.402 59.0688L207.761 59.1493C207.147 54.1906 206.657 49.1545 206.3 44.1555C204.304 45.146 202.133 45.7651 199.911 45.9756C200.376 48.4209 201.402 54.9953 202.127 60.9941L201.485 61.0746ZM196.035 44.5177C196.64 45.1677 197.65 45.4524 199.126 45.3844C198.872 44.2979 198.494 43.3229 197.743 42.6295C196.06 41.0664 195.024 43.4281 196.035 44.5177ZM207.02 39.9397C206.648 40.7878 206.79 41.8742 206.874 43.1217C207.844 42.5707 208.973 41.8804 209.336 40.8714C209.593 40.1625 209.305 39.1627 208.582 38.977C208.505 38.9523 207.28 39.3423 207.02 39.9397Z" fill="#FAE0B2"/>
<path d="M198.221 58.9698C198.236 59.0286 198.258 59.0875 198.273 59.1494L200.069 66.3738C200.561 68.3641 202.505 69.6425 204.533 69.3082L209.022 68.5715C211.05 68.2372 212.479 66.4079 212.309 64.3619C212.033 61.0437 211.726 58.6696 211.685 56.7598L198.221 58.9698Z" fill="#96D9C9"/>
<path d="M191.49 24.1102L187.946 17.6534C187.602 17.0281 187.831 16.245 188.458 15.9014C189.084 15.5579 189.868 15.7869 190.212 16.4122L193.756 22.869C194.1 23.4943 193.871 24.2774 193.245 24.621C192.615 24.9646 191.831 24.7324 191.49 24.1102Z" fill="#FAE0B2"/>
<path d="M183.745 39.7324L176.022 39.0576C175.312 38.9957 174.785 38.3705 174.847 37.6585C174.909 36.9497 175.536 36.4235 176.249 36.4854L183.972 37.1602C184.681 37.2221 185.209 37.8474 185.147 38.5593C185.081 39.2681 184.458 39.7943 183.745 39.7324Z" fill="#FAE0B2"/>
<path d="M176.084 63.3744C175.582 62.8668 175.588 62.0496 176.097 61.5482C177.997 59.6755 180.084 57.9731 182.304 56.4935C182.896 56.0973 183.699 56.2583 184.096 56.8495C184.492 57.4407 184.331 58.2424 183.739 58.6386C181.656 60.0284 179.696 61.6256 177.913 63.3837C177.408 63.8851 176.59 63.8851 176.084 63.3744Z" fill="#FAE0B2"/>
<path d="M210.576 23.7605C209.884 23.5779 209.475 22.8691 209.661 22.1819C210.535 18.9132 211.072 15.5424 211.255 12.1623C211.295 11.4504 211.903 10.9025 212.616 10.9428C213.329 10.9799 213.874 11.5897 213.837 12.3016C213.645 15.8581 213.081 19.4085 212.16 22.8505C211.974 23.5407 211.261 23.9431 210.576 23.7605Z" fill="#FAE0B2"/>
<path d="M218.531 33.6749C218.326 32.9908 218.711 32.2727 219.396 32.0653L227.426 29.6479C228.111 29.4436 228.83 29.8274 229.038 30.5115C229.243 31.1924 228.858 31.9136 228.173 32.1179L220.143 34.5354C219.458 34.7428 218.739 34.3589 218.531 33.6749Z" fill="#FAE0B2"/>
<path d="M231.723 55.0081C231.608 55.0081 231.49 54.9926 231.373 54.9586C228.592 54.1786 225.885 53.0952 223.33 51.7394C222.701 51.4051 222.462 50.6251 222.797 49.9937C223.132 49.3653 223.916 49.1239 224.546 49.4582C226.936 50.7273 229.469 51.7394 232.073 52.4699C232.761 52.6619 233.161 53.3738 232.966 54.0609C232.805 54.6367 232.287 55.0081 231.723 55.0081Z" fill="#FAE0B2"/>
<path d="M349.346 112.052L345.294 102.487L335.103 100.398C333.944 100.16 333.559 98.6954 334.455 97.9216L342.315 91.1181L341.158 80.7983C341.025 79.622 342.302 78.808 343.316 79.4177L352.223 84.7788L361.698 80.4918C362.777 80.0028 363.949 80.9623 363.682 82.1138L361.329 92.2293L368.342 99.8995C369.142 100.772 368.59 102.181 367.409 102.283L357.044 103.174L351.904 112.203C351.321 113.231 349.808 113.141 349.346 112.052Z" fill="#F7CC7F"/>
<path d="M413.842 79.2319L412.174 85.9302L401.088 84.4445L397.445 93.9347L388.965 94.1793L389.086 98.4632L400.427 98.1382L403.881 89.1432L415.417 90.6908L417.922 80.6125L413.842 79.2319Z" fill="#F48C7F"/>
<path d="M315.057 400.227H120.155C112.711 400.227 106.675 393.977 106.675 386.27V377.971C106.675 370.261 112.711 364.014 120.155 364.014H315.057C306.141 374.105 305.989 389.529 314.698 399.809L315.057 400.227Z" fill="#B75742"/>
<path d="M312.046 368.159H203.944C196.5 368.159 190.464 374.408 190.464 382.119C190.464 389.826 196.497 396.076 203.944 396.076H312.056C307.005 387.514 307.015 376.702 312.046 368.159Z" fill="#FAE0B2"/>
<path d="M246.586 338.859C246.868 338.329 246.437 337.713 245.783 337.713H142.65C134.568 337.713 128.014 343.601 128.014 350.865C128.014 358.127 134.568 364.017 142.65 364.017H245.808C246.465 364.017 246.899 363.398 246.611 362.866C242.53 355.264 242.54 346.427 246.586 338.859Z" fill="#86B1F2"/>
<path d="M245.935 340.162H194.822C185.335 340.162 177.644 345.096 177.644 351.181C177.644 357.267 185.335 362.201 194.822 362.201H246.269C242.754 355.19 242.657 347.204 245.935 340.162Z" fill="#F7CC7F"/>
<path d="M232.734 345.387H226.077C224.645 345.387 223.485 345.867 223.485 346.458V346.554H232.734V345.387Z" fill="#B75742"/>
<path d="M238.413 348.073C238.413 346.588 236.674 345.387 234.532 345.387H225.99C227.618 345.387 228.936 346.3 228.936 347.427L228.895 376.241L233.614 372.536L238.426 376.241L238.413 348.073Z" fill="#F47458"/>
<path d="M227.624 336.766H167.617C162.297 336.766 157.981 331.656 157.981 325.351C157.981 319.045 162.294 313.935 167.617 313.935H227.624C223.039 320.265 222.859 329.548 227.196 336.119L227.624 336.766Z" fill="#FAE0B2"/>
<path d="M157.988 325.347C157.988 319.042 162.403 313.932 167.85 313.932H228.765C229.05 313.932 229.28 313.663 229.277 313.335C229.274 313.01 229.047 312.75 228.765 312.75H132.128C126.116 312.75 121.243 318.389 121.243 325.351C121.243 332.309 126.116 337.952 132.128 337.952H228.762C229.041 337.952 229.271 337.689 229.274 337.367C229.277 337.039 229.047 336.769 228.762 336.769H167.85C162.406 336.766 157.988 331.653 157.988 325.347Z" fill="#466EB6"/>
<path d="M217.145 319.541H210.489C209.056 319.541 207.897 320.011 207.897 320.593V320.686H217.145V319.541Z" fill="#184655"/>
<path d="M222.825 322.178C222.825 320.723 221.086 319.541 218.944 319.541H210.402C212.03 319.541 213.348 320.435 213.348 321.54L213.307 349.798L218.026 346.164L222.838 349.798L222.825 322.178Z" fill="#3C8F7C"/>
<path d="M323.232 145.005L332.09 142.677L326.084 222.63L315.457 222.982L320.817 147.908C320.919 146.525 321.887 145.358 323.232 145.005Z" fill="#184655"/>
<path d="M326.881 224.908C326.683 224.926 326.481 224.923 326.274 224.898C324.516 224.691 323.211 222.945 323.366 220.995L329.262 145.816C329.414 143.869 330.964 142.457 332.725 142.665C334.486 142.872 335.789 144.618 335.633 146.568L329.737 221.747C329.6 223.468 328.376 224.771 326.881 224.908Z" fill="#F7CC7F"/>
<path d="M245.352 228.913C245.355 228.969 245.358 229.025 245.364 229.08C245.643 232.138 248.015 234.426 250.666 234.191L325.477 227.505C328.128 227.269 330.05 224.595 329.774 221.537C329.762 221.407 329.746 221.28 329.728 221.153L245.352 228.913Z" fill="#F7CC7F"/>
<path d="M297.447 309.663C292.548 312.375 277.574 307.62 277.574 307.19C277.36 311.276 260.807 351.268 260.807 351.268L260.82 363.572C260.82 363.572 294.926 365.194 294.436 362.185C293.947 359.176 292.111 361.132 285.309 355.449C284.705 354.945 275.152 352.732 277.738 347.086C282.94 335.717 293.999 316.761 297.447 309.663Z" fill="#F7A491"/>
<path d="M259.697 364.012L297.031 364.021C298.38 363.885 298.693 362.789 298.219 362.123C297.239 360.752 290.083 357.524 285.275 355.379C276.898 356.357 262.171 353.141 260.823 351.231C257.276 355.976 258.947 363.857 259.697 364.012Z" fill="#3C8F7C"/>
<path d="M251.509 280.951C251.004 279.438 283.653 265.605 285.114 267.187C287.699 269.982 267.448 322.46 267.448 322.46L290.713 329.557C290.713 329.557 314.899 268.929 313.891 257.839C312.88 246.748 300.764 234.147 274.511 242.213C248.26 250.28 251.509 280.951 251.509 280.951Z" fill="#355389"/>
<path d="M319.109 316.56C313.596 315.557 306.453 315.272 300.736 315.173C301.409 320.256 304.683 346.325 304.085 347.925C301.66 354.413 296.284 357.449 296.284 357.449C296.284 357.449 321.636 380.287 323.167 377.649C324.699 375.012 322.035 375.365 320.38 366.664C320.234 365.89 316.567 353.747 316.34 347.194C315.906 334.702 318.92 323.5 319.109 316.56Z" fill="#F7A491"/>
<path d="M310.974 231.284C307.436 229.398 298.256 229.333 288.158 229.987C268.474 231.259 249.048 235.128 230.322 241.319L217.793 245.463L217.833 232.639C217.833 232.639 177.976 225.981 176.59 235.843C174.5 250.694 177.092 280.849 190.374 287.578C231.624 308.484 289.429 254.276 289.637 261.367C289.919 270.891 297.961 306.336 300.017 321.853C305.737 321.952 315.562 321.949 319.822 320.971C320.653 290.571 321.04 236.648 310.974 231.284Z" fill="#466EB6"/>
<path d="M295.509 357.988L324.008 380.717C325.136 381.463 326.075 380.816 326.128 380.002C326.24 378.321 322.755 371.295 320.396 366.596C313.296 362.052 303.93 350.197 304.097 347.869C301.096 350.398 295.029 357.39 295.509 357.988Z" fill="#3C8F7C"/>
<path d="M231.004 107.319C230.046 98.5808 229.038 89.8117 221.783 83.4075C215.911 78.2259 208.449 77.3468 201.067 80.1203C180.155 87.9762 190.929 106.517 164.266 125.213C155.979 131.023 146.848 134.997 140.61 142.819C131.88 153.767 135.176 166.938 143.134 175.732C181.209 217.803 223.721 160.986 226.772 147.345C229.044 137.198 231.62 112.943 231.004 107.319Z" fill="#13375B"/>
<path d="M223.271 156.448C220.162 150.725 216.956 146.181 216.956 146.181C213.729 140.454 205.395 137.56 205.395 137.56C205.395 137.56 202.608 137.616 199.405 137.774C199.207 138.303 199.005 138.684 198.801 138.836C197.598 139.736 190.703 138.572 186.25 141.594C171.322 154.368 175.452 216.29 176.627 235.846L222.087 236.276C222.087 236.276 216.355 194.196 225.594 183.384C232.027 175.849 227.888 164.938 223.271 156.448Z" fill="#AADD22"/>
<path d="M202.781 116.611C202.781 116.611 200.282 134.428 198.537 138.758C196.791 143.089 208.132 152.347 217.57 155.157C227.007 157.968 214.686 145.593 215.077 140.965C215.468 136.338 217.182 114.423 217.182 114.423L202.781 116.611Z" fill="#F7A491"/>
<path d="M216.708 120.706C216.984 117.082 217.186 114.423 217.186 114.423L202.781 116.611C202.781 116.611 202.419 118.704 202.016 121.666C207.857 125.046 213.106 123.978 216.708 120.706Z" fill="#F47458"/>
<path d="M207.299 84.0668C207.299 84.0668 201.622 85.3452 198.116 90.6846C194.609 96.0241 192.206 111.748 203.749 119.087C215.294 126.426 224.273 116.045 224.422 105.92C224.571 95.7919 222.397 82.2808 207.299 84.0668Z" fill="#F7A491"/>
<path d="M227.066 102.75C226.08 105.192 224.127 106.709 222.701 106.137C221.275 105.564 220.918 103.119 221.904 100.676C222.89 98.2342 224.843 96.7174 226.269 97.2901C227.692 97.8627 228.049 100.305 227.066 102.75Z" fill="#F7A491"/>
<path d="M209 83.7327C209 83.7327 201.764 99.9398 195.405 101.388C189.047 102.837 189.14 110.99 189.14 110.99C189.14 110.99 189.282 92.1582 195.241 87.8371C201.197 83.5191 209 83.7327 209 83.7327Z" fill="#13375B"/>
<path d="M197.932 104.759C198.769 107.39 198.003 109.984 196.221 110.547C194.438 111.111 192.314 109.436 191.477 106.805C190.64 104.174 191.406 101.58 193.189 101.017C194.971 100.45 197.095 102.125 197.932 104.759Z" fill="#F7A491"/>
<path d="M279.245 221.769C276.516 220.785 272.458 220.661 272.526 220.302C272.799 218.847 284.85 223.515 283.222 221.391C282.317 220.209 273.298 216.021 271.106 216.714C268.979 217.386 255.012 221.298 255.012 221.298L216.844 212.368C216.844 212.368 207.212 190.512 206.269 171.733C198.304 172.807 192.885 174.773 185.962 178.608C189.301 196.567 197.411 225.675 206.381 231.135C210.154 233.432 255.198 228.387 255.198 228.387C255.198 228.387 265.126 227.687 266.747 227.065C267.978 226.591 271.143 224.812 272.867 224.326C276.783 223.217 283.762 225.997 283.783 225.233C283.802 224.669 282.032 222.775 279.245 221.769Z" fill="#F7A491"/>
<path d="M206.505 151.666C206.139 145.887 203.947 140.309 197.787 138.511C193.97 137.396 189.689 138.461 186.638 140.95C183.011 143.909 181.997 148.654 182.012 153.145C182.05 163.345 182.747 173.921 184.614 183.963C191.533 180.127 199.613 177.821 207.578 176.747C207.575 176.692 206.989 159.302 206.505 151.666Z" fill="#C4F441"/>
<path d="M88.2497 162.571L29.0768 151.57C27.8894 151.35 27.105 150.208 27.3251 149.022L34.738 109.281C34.9581 108.096 36.1021 107.313 37.2896 107.533L96.4624 118.533C97.6499 118.753 98.4343 119.895 98.2141 121.081L90.8012 160.825C90.5811 162.007 89.4371 162.79 88.2497 162.571Z" fill="#F7CC7F"/>
<path d="M60.0834 117.134L42.0704 113.785C40.883 113.565 40.0986 112.423 40.3187 111.238L41.4473 105.189C41.6674 104.004 42.8114 103.221 43.9988 103.441L62.0118 106.79C63.1992 107.009 63.9836 108.152 63.7634 109.337L62.6349 115.385C62.4148 116.574 61.2708 117.357 60.0834 117.134Z" fill="#F7CC7F"/>
<path d="M90.944 161.051C90.6371 162.137 89.5488 162.812 88.4358 162.605L28.8785 151.533C27.7717 151.325 26.9997 150.316 27.0989 149.193L30.2147 113.569C30.2674 112.956 30.5806 112.392 31.0704 112.018C31.5634 111.646 32.1896 111.498 32.7942 111.609L98.9583 123.91C99.5629 124.021 100.093 124.384 100.419 124.907C100.744 125.43 100.834 126.061 100.667 126.652L90.944 161.051Z" fill="#FAE0B2"/>
<path d="M362.346 30.88L352.211 33.641L350.031 21.3835L353.345 20.7954L354.883 29.4283L361.459 27.6361L362.346 30.88Z" fill="#50BFA5"/>
<path d="M39.5312 199.241C42.0673 199.034 45.9644 200.151 47.7099 201.333C47.9734 201.578 49.9825 202.377 52.069 205.831L51.5977 206.156C49.3934 203.853 47.9114 203.336 46.1473 202.81C43.2392 202.064 40.3063 202.621 40.0645 202.751L39.5312 199.241Z" fill="#355389"/>
<path d="M51.8363 205.995C51.8363 205.995 36.3749 208.57 37.8166 220.63C39.2582 232.689 55.5691 242.068 70.1251 234.611C89.7099 224.579 81.9746 199.071 68.0355 197.099C54.0995 195.127 51.8363 205.995 51.8363 205.995Z" fill="#F47458"/>
<path d="M58.3937 200.683C58.3937 200.683 62.4272 196.548 71.2662 200.309C80.1053 204.07 80.7439 221.611 72.8629 220.593C64.9788 219.574 52.0938 203.215 58.3937 200.683Z" fill="#F48C7F"/>
<path d="M164.753 40.4878L101.165 63.1332C99.1157 63.8637 96.8618 62.7958 96.1301 60.7498L84.3954 27.9022C83.6637 25.8562 84.7333 23.6059 86.7826 22.8754L150.37 0.229943C152.42 -0.500554 154.674 0.567333 155.405 2.61334L167.143 35.461C167.872 37.507 166.802 39.7573 164.753 40.4878Z" fill="#86B1F2"/>
<path d="M122.607 32.0436C124.945 38.5872 121.528 45.7869 114.971 48.1208C108.417 50.4547 101.205 47.0436 98.8677 40.497C96.53 33.9535 99.9466 26.7537 106.504 24.4199C113.058 22.086 120.269 25.5001 122.607 32.0436Z" fill="white"/>
<path d="M112.543 30.2824C113.231 32.2108 112.224 34.3342 110.292 35.0244C108.361 35.7116 106.234 34.7056 105.543 32.7772C104.854 30.8488 105.862 28.7255 107.793 28.0352C109.728 27.3449 111.855 28.354 112.543 30.2824Z" fill="#86B1F2"/>
<path d="M118.598 40.6271L107.412 44.6108L106.966 43.3572C106.151 41.0697 107.344 38.5563 109.632 37.7392L112.525 36.7084C114.816 35.8912 117.333 37.086 118.152 39.3704L118.598 40.6271Z" fill="#86B1F2"/>
<path d="M124.173 25.1752C123.494 25.1752 122.886 24.748 122.66 24.1104C122.362 23.2778 122.799 22.3584 123.633 22.0613L151.431 12.1624C151.605 12.1005 151.787 12.0696 151.97 12.0696C152.649 12.0696 153.257 12.4967 153.483 13.1344C153.781 13.967 153.344 14.8863 152.51 15.1835L124.712 25.0823C124.539 25.1442 124.359 25.1752 124.173 25.1752Z" fill="white"/>
<path d="M131.679 32.0932C131 32.0932 130.392 31.666 130.166 31.0284C129.868 30.1957 130.305 29.2764 131.139 28.9793L152.851 21.2472C153.024 21.1853 153.207 21.1543 153.39 21.1543C154.069 21.1543 154.677 21.5815 154.903 22.2191C155.046 22.6215 155.024 23.0579 154.841 23.4448C154.658 23.8318 154.333 24.1258 153.93 24.2682L132.218 32.0003C132.045 32.0622 131.862 32.0932 131.679 32.0932Z" fill="white"/>
<path d="M263.555 288.262H110.014C105.246 288.262 101.379 292.122 101.379 296.883V304.132C101.379 308.893 105.246 312.753 110.014 312.753H263.555L263.474 312.669C256.907 305.841 256.942 295.044 263.555 288.262Z" fill="#F47458"/>
<path d="M260.835 291.887H178.757C173.989 291.887 170.123 295.747 170.123 300.508C170.123 305.268 173.989 309.128 178.757 309.128H260.835C257.818 303.789 257.822 297.22 260.835 291.887Z" fill="#FAE0B2"/>
<path d="M389.221 288.968L377.582 259.817C376.996 258.349 377.713 256.687 379.182 256.102L421.065 239.437C422.534 238.852 424.199 239.567 424.785 241.034L436.424 270.186C437.01 271.653 436.293 273.315 434.824 273.9L392.945 290.565C391.472 291.151 389.804 290.436 389.221 288.968Z" fill="#FAE0B2"/>
<path d="M428.729 272.111L418.271 245.916C418.104 245.495 418.308 245.018 418.73 244.851C419.152 244.684 419.629 244.888 419.797 245.309L430.254 271.505C430.421 271.926 430.217 272.402 429.795 272.569C429.374 272.737 428.896 272.532 428.729 272.111Z" fill="#466EB6"/>
<path d="M423.743 268.66L415.156 247.15C414.988 246.729 415.193 246.253 415.614 246.086C416.036 245.919 416.514 246.123 416.681 246.544L425.269 268.053C425.436 268.474 425.232 268.951 424.81 269.118C424.391 269.288 423.914 269.081 423.743 268.66Z" fill="#466EB6"/>
<path d="M422.506 274.587L412.049 248.392C411.881 247.971 412.086 247.494 412.507 247.327C412.929 247.16 413.407 247.364 413.574 247.785L424.031 273.981C424.199 274.402 423.994 274.878 423.572 275.046C423.151 275.213 422.673 275.008 422.506 274.587Z" fill="#466EB6"/>
<path d="M417.006 269.849L408.933 249.63C408.766 249.209 408.97 248.732 409.392 248.565C409.813 248.398 410.291 248.602 410.458 249.023L418.532 269.242C418.699 269.663 418.494 270.14 418.073 270.307C417.654 270.474 417.177 270.27 417.006 269.849Z" fill="#466EB6"/>
<path d="M428.447 243.12L428.236 242.594C428.158 242.399 427.947 242.3 427.765 242.374L423.79 243.956C423.607 244.027 423.52 244.244 423.598 244.439L423.809 244.965C423.886 245.16 424.097 245.259 424.28 245.185L428.254 243.603C428.437 243.532 428.524 243.315 428.447 243.12Z" fill="#355389"/>
<path d="M429.346 245.377L429.135 244.851C429.057 244.656 428.846 244.557 428.663 244.631L424.689 246.213C424.506 246.284 424.419 246.5 424.497 246.695L424.707 247.222C424.785 247.417 424.996 247.516 425.179 247.441L429.153 245.86C429.339 245.789 429.423 245.572 429.346 245.377Z" fill="#355389"/>
<path d="M430.248 247.633L430.037 247.107C429.96 246.912 429.749 246.813 429.566 246.887L425.591 248.469C425.408 248.54 425.321 248.757 425.399 248.952L425.61 249.478C425.687 249.673 425.898 249.772 426.081 249.698L430.056 248.116C430.239 248.045 430.325 247.828 430.248 247.633Z" fill="#355389"/>
<path d="M431.15 249.89L430.939 249.364C430.862 249.169 430.651 249.07 430.468 249.144L426.494 250.726C426.311 250.8 426.224 251.013 426.301 251.208L426.512 251.735C426.59 251.93 426.8 252.029 426.983 251.954L430.958 250.373C431.141 250.301 431.228 250.085 431.15 249.89Z" fill="#355389"/>
<path d="M432.049 252.146L431.838 251.62C431.761 251.425 431.55 251.326 431.367 251.4L427.392 252.982C427.21 253.056 427.123 253.273 427.2 253.465L427.411 253.991C427.489 254.186 427.699 254.285 427.882 254.211L431.857 252.629C432.04 252.558 432.127 252.341 432.049 252.146Z" fill="#355389"/>
<path d="M432.952 254.403L432.741 253.877C432.663 253.682 432.452 253.583 432.269 253.657L428.295 255.239C428.112 255.313 428.025 255.527 428.103 255.722L428.313 256.248C428.391 256.443 428.602 256.542 428.785 256.468L432.759 254.886C432.942 254.815 433.029 254.598 432.952 254.403Z" fill="#355389"/>
<path d="M433.85 256.659L433.64 256.133C433.562 255.938 433.351 255.839 433.168 255.913L429.194 257.495C429.011 257.569 428.924 257.783 429.002 257.978L429.212 258.504C429.29 258.699 429.501 258.798 429.684 258.724L433.658 257.142C433.844 257.071 433.928 256.854 433.85 256.659Z" fill="#355389"/>
<path d="M434.753 258.916L434.542 258.389C434.464 258.194 434.253 258.095 434.071 258.17L430.096 259.751C429.913 259.826 429.826 260.039 429.904 260.234L430.115 260.761C430.192 260.956 430.403 261.055 430.586 260.98L434.56 259.399C434.743 259.327 434.83 259.111 434.753 258.916Z" fill="#355389"/>
<path d="M435.652 261.172L435.441 260.646C435.363 260.451 435.153 260.352 434.97 260.426L430.995 262.008C430.812 262.082 430.725 262.296 430.803 262.491L431.014 263.017C431.091 263.212 431.302 263.311 431.485 263.237L435.46 261.655C435.646 261.584 435.729 261.367 435.652 261.172Z" fill="#355389"/>
<path d="M436.554 263.429L436.343 262.903C436.266 262.708 436.055 262.609 435.872 262.683L431.897 264.265C431.714 264.339 431.628 264.552 431.705 264.747L431.916 265.274C431.993 265.469 432.204 265.568 432.387 265.493L436.362 263.912C436.545 263.841 436.632 263.621 436.554 263.429Z" fill="#355389"/>
<path d="M437.453 265.685L437.242 265.156C437.165 264.961 436.954 264.862 436.771 264.936L432.796 266.518C432.613 266.592 432.527 266.806 432.604 267.001L432.815 267.527C432.892 267.722 433.103 267.821 433.286 267.747L437.261 266.165C437.447 266.094 437.53 265.88 437.453 265.685Z" fill="#355389"/>
<path d="M438.355 267.942L438.144 267.416C438.067 267.221 437.856 267.122 437.673 267.196L433.699 268.778C433.516 268.849 433.429 269.065 433.506 269.26L433.717 269.787C433.795 269.982 434.006 270.081 434.188 270.006L438.163 268.425C438.346 268.35 438.433 268.134 438.355 267.942Z" fill="#355389"/>
<path d="M449.336 265.617L432.715 289.247C432.678 289.3 432.65 289.358 432.629 289.42L430.936 294.611C430.737 295.215 431.438 295.713 431.947 295.332L436.395 291.983C436.451 291.943 436.498 291.894 436.538 291.838L453.202 268.146C453.416 267.843 453.333 267.425 453.019 267.224L450.223 265.441C449.925 265.258 449.538 265.333 449.336 265.617Z" fill="#B75742"/>
<path d="M436.516 291.866L436.476 291.924L432.182 295.156L431.01 294.373L432.616 289.451C433.875 290.138 435.382 290.844 436.516 291.866Z" fill="#F7CC7F"/>
<path d="M280.941 9.80078C283.334 11.7075 287.495 17.8424 292.806 22.148C295.912 24.6676 298.306 24.0269 302.271 24.5036C321.084 26.7725 315.987 30.6138 318.244 30.9914C317.602 32.4648 311.742 44.9018 310.648 47.4183C309.637 49.7367 307.892 50.7767 305.362 50.4269C301.471 49.8915 297.546 49.4891 293.714 48.6626C283.895 46.5361 278.432 41.6331 271.395 35.6777C269.528 34.0991 269.069 32.1274 270.037 29.8956C274.538 19.5015 280.451 10.7572 280.941 9.80078Z" fill="#466EB6"/>
<path d="M320.28 45.9573C320.197 50.0494 320.51 50.8727 318.749 50.2506C317.689 49.876 316.662 49.39 315.661 48.8731C314.954 48.5079 314.926 48.0281 315.5 47.4524C316.334 46.6135 317.193 45.7995 318.03 44.9854C317.419 43.3789 318.12 41.5124 319.623 40.6334C319.93 40.4538 319.707 40.8346 322.327 34.8142C313.661 33.7463 307.551 33.0312 296.978 31.7343C294.151 31.3876 291.64 30.2919 289.454 28.4656C281.905 22.1574 274.355 15.8522 266.809 9.53771C265.786 8.6803 265.656 7.4267 266.468 6.46095C267.088 5.72117 267.913 5.68712 268.799 5.79855C271.212 6.1019 294.864 9.03317 297.267 9.31485C300.423 9.68319 303.201 10.8687 305.641 12.9085C313.057 19.1085 320.494 25.2898 327.92 31.4774C328.94 32.3255 329.216 33.1055 328.856 34.0496C328.462 35.0865 327.603 35.5818 326.304 35.3032C325.368 35.102 324.953 35.3837 324.63 36.2504C323.173 40.166 322.156 41.0327 322.51 42.4627C322.782 43.5677 321.468 45.4776 320.28 45.9573Z" fill="#86B1F2"/>
<path d="M359.522 324.021L363.831 328.125C374.028 337.835 382.344 349.337 388.358 362.056L389.019 363.452C389.019 363.452 400.307 364.449 401.882 354.259C391.979 343.094 383.825 331.177 377.098 317.92L375.058 313.156L359.522 324.021Z" fill="#466EB6"/>
<path d="M375.048 313.14C375.603 313.932 372.574 316.996 368.286 319.983C363.999 322.97 360.052 324.784 359.497 323.992C358.942 323.199 361.99 320.098 366.28 317.111C370.568 314.127 374.496 312.347 375.048 313.14Z" fill="#86B1F2"/>
<path d="M375.067 313.171L375.055 313.155C375.055 313.155 366.464 320.417 362.92 321.157L364.014 322.643C365.307 321.943 366.777 321.036 368.29 319.984C372.528 317.034 375.532 314.006 375.067 313.171Z" fill="#355389"/>
<path d="M386.547 334.253C386.563 335.503 386.082 340.908 377.079 343.161C377.671 343.966 378.254 344.78 378.824 345.6C384.523 343.919 387.086 340.997 388.237 338.772C388.42 338.419 388.64 337.949 388.785 337.583C388.026 336.481 387.279 335.37 386.547 334.253Z" fill="#B75742"/>
<path d="M377.885 341.564L364.637 341.09L367.775 343.752L365.899 347.151L378.44 343.96L377.885 341.564Z" fill="#B75742"/>
<path d="M379.094 344.641L374.388 352.828L377.696 351.568L378.973 354.168L381.184 345.557L379.094 344.641Z" fill="#B75742"/>
<path d="M380.892 346.86C378.567 347.024 376.542 345.216 376.372 342.824C376.201 340.431 377.95 338.357 380.278 338.193C382.603 338.029 384.628 339.837 384.798 342.229C384.966 344.622 383.22 346.696 380.892 346.86Z" fill="#F47458"/>
<path d="M409.018 161.088L381.115 136.229C379.302 134.614 380.058 131.289 382.56 129.875L404.83 117.286C406.256 116.481 407.862 116.555 408.894 117.475L436.797 142.333C438.611 143.949 437.854 147.273 435.352 148.688L413.083 161.277C411.657 162.085 410.051 162.01 409.018 161.088Z" fill="#9BC1F9"/>
<path d="M407.695 141.312L405.369 122.214C405.279 121.483 405.813 120.7 406.56 120.468C407.307 120.236 407.986 120.641 408.073 121.372L410.215 138.947L431.375 144.054C432.063 144.222 432.382 144.964 432.085 145.714C431.787 146.463 430.984 146.936 430.293 146.769L407.695 141.312Z" fill="white"/>
<path d="M2.80282 399.998C1.58129 399.998 0.592285 401.397 0.592285 403.121C0.592285 404.845 1.58129 406.244 3.06635 404.149H452.27C452.843 404.149 453.312 403.226 453.315 402.087C453.318 400.936 452.85 399.998 452.27 399.998H2.80282Z" fill="#184655"/>
<path d="M43.326 53.8286L46.2093 59.524L52.7262 59.3166L55.5041 65.9282L62.3775 63.5665L65.8499 70.9086L72.4474 69.5126L76.946 76.0314L74.475 77.7307L71.1112 72.8587L64.1509 74.329L60.8119 67.2747L53.8268 69.6736L50.7575 62.3748L44.3956 62.5822L41.72 57.3016L37.5718 58.3106L36.8618 55.3979L43.326 53.8286Z" fill="#F7CC7F"/>
<path d="M392.283 199.55L398.204 201.952L402.979 197.52L409.428 200.683L413.055 194.396L420.505 197.653L424.56 192.276L432.24 194.239L431.496 197.139L425.754 195.672L421.475 201.348L414.314 198.219L410.624 204.611L403.509 201.119L398.846 205.447L393.359 203.221L390.891 206.703L388.441 204.973L392.283 199.55Z" fill="#50BFA5"/>
</svg>
