<svg width="94" height="78" viewBox="0 0 94 78" fill="none" xmlns="http://www.w3.org/2000/svg">
<path d="M10.1251 39.9079C9.85474 39.6018 9.43336 39.4746 9.03981 39.5819C7.10782 40.1027 3.60956 39.3236 1.88031 38.7193L0 29.3973C1.35955 28.1689 4.28139 26.0938 6.26505 25.8274C6.67053 25.7718 7.00843 25.4935 7.13962 25.1079L9.52479 18.02C9.65598 17.6344 9.55262 17.205 9.26242 16.9188C7.84324 15.5036 6.76594 12.0849 6.42804 10.2841L13.5637 3.99119C15.3049 4.55568 18.5646 6.04641 19.789 7.62858C20.0394 7.95058 20.4489 8.10561 20.8504 8.02611L28.1808 6.5473C28.5784 6.46779 28.9003 6.16567 29.0037 5.77212C29.5165 3.83615 31.9375 1.19656 33.3248 0L42.3408 3.03315C42.7264 4.826 43.0603 8.39183 42.301 10.2443C42.146 10.622 42.2176 11.0553 42.4879 11.3614L47.4331 16.9705C47.7035 17.2766 48.1248 17.4038 48.5184 17.2965C50.4504 16.7757 53.9486 17.5549 55.6779 18.1591L57.5622 27.4851C56.2026 28.7135 53.2808 30.7886 51.2971 31.055C50.8916 31.1106 50.5537 31.3889 50.4226 31.7745L48.0374 38.8624C47.9062 39.248 48.0096 39.6774 48.2958 39.9636C49.715 41.3748 50.7883 44.7936 51.1302 46.5944L43.9945 52.8872C42.2533 52.3227 38.9936 50.832 37.7692 49.2499C37.5188 48.9279 37.1093 48.7728 36.7078 48.8523L29.3774 50.3311C28.9759 50.4106 28.6579 50.7128 28.5545 51.1063C28.0417 53.0383 25.6168 55.6819 24.2294 56.8745L15.2134 53.8413C14.8278 52.0485 14.4939 48.4826 15.2532 46.6301C15.4082 46.2525 15.3367 45.8192 15.0663 45.5131L10.1251 39.9079ZM30.6375 37.6221C35.71 36.5965 38.9896 31.6552 37.968 26.5828C36.9424 21.5103 32.0011 18.2307 26.9286 19.2563C21.8561 20.2779 18.5765 25.2192 19.5982 30.2917C20.6238 35.3642 25.5651 38.6478 30.6375 37.6221ZM31.8262 43.5135C40.1504 41.832 45.5369 33.7224 43.8554 25.3941C42.1738 17.0699 34.0642 11.6834 25.736 13.3649C17.4078 15.0465 12.0292 23.1561 13.7108 31.4803C15.3883 39.8085 23.5019 45.1911 31.8262 43.5135Z" fill="#FA7167"/>
<path d="M70.6925 73.2964C70.776 72.9823 71.0304 72.7438 71.3444 72.6802L77.1484 71.5075C77.4664 71.4439 77.7924 71.5671 77.9872 71.8216C78.9571 73.0738 81.5371 74.2584 82.9165 74.7036L88.5654 69.7186C88.2951 68.2955 87.4444 65.5843 86.3233 64.4673C86.0928 64.2407 86.0133 63.8988 86.1166 63.5927L88.0049 57.9796C88.1082 57.6735 88.3746 57.4509 88.6966 57.4072C90.2668 57.1965 92.5804 55.5507 93.6577 54.5807L92.167 47.1986C90.7955 46.7216 88.0287 46.1014 86.4982 46.5149C86.1882 46.5984 85.8542 46.499 85.6396 46.2565L81.7239 41.8161C81.5093 41.5736 81.4536 41.2317 81.5768 40.9336C82.1771 39.4667 81.9108 36.6442 81.6086 35.225L74.469 32.824C73.3679 33.7701 71.4518 35.8611 71.0423 37.3916C70.9588 37.7056 70.7044 37.9441 70.3904 38.0078L64.5865 39.1805C64.2684 39.2441 63.9425 39.1248 63.7477 38.8664C62.7777 37.6142 60.1977 36.4296 58.8183 35.9843L53.1694 40.9693C53.4398 42.3925 54.2905 45.0997 55.4115 46.2207C55.6421 46.4473 55.7216 46.7852 55.6182 47.0913L53.7299 52.7044C53.6266 53.0105 53.3563 53.2331 53.0382 53.2768C51.468 53.4875 49.1544 55.1333 48.0771 56.1033L49.5678 63.4854C50.9353 63.9624 53.7061 64.5826 55.2366 64.1691C55.5467 64.0856 55.8806 64.185 56.0952 64.4275L60.0109 68.8679C60.2256 69.1104 60.2812 69.4523 60.158 69.7504C59.5577 71.2173 59.8241 74.0398 60.1262 75.4589L67.2658 77.86C68.367 76.9179 70.283 74.8269 70.6925 73.2964ZM72.6921 64.3917C67.6951 65.4015 62.8294 62.1696 61.8197 57.1726C60.8099 52.1757 64.0418 47.3099 69.0388 46.3002C74.0357 45.2905 78.9015 48.5224 79.9112 53.5193C80.9169 58.5123 77.685 63.382 72.6921 64.3917Z" fill="#FA7167"/>
</svg>
