<svg width="475" height="467" viewBox="0 0 475 467" fill="none" xmlns="http://www.w3.org/2000/svg">
<g opacity="0.15">
<path opacity="0.15" d="M2.95448 434.346C7.79166 412.074 17.2645 393.532 22.9079 371.865C29.4078 347.024 29.5086 318.455 24.1675 293.06C23.4117 289.432 22.5048 285.905 21.497 282.428C19.1288 270.234 15.3498 258.645 12.3769 247.056C6.88469 226.296 5.07075 203.269 9.15212 181.754C18.3226 132.778 43.4659 95.6925 75.4618 85.3127C100.152 77.1499 123.934 86.0685 146.81 71.96C163.287 61.5803 176.539 45.2548 192.108 30.4409C214.531 10.3867 239.221 5.95266 263.457 2.27439C313.743 -5.13254 364.08 5.24724 409.832 37.8982C434.068 54.9795 466.568 84.6576 460.119 135.095C459.212 144.014 456.44 151.421 454.173 160.339C448.681 183.316 434.068 193.746 424.898 214.506C418.952 227.103 417.592 242.672 421.673 256.781C434.22 299.005 456.088 305.908 470.75 342.842C483.095 376.249 462.134 442.357 440.568 466.845L0.183175 464.729C-0.119149 454.551 0.787823 444.322 2.95448 434.346Z" fill="#AADD22"/>
</g>
<path d="M138.446 439.032L126.756 439.284L120.307 454.853L120.962 459.237L126.706 459.842L131.442 455.659L131.19 454.803L138.446 439.032Z" fill="#FFB288"/>
<path d="M140.462 457.877L131.14 454.853C128.117 460.144 122.927 459.035 120.357 454.501L118.09 462.512C117.938 463.066 118.593 463.57 119.5 463.57L138.295 463.52C143.233 463.47 144.845 459.287 140.462 457.877Z" fill="#374D78"/>
<path d="M172.458 439.435L160.768 439.687L154.318 455.256L154.973 459.64L160.717 460.245L165.454 456.113L165.202 455.256L172.458 439.435Z" fill="#FFB288"/>
<path d="M174.473 458.28L165.151 455.256C162.128 460.547 156.938 459.438 154.369 454.904L152.101 462.915C151.95 463.469 152.605 463.973 153.512 463.973L172.306 463.923C177.244 463.923 178.857 459.69 174.473 458.28Z" fill="#374D78"/>
<path d="M204.252 377.005C206.973 369.044 208.232 362.644 208.333 356.195C208.585 337.803 204.302 317.447 195.333 293.916L195.233 293.463C195.182 292.455 195.233 289.986 195.434 286.056L195.484 284.746H157.896L158.147 286.207C159.206 292.203 162.279 300.315 165.806 309.687C173.818 330.951 183.795 357.203 177.647 376.199C176.791 378.869 175.833 381.691 174.725 384.815C173.667 387.888 172.558 390.912 171.5 393.985L170.895 395.698C165.353 411.369 161.523 422.353 158.047 435.857C157.543 437.772 159.054 439.687 161.02 439.687H176.539C177.799 439.687 178.957 438.88 179.411 437.671C184.651 423.815 189.589 412.125 194.88 399.931C198.86 390.861 201.984 383.706 204.252 377.005Z" fill="#B92127"/>
<path d="M168.175 376.299C170.896 368.338 172.156 361.939 172.257 355.439C172.509 337.048 168.226 316.691 159.257 293.16L159.156 292.707C159.106 291.649 159.156 289.079 159.358 285.3L159.408 283.99H128.269L123.079 288.827L123.18 289.482C124.238 295.579 127.261 303.389 130.738 312.408C138.296 332.059 147.668 356.547 141.571 375.493C140.714 378.164 139.757 380.985 138.648 384.16C137.389 387.788 136.129 391.365 134.869 394.943C129.327 410.512 125.548 421.396 122.121 434.698C121.466 437.268 123.381 439.787 126.052 439.787H140.261C141.521 439.787 142.679 438.981 143.133 437.772C148.625 423.16 153.412 411.923 158.904 399.226C162.784 390.105 165.908 382.95 168.175 376.299Z" fill="#B92127"/>
<path d="M190.497 238.339C191.907 240.002 193.469 241.564 195.435 242.521C197.853 243.63 200.574 243.63 203.245 243.579C215.438 243.428 228.237 243.075 238.818 236.978C241.489 235.467 244.26 232.897 243.655 229.874C242.899 226.044 237.861 225.339 233.981 225.49C227.834 225.742 221.686 225.944 215.589 226.196C212.667 226.296 209.442 226.347 207.124 224.533C205.21 223.072 204.303 220.703 203.446 218.436C201.33 212.742 199.214 207.048 197.097 201.355C195.334 196.568 193.52 191.731 190.295 187.8C187.121 183.921 180.57 178.68 177.597 184.626C175.078 189.715 175.733 198.432 176.237 203.924C177.295 216.471 182.233 228.765 190.497 238.339Z" fill="#FFC8E6"/>
<path d="M214.582 230.479C210.148 229.672 205.713 229.068 201.229 228.665C199.869 228.564 196.644 227.707 195.535 228.665C194.477 229.521 194.628 232.041 194.779 233.199C194.88 234.106 195.233 235.114 196.039 235.517C196.543 235.769 197.148 235.769 197.752 235.769C204.051 235.568 210.399 235.366 216.496 233.754C216.899 233.653 217.353 233.502 217.554 233.149C217.706 232.897 217.655 232.595 217.554 232.343C217.202 231.083 215.791 230.68 214.582 230.479Z" fill="#FFB288"/>
<path d="M133.61 184.727C133.61 184.727 165.152 144.216 194.125 194.25C194.175 194.25 161.524 226.045 133.61 184.727Z" fill="#FFC8E6"/>
<path d="M194.124 284.695C194.225 283.939 194.276 283.184 194.326 282.478C194.326 282.125 194.376 281.823 194.427 281.47C194.477 280.715 194.528 279.959 194.578 279.203C194.376 277.439 194.175 275.777 194.024 274.114C193.973 273.912 193.923 273.66 193.923 273.459C193.872 273.106 193.923 272.955 193.923 272.804C193.217 264.641 192.915 256.428 191.907 248.265C191.756 246.854 191.605 245.393 191.454 243.982C190.547 237.785 190.043 231.587 190.446 225.289C191.051 215.614 192.915 205.99 194.628 196.366C191.404 192.839 187.524 189.665 183.593 186.994L184.702 185.331C166.159 178.479 145.098 181.351 145.098 181.351L145.148 182.056C144.745 182.006 144.392 182.006 143.989 181.956C142.276 182.661 140.714 183.165 139.101 183.669C138.598 183.82 138.094 183.921 137.64 184.021C137.489 184.072 137.388 184.122 137.237 184.173C136.078 184.676 134.819 184.878 133.609 184.828C133.357 189.01 133.206 193.192 133.257 197.374C133.508 209.87 139.555 221.006 139.908 233.351C140.008 236.374 139.656 239.296 139.001 242.168C138.547 243.63 138.094 245.091 137.489 246.502C133.307 256.378 125.295 264.49 122.272 274.769C120.861 279.455 120.811 284.141 121.768 288.827C122.071 290.339 123.733 291.094 125.043 290.339C126.857 289.23 129.175 288.928 131.543 289.029C135.07 289.23 138.396 290.691 141.621 292.102C150.539 296.083 159.66 300.265 169.435 300.769C176.287 301.122 183.09 299.66 189.791 298.3C191.051 296.889 192.159 295.629 193.419 294.218C193.621 290.943 193.872 287.819 194.124 284.695Z" fill="#FFC8E6"/>
<path d="M191.504 244.637C191.202 244.637 190.95 244.385 190.9 244.083C189.892 237.079 189.539 230.932 189.892 225.238C190.346 218.184 191.404 211.331 192.563 204.932C192.613 204.579 192.915 204.378 193.268 204.428C193.621 204.479 193.822 204.831 193.772 205.134C192.663 211.482 191.555 218.335 191.152 225.289C190.799 230.882 191.152 236.928 192.16 243.831C192.21 244.184 191.958 244.486 191.605 244.536C191.555 244.637 191.504 244.637 191.504 244.637Z" fill="#F9A5C1"/>
<path d="M134.466 206.595C134.466 206.595 123.431 178.277 145.803 174.196L134.466 206.595Z" fill="#FFC8E6"/>
<path d="M121.919 289.331C121.919 289.331 145.501 322.587 192.613 299.408L194.326 282.478C194.326 282.478 151.648 251.339 121.919 289.331Z" fill="#FFC8E6"/>
<path d="M155.427 172.382C154.822 172.634 154.218 172.835 153.714 173.239C152.857 173.944 152.404 175.002 152.253 176.111C151.749 179.839 154.319 183.215 156.737 186.087L166.563 197.828C170.392 202.362 177.749 200.548 179.008 194.754C179.865 190.773 180.722 186.793 180.167 182.913C179.462 177.471 175.683 172.735 170.896 170.165C164.346 166.638 161.625 170.014 155.427 172.382Z" fill="#FFB288"/>
<path d="M324.527 444.776L320.698 458.834L315.256 464.024L308.857 464.578L308.554 458.481L311.124 445.884L324.527 444.776Z" fill="#FFB288"/>
<path d="M334.251 458.985L321.654 455.458C320.697 457.07 320.596 458.028 319.437 458.683C315.96 461.907 311.476 460.749 308.705 456.919L306.488 464.578C306.286 465.283 307.143 465.888 308.251 465.888L331.581 465.838C337.677 465.888 339.693 460.749 334.251 458.985Z" fill="#FF5941"/>
<path d="M285.527 444.473L280.085 458.531L274.038 463.721L267.589 464.276L267.992 458.128L271.973 445.582L285.527 444.473Z" fill="#FFB288"/>
<path d="M293.941 458.683L281.344 455.155C280.387 456.768 280.286 457.725 279.127 458.38C275.651 461.605 271.166 460.446 268.395 456.617L266.178 464.276C265.976 464.981 266.833 465.586 267.941 465.586L291.271 465.535C297.368 465.535 299.383 460.396 293.941 458.683Z" fill="#FF5941"/>
<path d="M197.298 130.611C196.996 128.041 193.721 125.673 192.814 125.068C192.31 124.161 191.856 123.254 191.302 122.398C190.798 121.592 189.236 119.979 189.236 119.979C186.515 117.46 182.686 116.099 179.008 116.503C174.775 116.956 175.733 118.568 172.407 119.677C169.031 120.836 165.403 118.065 160.112 123.305C157.19 126.177 156.434 128.646 155.88 130.863C155.023 132.324 154.268 133.735 153.814 134.188C152.605 135.247 151.043 135.851 149.733 136.809C146.709 138.975 145.299 142.905 145.248 146.634C145.198 148.347 146.004 149.859 146.911 151.371C148.12 153.436 148.775 155.704 149.229 158.022C149.884 161.398 151.698 164.421 155.275 165.378C159.861 166.588 164.698 164.925 166.713 160.944C167.872 158.677 168.124 155.855 170.14 154.243C172.407 152.378 176.136 152.681 178.252 150.716C180.62 148.498 179.663 144.719 180.62 141.696C181.779 138.018 184.399 136.607 187.523 134.844C188.128 134.541 188.531 134.39 189.539 134.138C191.756 133.785 193.922 137.312 196.442 137.816C196.291 137.716 197.903 135.65 197.298 130.611Z" fill="#EDE5DA"/>
<path d="M187.019 139.882L171.096 136.506C170.391 136.355 169.937 135.65 170.089 134.944L171.902 126.479C172.205 125.069 173.616 124.162 175.026 124.464L189.639 127.588C193.015 128.293 195.232 131.669 194.476 135.045C193.771 138.421 190.395 140.588 187.019 139.882Z" fill="#FFB288"/>
<path d="M160.213 151.874C160.515 154.343 161.22 156.51 162.178 158.223C166.561 155.301 167.216 150.867 167.216 150.867C166.36 149.909 166.007 148.045 166.461 145.979C167.065 143.309 168.778 141.394 170.29 141.696C170.391 141.747 170.492 141.847 170.592 141.898L162.178 130.359C160.011 134.894 158.953 141.696 160.213 151.874Z" fill="#EDE5DA"/>
<path d="M193.016 129.351C195.787 132.727 197.148 137.262 196.14 141.847L193.621 153.487C191.907 161.448 183.946 166.487 175.985 164.773C168.024 163.06 162.935 155.149 164.648 147.188L167.066 135.952L193.016 129.351Z" fill="#FFB288"/>
<path d="M161.271 175.204L170.19 177.068C171.399 177.32 172.609 176.463 172.911 175.204L177.95 151.169C178.202 149.909 177.446 148.65 176.186 148.398L167.267 146.533C166.058 146.281 164.798 147.138 164.547 148.398L159.508 172.432C159.256 173.692 160.062 174.952 161.271 175.204Z" fill="#FFB288"/>
<path d="M180.166 155.2C180.066 156.258 180.318 157.568 182.434 158.425C182.434 158.425 185.558 159.534 185.81 157.065L180.166 155.2Z" fill="white"/>
<path d="M193.066 137.514L182.636 135.297C182.333 135.247 182.182 134.944 182.233 134.692C182.283 134.39 182.585 134.239 182.837 134.289L193.268 136.506C193.57 136.557 193.721 136.859 193.671 137.111C193.62 137.363 193.368 137.564 193.066 137.514Z" fill="#F78C57"/>
<path d="M166.259 141.142C163.992 140.638 161.674 142.452 161.069 145.173C160.465 147.894 161.825 150.514 164.092 151.018C166.36 151.522 168.678 149.708 169.282 146.987C169.837 144.266 168.527 141.646 166.259 141.142Z" fill="#FFB288"/>
<path d="M172.105 138.572C169.837 140.84 168.275 143.712 165.907 145.878C164.395 147.289 162.581 148.398 160.667 149.053C158.097 149.96 154.721 149.909 153.109 147.692C151.647 145.677 152.252 142.704 153.613 140.588C156.434 136.154 161.775 133.987 165 129.805C167.368 126.782 168.729 122.65 172.205 121.088C174.372 120.13 176.841 120.433 179.109 121.037C181.829 121.793 184.45 122.952 187.019 124.111C188.884 124.968 190.748 125.774 192.663 126.63C192.864 126.731 193.116 126.832 193.267 127.034C193.419 127.235 193.469 127.537 193.519 127.789C193.67 128.797 194.527 131.367 194.074 132.324C193.57 133.382 192.159 133.08 191.201 132.979C181.578 131.518 174.876 135.851 172.105 138.572Z" fill="#EDE5DA"/>
<path d="M238.767 330.296H219.721V363.552H238.767V330.296Z" fill="#6D67A6"/>
<path d="M235.442 330.296H195.938C187.473 330.296 180.57 323.393 180.57 314.928V250.382C180.57 241.916 187.423 235.013 195.938 235.013H235.442C243.907 235.013 250.81 241.916 250.81 250.382V314.928C250.81 323.443 243.957 330.296 235.442 330.296Z" fill="#6D67A6"/>
<path d="M241.287 330.296H201.784C193.319 330.296 186.416 323.393 186.416 314.928V250.382C186.416 241.916 193.319 235.013 201.784 235.013H241.287C249.752 235.013 256.655 241.916 256.655 250.382V314.928C256.655 323.443 249.803 330.296 241.287 330.296Z" fill="#8B80C4"/>
<path d="M233.98 225.188C233.88 225.137 233.829 225.087 233.779 225.037C233.779 225.037 261.794 209.014 292.278 229.874C292.329 229.924 292.43 230.025 292.53 230.126C294.647 231.184 293.236 229.823 324.224 260.409L311.426 277.44C308.402 275.676 305.026 273.66 301.852 271.746C294.848 283.335 292.43 312.711 301.348 335.335L233.93 335.183C233.728 334.478 233.527 333.974 233.275 333.924C231.663 309.536 229.748 289.432 228.438 267.16C227.077 268.672 225.717 270.234 224.256 271.847C224.104 271.998 223.903 272.3 223.651 272.602L205.763 259.602C229.445 227.304 230.705 226.75 233.98 225.188Z" fill="#B1D394"/>
<path d="M252.574 465.082H257.26H257.814V374.536L252.574 374.586V465.082Z" fill="#6D67A6"/>
<path d="M337.829 360.276H243.352C252.321 360.276 259.829 366.272 262.147 374.486H265.17C265.17 374.536 270.36 374.486 270.36 374.486H337.224V465.082H343.069V374.536C347.906 374.536 350.627 368.842 347.503 365.164C345.084 362.141 341.658 360.276 337.829 360.276Z" fill="#8B80C4"/>
<path d="M251.918 374.635H257.108C257.108 374.534 262.197 374.534 262.197 374.534C259.879 366.321 252.372 360.325 243.403 360.325H200.624C192.814 360.325 186.415 366.523 185.407 374.534H189.488V465.131H194.678V374.534H251.918V374.635Z" fill="#6D67A6"/>
<path d="M344.48 344.303C339.441 337.753 330.825 334.226 317.321 333.218C307.999 332.513 295.151 332.16 281.496 331.757C265.775 331.303 249.55 330.85 238.717 329.842C237.608 329.741 234.736 329.439 233.628 331.656C232.469 333.974 234.283 336.04 236.802 338.912C238.717 341.079 241.589 344.303 241.639 346.42L241.69 348.183L243.352 348.788C245.62 349.594 247.837 350.551 250.104 351.559C260.434 356.245 262.701 357.354 264.414 361.485L265.019 362.947L266.631 362.997C282.957 363.753 306.74 363.904 318.127 363.954C319.689 363.954 320.999 363.954 322.057 364.005C322.41 392.222 317.371 418.322 308.654 444.574C307.546 447.849 309.964 451.276 313.441 451.276H323.015C325.131 451.276 326.995 449.966 327.751 448.051C328.557 445.985 329.565 443.365 331.782 437.873C336.67 425.679 341.759 413.032 343.926 401.09C344.48 398.117 345.034 395.195 345.538 392.373C349.468 371.412 352.592 354.834 344.48 344.303Z" fill="#263954"/>
<path d="M267.287 335.838L264.012 335.435C255.648 334.327 246.679 332.261 238.012 330.296L230.807 328.633L230.454 331.404C230.202 333.269 229.95 335.637 230.001 336.393C230.756 351.811 242.245 364.71 257.31 367.129C268.144 368.842 278.574 370.354 286.585 371.563C289.306 371.966 291.171 374.485 290.717 377.206C286.384 402.954 277.717 425.377 266.38 447.245C265.423 449.109 266.733 451.376 268.849 451.376H282.655C285.981 451.376 289.105 449.613 290.768 446.741L292.178 444.322C305.481 422.101 307.093 417.617 310.923 406.834L312.132 403.458C315.961 392.776 320.295 380.683 321.554 369.497C324.477 343.145 291.423 338.962 267.287 335.838Z" fill="#374D78"/>
<path d="M347.301 283.688C346.042 282.126 335.46 271.595 324.173 260.409L311.375 277.44C316.918 280.715 321.352 283.184 321.352 283.184C304.926 286.257 274.189 292.455 290.263 295.881C294.747 296.839 339.139 297.645 339.794 297.695C343.573 297.796 347.553 292.556 348.309 288.777C348.46 288.071 347.755 284.242 347.301 283.688Z" fill="#B1D394"/>
<path d="M379.449 280.815H374.209V295.579H379.449V280.815Z" fill="#263954"/>
<path d="M398.849 280.815V295.579C391.291 295.579 386.151 295.579 379.5 295.579V280.815C386.101 280.815 391.291 280.815 398.849 280.815Z" fill="#374D78"/>
<path d="M415.476 293.916H359.798V295.529H415.476V293.916Z" fill="#374D78"/>
<path d="M193.368 295.529C193.469 295.529 193.62 295.579 193.721 295.579H257.612C261.694 295.327 273.887 284.695 257.26 284.141C248.794 283.839 227.43 282.428 215.841 282.277C218.209 279.304 221.888 274.618 223.601 272.602L205.713 259.603C197.248 271.141 189.791 281.773 189.841 283.184C189.791 283.133 187.322 291.246 193.368 295.529Z" fill="#B1D394"/>
<path d="M272.527 235.064L260.485 233.099C252.322 231.788 254.64 219.091 262.55 220.401L274.593 222.366C277.919 222.92 280.236 226.095 279.682 229.42C278.977 233.804 275.55 235.568 272.527 235.064Z" fill="#FFB288"/>
<path d="M266.683 176.614C264.919 178.025 263.156 179.789 263.156 182.056C263.156 182.963 263.408 183.87 263.307 184.777C263.105 186.289 261.896 187.397 260.888 188.506C259.881 189.614 258.923 191.126 259.377 192.537C259.83 193.897 261.392 194.653 261.946 195.963C262.803 197.928 261.342 200.699 262.904 202.11C263.559 202.715 264.567 202.816 265.121 203.521C265.927 204.478 265.423 206.04 266.129 207.048C266.683 207.854 267.791 208.056 268.698 207.754C269.605 207.451 270.361 206.796 270.966 206.091C272.175 204.73 273.233 203.068 273.183 201.254C273.132 199.137 271.621 197.323 270.815 195.358C269.454 192.234 269.908 188.254 272.377 185.936C273.183 185.18 274.14 184.575 274.997 183.87C275.853 183.114 276.559 182.157 276.609 181.048C276.66 180.041 276.156 179.083 275.853 178.126C275.551 177.169 275.45 176.01 276.105 175.254C276.408 174.901 276.912 174.7 277.214 174.347C278.07 173.339 277.365 172.13 276.307 171.676C275.299 171.273 274.644 171.626 273.737 172.13C271.268 173.339 268.85 174.851 266.683 176.614Z" fill="#EDE5DA"/>
<path d="M298.377 191.277C299.636 190.118 300.946 189.01 302.105 188.052C306.691 184.173 302.609 177.673 300.241 176.866C296.008 175.405 289.559 175.304 286.133 182.862C291.423 184.273 295.505 187.347 298.377 191.277Z" fill="#EDE5DA"/>
<path d="M292.985 188.959L277.416 185.281C276.71 185.13 276.307 184.425 276.458 183.719L278.423 175.456C278.726 174.095 280.136 173.239 281.497 173.541L295.807 176.917C299.133 177.723 301.198 181.049 300.392 184.374C299.687 187.7 296.311 189.766 292.985 188.959Z" fill="#FFB288"/>
<path d="M264.113 199.591C264.365 202.06 264.97 204.176 265.927 205.89C270.311 203.118 271.067 198.785 271.067 198.785C270.261 197.828 269.958 195.963 270.462 193.998C271.117 191.378 272.83 189.514 274.342 189.917C274.443 189.967 274.544 190.068 274.644 190.118L266.633 178.58C264.264 182.913 263.055 189.514 264.113 199.591Z" fill="#EDE5DA"/>
<path d="M270.261 189.161C268.044 188.607 265.726 190.37 265.071 193.041C264.416 195.711 265.675 198.281 267.892 198.835C270.109 199.39 272.427 197.626 273.082 194.956C273.737 192.335 272.478 189.715 270.261 189.161Z" fill="#FFB288"/>
<path d="M298.78 178.68C301.601 182.409 302.861 187.347 301.652 192.335L298.578 204.932C296.512 213.548 287.946 218.94 279.582 216.924C271.218 214.909 266.078 206.192 268.195 197.575L271.167 185.382L298.78 178.68Z" fill="#FFB288"/>
<path d="M259.78 229.975L271.066 233.905C272.628 234.459 274.342 233.602 274.896 231.99L285.326 202.01C285.88 200.397 285.074 198.684 283.512 198.13L272.225 194.2C270.663 193.645 268.95 194.502 268.396 196.114L257.966 226.095C257.411 227.657 258.218 229.42 259.78 229.975Z" fill="#FFB288"/>
<path d="M270.664 186.087L267.389 197.928C266.33 201.808 266.28 206.393 268.245 209.921C269.253 211.684 271.823 214.859 273.284 216.269C276.005 218.889 284.016 219.897 287.342 220.502C290.466 221.056 294.346 218.486 295.555 215.564L298.377 205.235C298.377 205.235 287.594 204.076 281.346 201.052C276.257 198.583 276.005 197.324 275.602 191.68L274.796 180.444L270.664 186.087Z" fill="#EDE5DA"/>
<path d="M284.016 205.285C283.865 206.292 284.167 207.653 286.485 208.56C286.485 208.56 289.911 209.82 290.163 207.401L284.016 205.285Z" fill="white"/>
<path d="M298.326 178.277C298.326 178.277 292.43 172.583 281.698 172.886L284.771 177.068L298.326 178.277Z" fill="#FFB288"/>
<path d="M286.031 176.262C286.485 174.196 284.469 171.979 283.058 171.525C278.523 170.014 271.066 169.963 266.531 178.58L274.543 190.118L275.047 187.397C276.004 184.878 278.624 183.366 281.093 182.207C283.512 181.099 285.326 179.083 285.981 176.514C285.981 176.413 285.981 176.312 286.031 176.262Z" fill="#EDE5DA"/>
<path d="M297.016 188.859L291.675 187.599C291.423 187.549 291.221 187.246 291.322 186.994C291.372 186.742 291.675 186.541 291.927 186.591L297.268 187.851C297.52 187.901 297.721 188.204 297.671 188.456C297.57 188.708 297.268 188.909 297.016 188.859Z" fill="#F78C57"/>
<path d="M299.031 186.742L288.802 184.324C288.55 184.273 288.349 183.971 288.449 183.719C288.5 183.467 288.802 183.266 289.054 183.366L299.283 185.785C299.535 185.835 299.736 186.138 299.686 186.39C299.585 186.642 299.283 186.843 299.031 186.742Z" fill="#F78C57"/>
<path d="M147.667 238.037C149.078 239.699 150.64 241.261 152.605 242.219C155.024 243.327 157.745 243.327 160.415 243.277C172.609 243.126 185.407 242.773 195.989 236.676C198.659 235.164 201.431 232.595 200.826 229.572C200.07 225.742 195.031 225.037 191.152 225.188C185.004 225.44 178.857 225.641 172.76 225.893C169.838 225.994 166.613 226.044 164.295 224.23C162.38 222.769 161.473 220.401 160.617 218.134C158.501 212.44 156.384 206.746 154.268 201.052C152.505 196.265 150.691 191.428 147.466 187.498C144.291 183.618 137.741 178.378 134.768 184.324C132.249 189.413 132.904 198.13 133.408 203.622C134.466 216.168 139.404 228.463 147.667 238.037Z" fill="#FFC8E6"/>
<path d="M159.005 243.882C156.788 243.882 154.47 243.731 152.303 242.723C150.237 241.765 148.625 240.052 147.164 238.389C139.001 228.866 133.861 216.521 132.702 203.572C132.702 203.471 132.45 201.859 132.199 200.297C131.947 198.735 131.695 197.223 131.695 197.122C131.644 196.77 131.896 196.467 132.249 196.417C132.551 196.316 132.904 196.618 132.954 196.971C132.954 197.122 133.206 198.583 133.458 200.045C133.912 202.766 133.962 203.37 134.012 203.421C135.121 216.118 140.16 228.211 148.171 237.533C149.532 239.095 150.993 240.657 152.857 241.513C155.175 242.622 157.946 242.572 160.415 242.521C171.904 242.37 184.954 242.168 195.687 236.021C197.249 235.114 200.826 232.696 200.221 229.572C199.466 225.793 193.621 225.591 191.152 225.692L172.76 226.397C169.435 226.548 166.311 226.448 163.892 224.634C161.776 223.021 160.768 220.351 160.012 218.235L153.664 201.153C151.95 196.467 150.136 191.68 146.962 187.75C146.76 187.498 146.76 187.095 147.063 186.843C147.315 186.642 147.718 186.642 147.97 186.944C151.245 191.025 153.109 195.913 154.873 200.7L161.222 217.781C161.927 219.746 162.884 222.215 164.698 223.626C166.815 225.238 169.687 225.289 172.76 225.138L191.152 224.432C193.973 224.331 200.574 224.583 201.481 229.32C202.237 233.25 198.156 236.072 196.342 237.13C185.357 243.428 172.156 243.63 160.466 243.781C159.962 243.882 159.458 243.882 159.005 243.882Z" fill="#F9A5C1"/>
<path d="M215.69 238.289C215.992 238.289 216.194 238.591 216.396 238.792C217.051 239.397 218.109 239.044 218.915 238.692C219.167 238.591 219.469 238.44 219.671 238.238C220.376 237.634 220.275 236.525 220.175 235.568C220.023 234.661 219.923 233.754 219.772 232.847C219.671 232.292 219.57 231.637 219.116 231.285C218.865 231.083 218.562 231.033 218.26 230.932C217.252 230.68 216.244 230.479 215.186 230.227C212.516 229.622 207.527 230.982 208.837 234.711C209.291 236.021 210.803 237.533 211.911 238.389C212.516 238.893 213.221 239.347 214.027 239.246C214.632 239.145 215.136 238.238 215.69 238.289Z" fill="#FFB288"/>
<path d="M241.892 226.397C242.194 226.296 242.446 226.498 242.749 226.548C243.605 226.8 244.411 226.044 244.966 225.389C245.167 225.188 245.369 224.936 245.47 224.684C245.822 223.827 245.318 222.87 244.815 222.064C244.311 221.308 243.807 220.502 243.303 219.746C243.001 219.242 242.597 218.738 242.043 218.637C241.741 218.587 241.439 218.637 241.136 218.688C240.129 218.889 239.07 219.091 238.063 219.343C235.392 219.897 231.462 223.223 234.183 226.044C235.14 227.052 237.156 227.808 238.516 228.11C239.272 228.312 240.129 228.463 240.784 227.959C241.287 227.657 241.388 226.599 241.892 226.397Z" fill="#FFB288"/>
<path d="M160.717 465.082C159.105 465.082 157.795 463.772 157.795 462.159V301.323C157.795 299.711 159.105 298.401 160.717 298.401C162.33 298.401 163.64 299.711 163.64 301.323V462.159C163.64 463.772 162.33 465.082 160.717 465.082Z" fill="#936052"/>
<path d="M423.387 465.082C421.774 465.082 420.464 463.772 420.464 462.159V301.323C420.464 299.711 421.774 298.401 423.387 298.401C424.999 298.401 426.309 299.711 426.309 301.323V462.159C426.309 463.772 424.999 465.082 423.387 465.082Z" fill="#936052"/>
<path d="M306.539 278.447C310.217 279.707 314.097 280.412 317.473 282.327C319.992 283.738 322.159 285.804 324.124 287.92C323.922 285.653 323.57 283.435 322.965 281.218C322.511 279.455 321.957 277.742 320.949 276.18C318.732 272.653 314.349 270.637 310.217 271.191C309.461 271.292 308.655 271.494 307.949 271.191C307.496 270.99 307.143 270.688 306.841 270.335C305.38 268.823 303.868 267.06 301.802 266.858C298.779 266.556 297.066 269.932 298.023 272.451C299.182 275.575 303.717 277.49 306.539 278.447Z" fill="#B1D394"/>
<path d="M346.647 287.366C345.337 287.517 344.178 286.61 343.221 285.753C337.426 280.563 332.791 274.215 327.198 268.823C316.415 258.393 302.306 251.641 292.38 240.354C291.12 238.893 290.213 236.122 292.027 235.517C297.519 233.602 303.415 239.649 307.798 242.924C313.19 246.955 318.279 251.339 323.015 256.126C327.701 260.812 332.035 265.8 336.015 271.091C337.225 272.602 345.841 287.416 346.647 287.366Z" fill="#B1D394"/>
<path d="M343.22 208.61H350.224C346.798 208.61 344.027 211.382 344.027 214.808V274.618C344.027 278.044 346.798 280.815 350.224 280.815H343.22C339.794 280.815 337.023 278.044 337.023 274.618V214.808C337.023 211.382 339.794 208.61 343.22 208.61Z" fill="#263954"/>
<path d="M344.026 274.618V214.808C344.026 211.382 346.797 208.61 350.224 208.61C381.161 208.61 397.084 208.61 424.041 208.61C427.467 208.61 430.239 211.382 430.239 214.808V274.618C430.239 278.044 427.467 280.815 424.041 280.815H417.037H350.224C346.797 280.815 344.026 278.044 344.026 274.618Z" fill="#374D78"/>
<path d="M229.698 276.029C229.244 280.211 227.33 284.242 227.431 288.474C227.531 292.657 229.648 296.536 229.95 300.718C230.353 306.06 227.783 311.149 226.473 316.389C225.163 321.629 225.617 328.129 230.151 331.001C232.167 332.261 234.586 332.513 236.954 332.614C241.589 332.765 246.225 332.16 250.709 330.85C241.237 321.327 239.171 306.866 238.566 293.412C238.012 281.067 238.163 267.967 232.721 256.529C230.303 251.44 225.465 252.447 226.221 258.141C227.027 264.339 230.454 269.478 229.698 276.029Z" fill="#B1D394"/>
<path d="M216.294 287.315C214.581 286.56 213.473 284.796 213.17 282.932C212.918 281.067 213.372 279.203 214.077 277.49C215.74 273.61 218.763 270.536 221.384 267.261C222.744 265.598 225.112 260.005 227.833 261.114C229.899 261.971 230.201 266.153 230 267.916C229.597 271.846 226.372 274.366 223.651 276.835C223.046 277.54 214.38 286.509 216.294 287.315Z" fill="#B1D394"/>
<path d="M263.911 285.098C256.201 285.098 219.519 282.579 219.167 282.579L217.403 282.478L218.864 281.47C226.674 275.928 241.438 254.362 241.589 254.11C248.19 246.653 243.857 237.583 243.806 237.482C243.655 237.18 243.806 236.777 244.108 236.626C244.411 236.474 244.814 236.575 244.965 236.928C245.015 237.029 249.752 246.905 242.597 254.866C242.043 255.672 229.093 274.618 220.93 281.42C228.186 281.924 257.26 283.839 263.961 283.839C264.314 283.839 264.616 284.141 264.616 284.494C264.515 284.796 264.213 285.098 263.911 285.098Z" fill="#95AD7D"/>
<path d="M432.809 295.428H154.369V304.901H432.809V295.428Z" fill="#936052"/>
<path d="M265.019 284.846V295.327H279.934C279.934 295.377 276.255 286.509 265.019 284.846Z" fill="#FFB288"/>
<path d="M307.496 292.556C307.395 296.385 302.357 295.377 256.857 295.377C253.985 295.377 251.667 294.168 251.667 292.606C251.869 288.777 257.159 289.835 302.306 289.835C305.128 289.835 307.446 291.044 307.496 292.556Z" fill="#263954"/>
<path d="M324.728 292.556C324.527 288.928 316.818 289.835 300.996 289.835C287.593 289.835 279.682 288.928 279.481 292.556C279.531 294.118 281.849 295.377 284.67 295.377C291.775 295.377 295.353 295.377 302.457 295.377C316.717 295.377 324.577 296.284 324.678 292.606C324.678 292.556 324.728 292.606 324.728 292.556Z" fill="#374D78"/>
</svg>
