<svg width="91" height="64" viewBox="0 0 91 64" fill="none" xmlns="http://www.w3.org/2000/svg">
<path d="M85.0927 33.3428L74.9516 29.4827L66.0539 35.727C65.0416 36.4397 63.6607 35.6702 63.717 34.4214L64.2168 23.4971L55.5878 16.887C54.6068 16.1365 54.9067 14.5722 56.0939 14.238L66.5412 11.3429L70.1028 1.01151C70.509 -0.167958 72.0773 -0.363485 72.7522 0.677222L78.7069 9.81652L89.5416 10.0436C90.7725 10.0688 91.4411 11.5132 90.6726 12.4845L83.9055 21.0309L87.036 31.5011C87.3984 32.6932 86.2487 33.7843 85.0927 33.3428Z" fill="#AADD22"/>
<path d="M17.4617 47.7111L13.3925 41.7302L6.1458 41.7464C5.32048 41.7496 4.85948 40.8019 5.36695 40.1408L9.81032 34.3609L7.61735 27.4541C7.3677 26.6694 8.12873 25.9289 8.90521 26.1994L15.7204 28.6052L21.6109 24.3181C22.2831 23.8285 23.2149 24.3203 23.1865 25.1467L22.9523 32.415L28.7874 36.6751C29.4505 37.1588 29.2646 38.2034 28.4737 38.4409L21.5127 40.5288L19.2269 47.4463C18.9699 48.2362 17.925 48.3937 17.4617 47.7111Z" fill="#AADD22"/>
<path d="M49.6179 61.3744L47.0171 57.5518L42.3855 57.5622C41.858 57.5642 41.5633 56.9585 41.8877 56.5359L44.7276 52.8418L43.326 48.4274C43.1664 47.9259 43.6528 47.4527 44.1491 47.6255L48.5049 49.1632L52.2697 46.4231C52.6993 46.1102 53.2949 46.4245 53.2767 46.9527L53.127 51.5981L56.8565 54.3209C57.2803 54.63 57.1615 55.2977 56.656 55.4495L52.207 56.7839L50.746 61.2052C50.5818 61.71 49.9139 61.8107 49.6179 61.3744Z" fill="#AADD22"/>
</svg>
