<svg width="35" height="95" viewBox="0 0 35 95" fill="none" xmlns="http://www.w3.org/2000/svg">
<path d="M21.6948 17.6132L22.1834 15.3908C22.1834 15.3908 23.7831 16.406 24.7152 17.8551C25.6485 19.3042 26.092 23.1702 26.3588 23.3148C26.6257 23.4595 29.5773 18.9129 30.0931 18.1954C30.7311 17.3084 30.9695 16.2909 31.3691 15.5177C31.7688 14.7445 33.1764 14.4813 33.7101 14.5785C34.2437 14.6758 32.9784 16.936 32.9784 16.936C32.9784 16.936 29.7801 22.493 28.714 25.5371C27.6479 28.5813 24.3168 30.0304 23.7831 29.5964C23.2495 29.1612 21.6948 17.6132 21.6948 17.6132Z" fill="#F48C7F"/>
<path d="M31.4054 15.9435C31.4054 15.9435 31.5382 15.3589 31.8976 15.2391C32.2569 15.1194 32.8818 15.2261 32.921 15.2391C32.9613 15.2522 33.6527 14.8798 33.6527 14.8798L33.0811 15.9435C33.0811 15.9435 31.964 17.2599 31.5916 16.7677C31.2192 16.2768 31.4054 15.9435 31.4054 15.9435Z" fill="#F7A491"/>
<path d="M33.851 14.9284C33.851 14.9284 34.2542 16.9811 34.1522 17.4104C34.0502 17.8421 33.7929 17.6108 33.7443 17.5172C33.5462 17.1318 33.4075 15.8154 33.4075 15.8154L33.851 14.9284Z" fill="#F48C7F"/>
<path d="M32.9832 16.6348C32.9832 16.6348 33.1753 17.9072 33.3733 18.0578C33.5014 18.1551 33.6662 18.0982 33.7196 17.8408C33.773 17.5835 33.4622 16.0146 33.4622 16.0146L32.9832 16.6348Z" fill="#F48C7F"/>
<path d="M31.807 20.2471L31.1382 19.9209L33.9819 14.0876C34.3519 14.2679 34.5049 14.7138 34.3246 15.0838L31.807 20.2471Z" fill="#4DA7C5"/>
<path d="M24.6622 8.4725C25.063 6.64863 25.4567 4.81291 24.3989 2.80879C23.5427 1.18652 22.0628 0.254423 20.3504 0.0504533C15.4966 -0.525879 16.5343 4.00533 9.75108 4.98604C7.6426 5.29081 5.68473 5.58372 3.9249 6.63203C0.746764 8.52468 -0.452152 11.5617 1.65514 16.508C6.81486 28.6204 19.4811 18.3378 21.0465 15.953C22.2098 14.1789 24.4049 9.64651 24.6622 8.4725Z" fill="#13375B"/>
<path d="M5.25277 84.9848C5.25277 84.9848 4.90768 88.4938 4.01947 89.1377C3.13125 89.7816 1.94657 92.1652 2.53832 93.4543C2.72331 93.8575 3.0933 94.0899 3.51547 94.2192C4.76419 94.6034 6.09118 93.9559 6.62245 92.7629C6.91891 92.0965 7.17981 91.2071 7.23198 90.0876C7.3648 87.2368 8.2542 85.7876 8.2542 85.7876L5.25277 84.9848Z" fill="#F7A491"/>
<path d="M18.9049 86.4209C18.9049 86.4209 19.1848 89.9619 18.9583 91.1122C18.8361 91.7289 18.159 92.9965 18.4697 93.5764C18.7804 94.1563 19.1362 94.301 19.1362 94.301L27.1953 94.4303C27.6341 94.4374 27.3436 94.1551 26.9902 93.8954C26.4115 93.4697 25.9431 93.1887 24.0931 92.2957C23.9721 92.2376 23.5334 91.9589 23.3745 91.8617C22.9724 91.6174 22.5693 91.232 22.2218 90.8454C21.6431 90.2026 21.5921 87.085 21.5921 87.085L18.9049 86.4209Z" fill="#F7A491"/>
<path d="M25.2038 39.3573C25.2038 39.3573 26.2189 45.1064 25.5524 48.8751C24.886 52.6438 21.6877 87.5784 21.6877 87.5784L18.1336 87.7788C18.1336 87.7788 17.3889 73.1867 17.5217 71.1564C17.6545 69.1274 18.71 65.7311 18.71 65.7311L18.3566 53.9495L22.8415 38.4715L25.2038 39.3573Z" fill="#DC7C67"/>
<path d="M14.7588 38.1478C14.7588 38.1478 11.9601 42.3517 11.2937 45.8298C10.6272 49.3092 11.7823 59.9998 10.5015 64.5595C9.8078 67.0273 7.17754 70.8387 6.7779 74.0275C6.37826 77.2163 4.81055 85.5695 4.81055 85.5695L8.36341 86.2728L16.6194 65.4109L23.0955 46.5544L24.7545 36.8433L14.7588 38.1478Z" fill="#F47458"/>
<path d="M17.0246 14.2311C17.0246 14.2311 14.5746 14.5098 13.1077 16.1036C11.6419 17.6986 15.477 30.5155 15.7439 32.5445C16.0107 34.5736 13.5595 39.3075 13.5595 39.3075C13.5595 39.3075 22.7168 40.9998 25.2047 39.3573C25.2047 39.3573 25.4716 24.7652 25.2047 23.3149C24.9379 21.8658 22.7168 15.9708 22.1843 15.3909C21.6507 14.8098 17.0246 14.2311 17.0246 14.2311Z" fill="#1383A8"/>
<path d="M13.5591 17.306C13.7951 16.5921 14.6051 16.2482 15.2953 16.5459C16.2416 16.955 17.5472 17.7318 18.1852 19.0611C19.2513 21.2835 22.9833 28.9181 24.1371 29.2086C25.2921 29.4992 30.0012 21.2846 30.0012 21.2846C30.0012 21.2846 29.8684 19.8355 30.268 19.0137C30.6677 18.1919 31.8666 17.3226 32.0445 17.612C32.2224 17.9014 31.378 18.6271 31.378 18.7718C31.378 18.9165 31.7338 19.0137 32.2224 18.7232C32.7109 18.4338 32.9754 17.8468 32.9754 17.8468C32.9754 17.8468 33.777 19.303 32.9327 20.6075C32.0884 21.912 31.7338 22.4432 31.7338 22.4432C31.7338 22.4432 26.2693 34.5711 24.2711 34.717C22.4093 34.8534 11.6878 22.9615 13.5591 17.306Z" fill="#F7A491"/>
<path d="M18.2575 9.28961C18.2575 9.28961 18.2385 9.39871 18.2042 9.58371C18.0393 10.4731 17.4025 13.4224 16.9732 14.2323C16.4538 15.2118 18.7508 18.3366 20.9625 17.956C21.6206 17.8421 20.4063 15.085 20.4644 14.7921C20.5759 14.2323 20.7277 13.4698 20.883 12.6883C20.9708 12.2472 21.0585 11.8001 21.1427 11.3791C21.3787 10.1838 21.572 9.2066 21.572 9.2066L18.2575 9.28961Z" fill="#F7A491"/>
<path d="M18.2036 9.58371C18.238 9.39871 18.2569 9.28961 18.2569 9.28961L21.5703 9.2066C21.5703 9.2066 21.377 10.1838 21.141 11.3791C21.058 11.7977 20.9702 12.2424 20.8836 12.6812C20.3725 12.6065 19.8377 12.3575 19.3017 11.8902C18.7171 11.3803 18.334 10.766 18.1028 10.1114C18.1443 9.90152 18.1775 9.72127 18.2036 9.58371Z" fill="#F47458"/>
<path d="M20.2507 1.41425C20.2507 1.41425 18.9 1.60162 17.9204 2.86575C16.9409 4.12989 15.8867 8.03733 18.3177 10.1612C20.7499 12.2863 23.1525 9.88136 23.5083 7.33055C23.8652 4.78093 23.7929 1.32294 20.2507 1.41425Z" fill="#F7A491"/>
<path d="M24.2873 6.46009C23.9967 7.02338 23.5093 7.33526 23.1986 7.15619C22.8879 6.97713 22.8713 6.37589 23.1619 5.81379C23.4524 5.2505 23.9398 4.93862 24.2505 5.11768C24.5612 5.29556 24.5778 5.8968 24.2873 6.46009Z" fill="#F7A491"/>
<path d="M20.6622 1.35492C20.6622 1.35492 18.575 5.07144 17.0832 5.2422C15.5902 5.41416 15.3945 7.38863 15.3945 7.38863C15.3945 7.38863 15.9282 2.83844 17.4058 1.9609C18.8834 1.08454 20.6622 1.35492 20.6622 1.35492Z" fill="#13375B"/>
<path d="M17.5705 6.12803C17.6914 6.78737 17.4471 7.39335 17.025 7.47992C16.6028 7.56648 16.1616 7.10162 16.0395 6.44228C15.9185 5.78294 16.1628 5.17696 16.585 5.09039C17.0084 5.00382 17.4495 5.46868 17.5705 6.12803Z" fill="#F7A491"/>
<path d="M6.86454 92.1368C4.92802 92.489 3.64017 91.3589 2.97015 90.5122C2.47801 91.4704 2.1768 92.6669 2.53849 93.4543C2.85749 94.1481 3.72554 94.3378 4.45841 94.3651C5.23397 94.3936 5.95972 93.988 6.34394 93.3144C6.52419 93.0002 6.70919 92.6076 6.86454 92.1368Z" fill="#92BB25"/>
<path d="M23.3716 91.8629C21.2405 92.4084 19.6645 92.0372 18.7834 91.6826C18.5557 92.3254 18.2545 93.1317 18.4146 93.5966C18.6103 94.1658 18.889 94.2951 19.1344 94.301C21.0816 94.352 26.2651 94.422 27.7498 94.4409C27.9573 94.4433 28.0712 94.2014 27.9383 94.0425C27.5707 93.6049 23.5305 91.9589 23.3716 91.8629Z" fill="#92BB25"/>
</svg>
