<svg width="59" height="122" viewBox="0 0 59 122" fill="none" xmlns="http://www.w3.org/2000/svg">
<path d="M58.4932 64.1278C58.4932 64.1278 58.0211 63.5855 57.8777 63.3943C57.7104 63.1687 57.2607 62.4546 57.2607 62.4546C57.2607 62.4546 55.8102 59.8941 56.0074 59.8015C56.206 59.7089 56.699 60.0106 56.8439 60.1361C56.9888 60.2631 57.1711 60.3976 57.316 60.523C57.4609 60.65 57.6745 60.647 57.8448 60.4767C58.0151 60.3079 57.5461 59.6775 57.3414 59.4923C56.702 58.9141 54.6808 57.7115 54.4716 57.5756C54.2252 57.4143 52.5266 52.5098 51.811 50.8755C50.719 48.1656 49.733 45.3242 49.6195 45.0374L48.4901 32.5754L43.762 31.2115C43.762 31.2115 44.8196 45.0583 44.9526 45.7455C45.0153 46.0727 48.033 52.1573 48.0345 52.1558C49.7091 55.0584 51.1911 57.6115 51.463 58.1104C51.463 58.1104 51.8723 59.8194 52.068 60.9234C52.2637 62.0274 52.8881 62.9641 52.9912 63.2658C53.0061 63.3106 53.3034 64.3683 54.1191 65.4424C54.8212 66.3686 54.5807 65.1616 54.5807 65.1616C54.5807 65.1616 53.5873 63.2061 53.7546 63.1523C53.8831 63.1105 54.3626 64.2114 55.1305 65.2437C55.3276 65.5096 55.5233 65.7711 55.7041 66.0101C56.1807 66.636 56.702 66.5165 56.3076 65.78C56.1687 65.5201 55.9267 65.0928 55.7116 64.815C55.4785 64.5132 55.3635 64.1607 55.2066 63.8753C54.8959 63.3121 54.6614 62.9043 54.6912 62.9043C54.7301 62.9028 54.748 62.7474 54.9661 63.0223C55.2276 63.354 55.6294 64.1831 56.0522 64.6387C56.2927 64.8971 56.7603 65.4693 56.7603 65.4693C56.7603 65.4693 57.6208 66.3119 57.682 66.2745C58.0062 66.0713 57.564 65.29 57.1905 64.9823C57.0546 64.6626 56.5452 64.0755 56.5452 64.0755C56.5452 64.0755 55.7818 62.6518 55.9805 62.5368C56.1448 62.4427 58.6321 65.4902 58.9443 65.2631C59.1998 65.0779 58.4932 64.1278 58.4932 64.1278Z" fill="#F48C7F"/>
<path d="M10.6574 37.692C10.6051 37.6427 10.4333 37.3648 10.2615 37.1646C10.0255 36.8853 9.78048 36.6732 9.78048 36.6732C9.78048 36.6732 9.78646 36.4834 9.71176 36.1906C9.68039 36.0696 9.57731 35.9128 9.54295 35.7768C9.50859 35.6364 9.52353 35.481 9.48917 35.3496C9.39356 35.0105 9.23073 34.7595 9.03802 34.7909C8.87817 34.8163 9.16201 36.9032 9.16201 36.9032C10.2062 38.1984 10.6499 40.0837 15.036 41.482C17.1737 42.58 28.0238 47.5263 29.0516 46.966C29.6283 46.6508 32.4652 42.22 34.5596 38.781C33.5467 38.2731 31.4 37.1871 30.2228 36.5611C29.083 38.9469 27.4681 41.9824 27.0797 42.1184C26.9781 42.1542 26.7525 42.1662 18.5167 39.5579C18.3106 39.4906 18.097 39.4249 17.8818 39.3562C17.3022 39.1724 16.6822 38.9752 16.0264 38.7646L14.8896 37.0317C14.8896 37.0317 12.6517 34.6445 12.3022 34.8028C12.1438 34.8775 12.2499 35.1404 12.4217 35.4287L12.4277 35.4362C12.453 35.478 12.4799 35.5199 12.5053 35.5617C12.5068 35.5647 12.5098 35.5662 12.5098 35.5662C12.704 35.8709 12.9386 36.1682 12.9699 36.2594C13.0073 36.3624 13.0775 36.5761 13.0939 36.7942C11.1623 35.7425 11.4925 35.6767 11.0981 35.127C11.001 34.9881 10.8501 34.879 10.759 34.7475C10.6036 34.5205 10.5917 34.2486 10.4677 34.0753C10.2854 33.8243 10.015 33.7212 9.93435 33.7153C9.83277 33.7048 9.83725 33.8751 9.91045 34.1515C10.3765 35.8007 11.4013 36.6448 11.5866 37.0317C11.7106 37.2931 11.3057 36.9615 10.8665 36.2892C10.756 36.1219 10.5349 35.9651 10.4169 35.7215C10.3362 35.5602 10.3228 35.3645 10.2466 35.2032C10.1764 35.0553 10.0703 34.9298 10.0061 34.8103C9.91941 34.6534 9.86862 34.3785 9.79243 34.2605C9.50859 33.8183 9.27704 33.6794 9.20085 33.6645C9.04101 33.6391 9.83575 36.0517 9.83575 36.0517C9.83575 36.0517 10.6873 37.4664 10.9173 37.7488C10.9158 37.7503 10.9771 37.9818 10.6574 37.692Z" fill="#F48C7F"/>
<path d="M47.422 16.8538C47.9075 14.6428 48.3841 12.4184 47.1023 9.99087C46.0655 8.0264 44.2714 6.89553 42.1964 6.64904C36.3149 5.95139 35.798 11.2069 30.2109 13.5075C27.8252 14.4905 25.3767 14.2096 23.2449 15.4794C19.3952 17.7725 17.35 24.2082 19.9031 30.2017C26.1565 44.8791 40.8997 35.2719 42.7954 32.3813C44.2056 30.2316 47.1083 18.2775 47.422 16.8538Z" fill="#5B2013"/>
<path d="M45.8848 26.5522C42.7297 27.5382 34.1862 30.3033 33.7589 30.2003L25.9728 24.0051L21.1833 28.2089C21.1833 28.2089 31.8691 36.122 32.4771 36.4118C32.9268 36.6255 42.3353 31.7778 46.7722 29.6102C46.7094 28.1656 46.5929 27.816 45.8848 26.5522Z" fill="#F48C7F"/>
<path d="M31.6406 27.4739L26.763 33.79C26.763 33.79 21.621 29.8372 19.7238 27.7114C17.4232 25.1314 14.9075 19.5921 15.2795 19.3904C16.3207 18.8213 18.569 18.3656 20.1197 18.7122C25.4857 19.9118 31.6406 27.4739 31.6406 27.4739Z" fill="#8FBF11"/>
<path d="M44.5253 37.3573L49.4611 34.5413C49.4611 34.5413 47.2202 25.094 43.2226 24.7907L44.5253 37.3573Z" fill="#8FBF11"/>
<path d="M23.9022 109.564C23.9022 109.564 23.4839 113.816 22.4068 114.597C21.3297 115.377 19.8956 118.266 20.6126 119.827C20.8367 120.316 21.2849 120.597 21.7958 120.755C23.3076 121.221 24.9165 120.437 25.5604 118.991C25.9204 118.183 26.2356 117.105 26.2998 115.749C26.4612 112.295 27.5383 110.538 27.5383 110.538L23.9022 109.564Z" fill="#F7A491"/>
<path d="M40.4454 111.305C40.4454 111.305 40.7846 115.595 40.5097 116.989C40.3618 117.736 39.5416 119.273 39.9181 119.975C40.2946 120.677 40.7248 120.854 40.7248 120.854L50.4903 121.01C51.0222 121.019 50.6711 120.677 50.2424 120.362C49.5402 119.847 48.9741 119.506 46.7317 118.424C46.5853 118.354 46.0535 118.017 45.8608 117.899C45.3738 117.601 44.8853 117.135 44.464 116.668C43.7634 115.889 43.7021 112.11 43.7021 112.11L40.4454 111.305Z" fill="#F7A491"/>
<path d="M48.0777 54.277C48.0777 54.277 49.3072 61.243 48.5005 65.8098C47.6923 70.3766 43.8172 112.706 43.8172 112.706L39.5103 112.948C39.5103 112.948 38.608 95.2663 38.7693 92.8074C38.9307 90.3484 40.2079 86.2328 40.2079 86.2328L39.7792 71.9557L45.214 53.2014L48.0777 54.277Z" fill="#256653"/>
<path d="M35.42 52.8115C35.42 52.8115 32.0289 57.9056 31.2222 62.1199C30.414 66.3356 31.8153 79.2906 30.2616 84.815C29.4206 87.8058 26.2341 92.4234 25.7501 96.2866C25.2661 100.151 23.3658 110.272 23.3658 110.272L27.6697 111.124L37.6728 85.8458L45.5202 62.9983L47.531 51.2309L35.42 52.8115Z" fill="#327F6B"/>
<path d="M38.1658 23.8315C38.1658 23.8315 35.8413 24.2154 34.1099 25.9095C30.3961 29.5441 36.2924 43.5628 36.6151 46.0217C36.9378 48.4807 33.9694 54.2172 33.9694 54.2172C33.9694 54.2172 45.0646 56.2683 48.0792 54.2769C48.0792 54.2769 48.4333 34.5472 48.1106 32.7903C47.7879 31.0335 44.1742 25.6137 43.5288 24.9101C42.8805 24.208 38.1658 23.8315 38.1658 23.8315Z" fill="#B4DB4D"/>
<path d="M39.6597 17.844C39.6597 17.844 39.6358 17.9755 39.594 18.201C39.3938 19.2781 38.6229 22.8515 38.1016 23.8345C37.4726 25.0221 40.2558 28.8076 42.9358 28.346C43.7335 28.2086 42.262 24.8668 42.3323 24.5127C42.4682 23.8345 42.652 22.9113 42.8387 21.9626C42.9448 21.4278 43.0523 20.8856 43.1524 20.3761C43.4392 18.9286 43.6723 17.7439 43.6723 17.7439L39.6597 17.844Z" fill="#F7A491"/>
<path d="M39.5955 18.201C39.6373 17.977 39.6612 17.844 39.6612 17.844L43.6768 17.7439C43.6768 17.7439 43.4437 18.9286 43.1569 20.3761C43.0568 20.8826 42.9492 21.4219 42.8447 21.9537C42.2247 21.8626 41.5764 21.5623 40.928 20.9946C40.2199 20.3761 39.7553 19.6322 39.476 18.8389C39.5223 18.5865 39.5641 18.3684 39.5955 18.201Z" fill="#F47458"/>
<path d="M42.0753 8.30115C42.0753 8.30115 40.438 8.52822 39.2518 10.0595C38.0657 11.5907 36.7869 16.3263 39.7344 18.9003C42.6803 21.4742 45.5919 18.5612 46.0236 15.4703C46.4554 12.381 46.3687 8.1906 42.0753 8.30115Z" fill="#F7A491"/>
<path d="M46.9663 14.4156C46.6137 15.0983 46.0237 15.4763 45.6472 15.2597C45.2707 15.0431 45.2513 14.314 45.6024 13.6328C45.9534 12.9501 46.545 12.5722 46.9215 12.7888C47.2979 13.0039 47.3189 13.7329 46.9663 14.4156Z" fill="#F7A491"/>
<path d="M42.5743 8.2294C42.5743 8.2294 40.0466 12.732 38.2375 12.9396C36.4284 13.1473 36.1909 15.5405 36.1909 15.5405C36.1909 15.5405 36.8378 10.028 38.6275 8.96439C40.4186 7.90223 42.5743 8.2294 42.5743 8.2294Z" fill="#5B2013"/>
<path d="M38.8291 14.0137C38.9755 14.8129 38.6797 15.5464 38.1688 15.651C37.6564 15.7555 37.1231 15.1923 36.9752 14.3931C36.8288 13.5939 37.1246 12.8604 37.6355 12.7558C38.1479 12.6512 38.6812 13.2144 38.8291 14.0137Z" fill="#F7A491"/>
<path d="M25.8562 118.23C23.5108 118.658 21.9497 117.288 21.137 116.263C20.5409 117.424 20.1749 118.874 20.6141 119.829C21.0011 120.67 22.0527 120.898 22.9416 120.931C23.8813 120.966 24.7597 120.474 25.2258 119.658C25.4424 119.276 25.668 118.801 25.8562 118.23Z" fill="#3C8F7C"/>
<path d="M45.8578 117.899C43.2749 118.561 41.3657 118.111 40.2991 117.681C40.0242 118.459 39.6582 119.436 39.8524 120.001C40.0899 120.691 40.4275 120.846 40.7248 120.854C43.0837 120.916 49.3655 121 51.1641 121.022C51.4151 121.025 51.554 120.733 51.3927 120.54C50.946 120.01 46.0505 118.015 45.8578 117.899Z" fill="#3C8F7C"/>
<path d="M28.844 38.7676L35.7487 39.5982C35.7487 39.5982 38.3078 32.804 37.8327 29.2351C37.3561 25.6647 36.0146 25.3032 35.2647 25.3271C33.1867 25.3973 31.2088 28.1655 29.8568 32.4918C28.5064 36.8181 28.844 38.7676 28.844 38.7676Z" fill="#CAF161"/>
<path d="M28.4585 112.442C28.4585 112.442 28.2315 116.447 28.23 116.456C28.1463 116.964 27.8192 118.221 27.8192 118.683C27.8192 120.42 35.547 117.209 33.8141 116.439C33.6573 116.369 32.8356 115.843 32.7848 115.252C32.7057 114.34 32.504 112.498 32.504 112.498L28.4585 112.442Z" fill="#F7A491"/>
<path d="M33.7962 116.421C33.7962 116.421 31.9826 116.953 31.0534 117.086C30.1242 117.219 28.8992 116.1 28.2419 116.402C27.5189 116.735 27.6593 120.654 27.6593 120.654C27.6593 120.654 37.7789 121.444 40.5142 120.562C41.5973 120.213 37.5055 117.658 33.7962 116.421Z" fill="#184655"/>
<path d="M11.4342 112.442C11.4342 112.442 11.2072 116.447 11.2057 116.456C11.122 116.964 10.7949 118.221 10.7949 118.683C10.7949 120.42 18.5227 117.209 16.7898 116.439C16.633 116.369 15.5678 115.449 15.517 114.859C15.4379 113.947 15.4797 112.498 15.4797 112.498L11.4342 112.442Z" fill="#F7A491"/>
<path d="M16.7719 116.421C16.7719 116.421 14.9583 116.953 14.0291 117.086C13.0999 117.219 11.8749 116.1 11.2176 116.402C10.4945 116.735 10.3078 120.57 10.3078 120.57C10.3078 120.57 21.0459 121.565 23.4809 120.86C24.5729 120.543 20.4797 117.658 16.7719 116.421Z" fill="#184655"/>
<path d="M23.6796 54.6193L26.9468 56.028L33.8187 88.8472L33.5393 113.45L28.0298 113.579C28.0298 113.579 25.4678 92.0576 25.4678 90.3889C25.4678 88.7217 13.5989 61.2028 13.5989 61.2028L23.6796 54.6193Z" fill="#355389"/>
<path d="M21.158 56.4254C21.158 56.4254 20.2452 81.321 20.2452 85.5831C20.2452 89.8451 18.944 113.809 18.944 113.809L11.2774 114.06C11.2774 114.06 10.8785 106.789 10.2869 96.0911C10.1943 94.4164 10.4064 91.0358 10.2869 89.3014C9.42794 76.8274 7.72939 65.084 8.54057 60.429C8.67054 59.6806 8.91703 57.7206 9.39508 57.2261C13.0118 53.4839 21.158 56.4254 21.158 56.4254Z" fill="#466EB6"/>
<path d="M12.0632 18.6105C12.0632 18.6105 8.25228 19.1408 7.24988 19.8773C6.1205 20.7064 4.86713 22.5633 4.86713 22.5633C4.86713 22.5633 9.54598 44.6774 9.55345 48.3986C9.55943 51.2774 8.5406 58.3464 8.5406 58.3464C8.5406 58.3464 22.6788 59.2383 28.0328 57.1259C28.0328 57.1259 26.3418 48.7183 26.3418 46.5104C26.3418 44.3024 24.319 24.2275 23.8589 22.8263C23.4421 21.555 22.6788 19.2678 20.0943 18.7046C17.5114 18.1414 12.0632 18.6105 12.0632 18.6105Z" fill="#AADD22"/>
<path d="M21.7809 41.1056L21.872 41.6329C21.9183 41.9048 22.1768 42.0856 22.4486 42.0393L33.3764 40.1465C33.6483 40.1002 33.8291 39.8418 33.7828 39.5699L33.6916 39.0425C33.6453 38.7706 33.3869 38.5899 33.115 38.6362L22.1872 40.529C21.9153 40.5768 21.7331 40.8352 21.7809 41.1056Z" fill="#13375B"/>
<path d="M6.28925 21.4594C7.57101 21.4221 8.70487 29.879 7.89219 30.7126C7.07952 31.5462 6.92415 41.9631 6.92415 41.9631L19.0187 41.6628L19.0202 41.6673C19.2562 41.5089 21.7898 39.8074 22.1528 39.4354C22.5323 39.0455 24.3787 39.2397 24.8672 39.7775C25.3557 40.3138 23.7812 39.8746 23.3465 40.1674C22.9117 40.4602 23.6721 41.1922 23.6721 41.1922C23.6721 41.1922 26.7376 41.6374 27.3351 41.0025C27.9327 40.3691 29.5282 39.295 29.7463 39.9299C29.8583 40.257 29.0352 41.249 28.5721 41.6643C29.1502 41.2311 29.8434 40.7709 30.0809 40.8516C30.5156 40.998 30.3349 41.5507 30.0988 41.7136C29.8628 41.8764 27.4308 43.7333 27.0498 43.8633C26.6778 43.9903 21.019 44.1307 20.0405 44.3473C20.0405 44.3473 4.09025 47.9789 3.18346 47.7519C2.38871 47.5532 1.59247 42.4486 1.59247 38.5376C1.59546 34.6251 2.28264 21.5745 6.28925 21.4594Z" fill="#F7A491"/>
<path d="M7.95197 19.5294C7.95197 19.5294 5.7201 20.0433 3.41652 22.6337C1.3206 24.988 0 38.1776 0 38.1776L7.23789 39.3473L7.81602 32.9669L9.75061 30.0478L7.95197 19.5294Z" fill="#CAF161"/>
<path d="M42.8492 24.5697C42.8492 24.5697 43.3541 24.02 44.2968 24.0872C45.2394 24.1544 46.4734 25.3465 46.6466 25.7738C46.7348 25.9934 46.1432 27.7308 45.8863 28.1132C45.7339 28.3388 45.3843 28.4523 45.2618 28.3328C45.1811 28.2552 45.2663 27.8593 45.2887 27.7741C45.332 27.6083 45.6457 26.5342 45.6457 26.5342C45.6457 26.5342 45.0362 27.6173 44.7539 27.6815C44.4701 27.7472 44.3132 27.5172 44.3296 27.4275C44.4163 26.9689 44.8898 26.0875 44.8898 26.0875C44.8898 26.0875 44.1758 27.1347 43.8262 27.0242C43.4751 26.9151 43.6215 26.5417 43.6738 26.4147C43.7261 26.2892 44.2146 25.5662 44.2146 25.5662C44.2146 25.5662 43.4408 26.6373 43.2899 26.2533C43.1973 26.0203 43.7037 25.0045 43.7037 25.0045L42.8492 24.5697Z" fill="#F7A491"/>
<path d="M11.2938 13.2745L11.8884 19.2545C11.8884 19.2545 14.7821 23.0788 16.5912 22.2333C18.1104 21.5237 17.3934 19.1514 17.3934 19.1514C17.3934 19.1514 17.1304 18.0922 16.7659 16.8747C16.5105 16.0247 16.2998 15.103 16.3148 14.4277C16.3521 12.786 11.2938 13.2745 11.2938 13.2745Z" fill="#F7A491"/>
<path d="M16.7554 16.8433C16.5045 16.0023 16.2983 15.0955 16.3133 14.4277C16.3521 12.7844 11.2923 13.2744 11.2923 13.2744L11.3655 14.0139C11.3954 14.096 11.4297 14.1752 11.4686 14.2484C12.5352 16.316 15.0733 17.4035 16.7554 16.8433Z" fill="#F47458"/>
<path d="M20.0943 4.15575C20.0943 4.15575 20.6844 7.53642 19.8478 9.79817C19.0112 12.0599 17.8863 13.3596 17.8863 13.3596L15.2287 4.24987L20.0943 4.15575Z" fill="#AC8851"/>
<path d="M20.6231 9.59937C20.3632 10.4061 19.7731 10.9379 19.304 10.787C18.8349 10.6361 18.6661 9.8608 18.9245 9.0541C19.1845 8.2474 19.7746 7.71558 20.2437 7.86646C20.7127 8.01735 20.883 8.79267 20.6231 9.59937Z" fill="#F48C7F"/>
<path d="M12.9565 4.52762C12.84 4.44396 10.0419 10.8677 11.24 13.1937C12.4381 15.5182 15.5021 16.6057 17.114 15.4987C18.8962 14.2737 20.9817 7.5393 18.8439 4.89213C16.7062 2.24197 12.9565 4.52762 12.9565 4.52762Z" fill="#F7A491"/>
<path d="M14.2278 0.34181C12.2618 0.964761 11.1758 1.57277 9.24566 3.36544C6.87187 5.57042 7.98183 9.41718 9.4563 11.3981C10.9308 13.3805 11.4835 15.1642 11.4835 15.1642C11.4835 15.1642 11.2878 12.9129 11.2759 12.4274C11.2654 11.9971 11.2639 10.5361 11.1967 10.1208C11.0174 9.02578 10.989 8.79274 11.618 8.10256C12.1005 7.56924 12.4605 6.0873 13.2358 5.20143L16.131 5.79002C16.131 5.79002 17.961 6.11718 19.2204 5.51963C22.8341 3.80016 19.44 -1.3672 14.2278 0.34181Z" fill="#AC8851"/>
<path d="M11.9391 9.11391C11.9571 9.96094 11.5717 10.6556 11.0787 10.6661C10.5872 10.6765 10.1734 9.99829 10.1554 9.15125C10.1375 8.30422 10.5229 7.60956 11.0159 7.5991C11.5089 7.58865 11.9212 8.26687 11.9391 9.11391Z" fill="#F7A491"/>
</svg>
