<svg width="142" height="98" viewBox="0 0 142 98" fill="none" xmlns="http://www.w3.org/2000/svg">
<g clip-path="url(#clip0)">
<path d="M71.4753 50.5716C71.4753 50.5716 76.7148 50.1596 79.1004 52.6252C86.1364 59.903 87.9721 70.2765 87.9721 70.2765H46.2175C46.2175 70.2765 48.3035 61.5139 49.8156 57.1581C51.3259 52.8023 56.7954 52.2387 56.7954 52.2387L71.4753 50.5716Z" fill="#BDF42C"/>
<path d="M66.3432 45.8906L66.8659 48.3631C67.1622 49.7594 68.395 50.759 69.8237 50.759C69.8118 50.6517 68.8514 56.5689 59.9116 58.3756C59.9116 58.3756 55.2051 59.0193 56.5656 53.0765L54.1987 48.8535L66.3432 45.8906Z" fill="#FFBEAC"/>
<path d="M46.4951 44.7447C46.4951 44.7447 42.737 49.109 42.6229 50.9735C42.5088 52.8381 46.633 53.5976 46.633 53.5976C46.633 53.5976 47.4163 51.6462 47.5543 50.9838C47.5543 50.9838 47.556 52.7138 47.1269 53.5329L48.3086 54.0062C48.3086 54.0062 50.0148 51.6308 49.7969 48.2542C49.5772 44.8741 48.7088 42.6213 46.4951 44.7447Z" fill="#BF743C"/>
<path d="M72.9637 40.9644C72.9637 40.9644 77.7196 44.2151 78.3088 45.986C78.8997 47.7569 75.1092 49.5534 75.1092 49.5534C75.1092 49.5534 73.8491 47.8693 73.546 47.2648C73.546 47.2648 73.9888 48.937 74.6154 49.6181L73.5937 50.3792C73.5937 50.3792 71.3341 48.5232 70.6751 45.2027C70.0178 41.8839 70.2783 39.483 72.9637 40.9644Z" fill="#BF743C"/>
<path d="M43.1712 33.1486C43.1712 33.1486 40.3616 21.1302 52.5247 16.8629C58.5067 14.7651 63.9437 14.6987 68.073 17.9357C71.9589 20.982 74.5131 26.2369 73.7093 31.1103L73.3603 33.2286L44.1809 37.0497L43.1712 33.1486Z" fill="#BF743C"/>
<path d="M71.1962 33.8058C71.1962 33.8058 72.0067 39.5068 71.3205 42.732C71.3205 42.732 68.1805 52.14 58.512 53.0731C46.3761 54.2446 41.6099 34.5329 46.3114 25.0296C51.0128 15.5262 63.13 18.2524 66.4828 22.1161C68.5654 24.517 70.8437 27.8324 71.1962 33.8058Z" fill="#FFBEAC"/>
<path d="M53.3287 38.9022C53.5058 39.849 53.0494 40.7293 52.3087 40.869C51.568 41.0086 50.8239 40.353 50.6451 39.4063C50.468 38.4595 50.9243 37.5792 51.6651 37.4395C52.4075 37.2999 53.1516 37.9555 53.3287 38.9022Z" fill="#513F33"/>
<path d="M64.0562 36.1285C64.2333 37.0753 63.777 37.9556 63.0363 38.0952C62.2955 38.2349 61.5514 37.5793 61.3726 36.6325C61.1955 35.6858 61.6519 34.8054 62.3926 34.6658C63.1333 34.5261 63.8774 35.1817 64.0562 36.1285Z" fill="#513F33"/>
<path d="M55.7601 41.4123C55.7635 41.3986 55.767 41.385 55.7704 41.3731C56.0224 40.6085 56.3987 40.1743 56.8891 40.0841C57.6281 39.9478 58.2377 40.6698 58.3058 40.7533C58.4319 40.9082 58.4097 41.1347 58.2531 41.2624C58.0981 41.3884 57.8699 41.3663 57.7422 41.2113C57.6145 41.0564 57.2705 40.7516 57.0202 40.7993C56.8159 40.8367 56.6184 41.1228 56.46 41.6013C56.397 41.792 56.1927 41.8959 56.0019 41.8329C55.8249 41.7733 55.7227 41.5911 55.7601 41.4123Z" fill="#513F33"/>
<path d="M64.1723 32.0775C64.1144 32.0996 64.0463 32.0962 63.9782 32.0621C63.9016 32.023 62.1 31.1409 61.0545 32.4981C60.9574 32.6241 60.7803 32.6156 60.6577 32.4776C60.5351 32.3397 60.5164 32.1269 60.6134 32.0008C61.8922 30.344 64.0344 31.3998 64.1263 31.4457C64.2762 31.5224 64.3647 31.7216 64.3256 31.8919C64.3017 31.9855 64.2455 32.0502 64.1723 32.0775Z" fill="#513F33"/>
<path d="M51.7075 34.5397C51.6666 34.5669 51.6087 34.572 51.544 34.5482C51.4708 34.521 49.7475 33.9114 49.2725 35.3077C49.2282 35.4371 49.08 35.4507 48.9421 35.3366C48.8042 35.2225 48.7276 35.025 48.7718 34.8956C49.3525 33.1894 51.4044 33.9216 51.4912 33.9539C51.636 34.0067 51.7637 34.1838 51.779 34.3473C51.7875 34.4375 51.7603 34.5056 51.7075 34.5397Z" fill="#513F33"/>
<path d="M71.7823 40.9899C73.3998 40.9338 74.6437 38.9477 74.5605 36.5538C74.4774 34.1599 73.0988 32.2649 71.4813 32.321C69.8638 32.3772 68.6199 34.3633 68.703 36.7572C68.7861 39.151 70.1647 41.0461 71.7823 40.9899Z" fill="#FFBEAC"/>
<path d="M47.82 39.5392C48.7498 41.5502 48.4024 43.6906 47.0435 44.319C45.6847 44.9473 43.8286 43.8268 42.8972 41.8158C41.9675 39.8048 42.3149 37.6644 43.6737 37.036C45.0325 36.4077 46.8886 37.5282 47.82 39.5392Z" fill="#FFBEAC"/>
<path d="M71.4806 32.321L71.0685 32.3755C70.8795 32.304 57.3098 25.9781 55.0229 18.6952C55.0229 18.6952 62.6703 16.8493 67.0907 20.4831C71.5129 24.1186 71.4806 32.321 71.4806 32.321Z" fill="#BF743C"/>
<path d="M55.0246 18.6951C55.0246 18.6951 48.8536 34.4597 44.6971 36.8743C44.6971 36.8743 42.9228 30.7901 44.3514 27.3147C45.7784 23.8427 49.3355 18.6116 55.0246 18.6951Z" fill="#BF743C"/>
<path d="M56.46 46.1818C56.6575 46.1818 56.867 46.175 57.0883 46.1597C60.5144 45.9179 62.1712 43.2683 62.2393 43.1559C62.3159 43.0299 62.2768 42.8647 62.1508 42.7881C62.0248 42.7115 61.8596 42.7507 61.783 42.8767C61.7642 42.909 60.1908 45.4036 57.0509 45.625C54.025 45.8395 53.6435 44.4228 53.6282 44.3615C53.5925 44.2185 53.4494 44.1299 53.3064 44.1623C53.1633 44.1946 53.0731 44.336 53.1055 44.479C53.1225 44.5539 53.5158 46.1818 56.46 46.1818Z" fill="#513F33"/>
<path d="M109.842 42.8306C109.842 42.8306 117.543 42.0559 123.73 47.5678C129.916 53.0781 130.973 70.2765 130.973 70.2765H71.5454C71.5454 70.2765 75.2218 48.7632 91.5006 45.3167C107.781 41.8703 109.842 42.8306 109.842 42.8306Z" fill="#FF9C2A"/>
<path d="M104.594 81.1506V82.5877L123.73 70.2321V68.7933L104.594 81.1506Z" fill="#E8D8B6"/>
<path d="M79.4209 82.5878C79.6882 82.5469 87.0154 80.18 92.7556 80.1885C99.4119 80.1987 104.592 82.5878 104.592 82.5878V81.1489C104.592 81.1489 99.8869 78.7479 92.7539 78.7479C85.6208 78.7479 79.4192 81.1472 79.4192 81.1472V82.5878H79.4209Z" fill="#E8D8B6"/>
<path d="M56.5896 80.4763C56.5896 80.4763 61.8768 80.1783 67.6153 80.1868C74.2716 80.197 79.4209 82.5861 79.4209 82.5861V81.1472C79.4209 81.1472 74.8522 78.7479 67.6153 78.7479C60.3783 78.7479 56.5896 79.0374 56.5896 79.0374V80.4763Z" fill="#E8D8B6"/>
<path d="M104.594 81.1506C104.594 81.1506 99.4136 78.7598 92.7573 78.7513C87.0188 78.7428 79.6917 81.1097 79.4226 81.1506L99.1769 68.3948C99.4442 68.354 106.771 65.9871 112.512 65.9956C119.168 66.0058 124.348 68.3948 124.348 68.3948L104.594 81.1506Z" fill="white"/>
<path d="M79.4208 81.1507C79.4208 81.1507 74.2716 78.7599 67.6153 78.7514C61.8768 78.7429 56.5896 79.0409 56.5896 79.0409L76.3439 66.2851C76.3439 66.2851 81.6311 65.9871 87.3696 65.9957C94.0258 66.0059 99.1751 68.3949 99.1751 68.3949L79.4208 81.1507Z" fill="white"/>
<path d="M104.312 78.5266C104.285 78.5266 104.258 78.5232 104.232 78.5146C102.102 77.842 98.7578 77.0366 94.9196 77.0315C94.9094 77.0315 94.8992 77.0315 94.889 77.0315C92.786 77.0315 90.225 77.3516 87.2757 77.98C87.1293 78.0106 86.9897 77.9187 86.9573 77.7739C86.9267 77.6292 87.0186 77.4861 87.1633 77.4555C90.1654 76.8152 92.7792 76.5002 94.9213 76.4951C98.8276 76.5002 102.23 77.3193 104.396 78.0038C104.537 78.0481 104.615 78.1996 104.569 78.3393C104.532 78.4533 104.426 78.5266 104.312 78.5266Z" fill="#828B88"/>
<path d="M107.231 76.1851C107.204 76.1851 107.176 76.1817 107.151 76.1732C105.021 75.5006 101.676 74.6952 97.8383 74.6901C96.006 74.6935 94.167 74.8689 92.0572 75.2622C91.9108 75.2878 91.7712 75.1924 91.7456 75.0477C91.7184 74.9029 91.8137 74.7616 91.9602 74.7361C94.087 74.341 95.9447 74.1554 97.7991 74.1554C97.8127 74.1554 97.8263 74.1554 97.84 74.1554C101.746 74.1605 105.148 74.9796 107.314 75.6641C107.456 75.7084 107.534 75.8599 107.49 75.9995C107.451 76.1119 107.345 76.1851 107.231 76.1851Z" fill="#828B88"/>
<path d="M111.742 73.5237C111.713 73.5237 111.684 73.5186 111.655 73.5084C111.641 73.5033 110.187 73.006 107.517 72.6774C105.053 72.3726 101.021 72.1529 95.7985 72.8324C95.6537 72.8511 95.5175 72.7472 95.4988 72.6008C95.48 72.4543 95.5839 72.3198 95.7303 72.3011C101.019 71.6131 105.108 71.8396 107.606 72.1495C110.323 72.4867 111.771 72.9822 111.83 73.0043C111.97 73.0537 112.043 73.2053 111.996 73.3449C111.958 73.4556 111.854 73.5237 111.742 73.5237Z" fill="#828B88"/>
<path d="M116.382 71.1671C116.355 71.1671 116.327 71.1636 116.302 71.1551C116.15 71.1075 115.987 71.053 115.811 70.9968C113.518 70.2424 109.247 68.8376 100.166 70.2067C100.021 70.2288 99.8833 70.1283 99.8612 69.9819C99.8391 69.8355 99.9395 69.6992 100.086 69.6771C109.295 68.2893 113.642 69.7197 115.98 70.4876C116.154 70.5438 116.314 70.5966 116.465 70.646C116.607 70.6903 116.685 70.8418 116.639 70.9814C116.602 71.0938 116.496 71.1671 116.382 71.1671Z" fill="#828B88"/>
<path d="M80.6486 80.6261C80.56 80.6261 80.4749 80.5835 80.4238 80.5035C80.3438 80.3792 80.3795 80.214 80.5038 80.1323L98.414 68.5685C98.5383 68.4885 98.7034 68.5242 98.7835 68.6485C98.8635 68.7728 98.8277 68.938 98.7034 69.0197L80.7933 80.5835C80.749 80.6125 80.6979 80.6261 80.6486 80.6261Z" fill="#E8D8B6"/>
<path d="M81.287 78.2303C81.2495 78.2303 81.2104 78.2218 81.1746 78.2047C81.1235 78.1809 75.9964 75.8395 69.4814 75.8293C68.1515 75.8259 66.7399 75.8413 65.284 75.8719C65.2823 75.8719 65.2806 75.8719 65.2789 75.8719C65.1341 75.8719 65.015 75.7561 65.0115 75.6097C65.0081 75.4615 65.1256 75.3389 65.2738 75.3355C66.7331 75.3049 68.1498 75.2895 69.4831 75.2929C76.1224 75.3032 81.35 77.6939 81.4011 77.7177C81.5356 77.7807 81.5935 77.9391 81.5305 78.0736C81.4862 78.1724 81.3892 78.2303 81.287 78.2303Z" fill="#828B88"/>
<path d="M84.5465 75.6812C84.509 75.6812 84.4699 75.6727 84.4341 75.6556C84.383 75.6318 79.2559 73.2904 72.7409 73.2802C71.3923 73.2785 69.9586 73.2938 68.4771 73.3245C68.4754 73.3245 68.4737 73.3245 68.472 73.3245C68.3273 73.3245 68.2081 73.2087 68.2047 73.0623C68.2013 72.9141 68.3187 72.7915 68.4669 72.7881C69.9534 72.7575 71.394 72.7404 72.7426 72.7438C79.3819 72.7541 84.6095 75.1448 84.6606 75.1686C84.7951 75.2316 84.853 75.39 84.79 75.5245C84.7457 75.6233 84.6487 75.6812 84.5465 75.6812Z" fill="#828B88"/>
<path d="M88.1102 73.2836C88.0727 73.2836 88.0335 73.2751 87.9978 73.2581C87.9467 73.2342 82.8195 70.8929 76.3046 70.8827C74.8197 70.8793 73.2225 70.898 71.5538 70.9372C71.5521 70.9372 71.5504 70.9372 71.547 70.9372C71.4022 70.9372 71.283 70.8214 71.2796 70.6749C71.2762 70.5268 71.3937 70.4042 71.5418 70.4008C73.2157 70.3616 74.8197 70.3429 76.3063 70.3463C82.9455 70.3565 88.1732 72.7472 88.2243 72.7711C88.3588 72.8341 88.4167 72.9924 88.3537 73.127C88.3077 73.2274 88.2106 73.2836 88.1102 73.2836Z" fill="#828B88"/>
<path d="M67.2066 94.5943L66.2717 95.1664L67.2066 97.9999L86.9489 85.2527C87.6726 84.7844 88.1102 83.9824 88.1102 83.1208V81.0978L67.2066 94.5943Z" fill="#345454"/>
<path d="M42.3285 80.1869H87.2741C88.1136 80.1869 88.4371 81.2818 87.7305 81.7381L66.5373 95.4219C66.5067 95.4423 66.4709 95.4526 66.4335 95.4526H19.281C19.0903 95.4526 19.0154 95.2039 19.1771 95.1001L42.2246 80.2192C42.2553 80.1971 42.291 80.1869 42.3285 80.1869Z" fill="#4C4FF9"/>
<path d="M56.0802 81.6938L51.3311 84.7605C51.1115 84.9036 51.2119 85.2441 51.4742 85.2441H64.768C65.1647 85.2441 65.5547 85.1301 65.8884 84.9138L70.6699 81.8266C70.8896 81.6836 70.7891 81.343 70.5269 81.343H57.2722C56.8482 81.343 56.4361 81.4639 56.0802 81.6938Z" fill="#00C0EA"/>
<path d="M24.4166 94.2963H65.5275C65.9345 94.2963 66.333 94.1788 66.6735 93.9574L78.1198 86.5451C78.4093 86.3578 78.2764 85.9083 77.9308 85.9083H36.0587C35.696 85.9083 35.3401 86.0138 35.0353 86.2114L24.1152 93.2831C23.6555 93.5811 23.8666 94.2963 24.4166 94.2963Z" fill="#00C0EA"/>
<path d="M16.5873 97.9999H67.2066L54.5786 59.7446C53.637 57.2091 51.2173 55.525 48.5115 55.525H3.76512C0.638766 55.525 -0.716669 57.4969 0.371425 60.4274L11.5674 94.3627C12.2792 96.532 14.3038 97.9999 16.5873 97.9999Z" fill="#4C4FF9"/>
<path d="M27.3557 77.963C27.3557 79.4819 28.5868 80.713 30.1057 80.713C31.6247 80.713 32.8558 79.4819 32.8558 77.963C32.8558 76.4441 31.6247 75.213 30.1057 75.213C28.5868 75.213 27.3557 76.4441 27.3557 77.963Z" fill="white"/>
<path d="M72.8241 22.3305C72.8241 22.3305 69.2652 6.54888 83.86 1.58179C98.4548 -3.3836 106.564 3.98275 111.398 14.6985L72.8241 22.3305Z" fill="#345454"/>
<path d="M100.069 35.1085L102.025 40.6239L107.185 42.8307C107.185 42.8307 108.609 56.7324 95.4407 55.44C95.4407 55.44 89.6631 54.1935 90.3272 47.0537L86.3665 40.4468L100.069 35.1085Z" fill="#FFBEAC"/>
<path d="M105.731 23.1513C105.731 23.1513 106.631 29.6748 105.731 35.2072C105.731 35.2072 100.828 48.1468 89.2099 48.1554C75.344 48.1656 70.3479 24.1475 75.9297 12.7625C81.5115 1.37582 96.0144 4.58221 100.042 9.19001C102.545 12.0524 105.284 16.0064 105.731 23.1513Z" fill="#FFBEAC"/>
<path d="M81.7093 29.3683C81.9255 30.4989 81.384 31.5547 80.4986 31.725C79.6131 31.8952 78.7191 31.1154 78.5029 29.983C78.2866 28.8506 78.8281 27.7966 79.7136 27.6263C80.599 27.456 81.493 28.2359 81.7093 29.3683Z" fill="#345454"/>
<path d="M95.2996 25.8997C95.5159 27.0321 94.9744 28.0861 94.0889 28.2564C93.2034 28.4267 92.3095 27.6468 92.0932 26.5144C91.877 25.3821 92.4185 24.328 93.3039 24.1577C94.1894 23.9875 95.0833 24.7673 95.2996 25.8997Z" fill="#345454"/>
<path d="M84.9395 32.9152C84.9327 32.9016 84.9259 32.8863 84.919 32.871C84.5819 31.9685 84.6074 31.2822 84.9991 30.831C85.5865 30.1516 86.6968 30.3678 86.8211 30.3951C87.0544 30.4445 87.2025 30.6743 87.1531 30.9093C87.1037 31.1443 86.8739 31.2925 86.6389 31.2431C86.4039 31.1937 85.8539 31.1664 85.6564 31.398C85.4946 31.5853 85.5218 32.0008 85.7347 32.5645C85.8181 32.7892 85.704 33.0395 85.481 33.123C85.2681 33.203 85.0382 33.1094 84.9395 32.9152Z" fill="#345454"/>
<path d="M94.7969 20.7656C94.7271 20.7912 94.6454 20.7878 94.5653 20.7486C94.4734 20.7026 92.3159 19.6554 91.0712 21.2833C90.9554 21.4331 90.7425 21.4246 90.5961 21.2595C90.4497 21.0943 90.4241 20.8406 90.5399 20.689C92.0622 18.7018 94.63 19.9551 94.7373 20.0096C94.9178 20.0998 95.0234 20.3382 94.9774 20.5409C94.9519 20.655 94.8838 20.7333 94.7969 20.7656Z" fill="#345454"/>
<path d="M79.9757 23.6332C79.9196 23.6537 79.8531 23.6452 79.7833 23.6009C79.705 23.5498 77.854 22.3868 76.9328 23.8921C76.8477 24.0317 76.6706 24.0079 76.5395 23.8376C76.4084 23.6673 76.3709 23.417 76.456 23.2773C77.5816 21.44 79.7833 22.8312 79.877 22.8908C80.0319 22.9913 80.1358 23.2297 80.1103 23.4255C80.0949 23.5345 80.0439 23.606 79.9757 23.6332Z" fill="#345454"/>
<path d="M84.2483 5.60569C84.2483 5.60569 84.4407 12.9754 93.9339 15.0358C97.0279 15.7085 99.863 17.3227 102.009 19.6522C103.682 21.4691 104.808 23.5754 103.524 25.3259L105.733 35.2073C105.733 35.2073 115.323 29.6834 112.133 17.0605C108.942 4.43927 95.4647 -3.71718 84.2483 5.60569Z" fill="#345454"/>
<path d="M94.8975 33.1519C94.8975 33.1519 95.8647 38.9347 91.5515 40.3293C87.2366 41.7256 84.2874 38.4681 84.2874 38.4681L94.8975 33.1519Z" fill="white"/>
<path d="M110.101 27.7465C111.089 25.0578 110.417 22.3371 108.6 21.6695C106.784 21.002 104.51 22.6405 103.522 25.3292C102.534 28.0178 103.206 30.7386 105.023 31.4061C106.839 32.0736 109.113 30.4352 110.101 27.7465Z" fill="#FFBEAC"/>
<path d="M84.2482 5.60554C84.2482 5.60554 82.2644 9.86427 80.5871 15.4818C79.7766 18.1944 79.1891 20.9666 76.5532 22.0002C75.2046 22.528 73.8764 22.7545 72.8257 22.3305C68.2333 20.4796 71.2898 8.44583 77.5272 5.24625C83.7646 2.04668 84.2482 5.60554 84.2482 5.60554Z" fill="#345454"/>
<path d="M123.482 23.09C123.482 23.09 123.757 26.4752 125.802 30.1141C127.567 33.2557 134.958 44.8638 139.874 52.5009C142.348 56.3441 141.222 61.4661 137.365 63.9199C132.797 66.8283 126.713 64.6197 125.073 59.4568L114.48 26.8685C114.48 26.8685 112.251 26.1635 111.008 22.0989C109.765 18.036 123.482 23.09 123.482 23.09Z" fill="#FFBEAC"/>
<path d="M119.454 26.9127C120.734 26.6062 123.13 26.5296 123.886 21.6902C124.642 16.8508 125.756 12.7777 125.969 12.2379C126.18 11.6981 125.758 6.34452 125.628 5.67872C125.497 5.01292 123.44 4.6979 123.464 6.0891C123.476 6.8162 123.498 8.28232 123.515 9.51855C123.534 10.8501 123.052 12.1375 122.165 13.1302L114.216 12.5836L113.775 14.6304C113.775 14.6304 113.271 11.3916 112.104 10.2048C110.938 9.01793 109.268 9.20013 109.358 10.9234C109.448 12.6466 110.223 18.3187 110.223 18.3187C110.223 18.3187 110.008 21.038 111.054 23.2193C112.816 26.8991 115.301 27.9072 119.454 26.9127Z" fill="#FFBEAC"/>
<path d="M122.691 13.6189L122.694 11.6522C122.699 9.43173 122.548 7.21468 122.245 5.01635L122.018 3.37995C121.906 2.73459 121.284 2.31059 120.642 2.4383C120.038 2.5592 119.633 3.13134 119.719 3.74265L120.283 7.72722L120.116 13.2426L122.691 13.6189Z" fill="#FFBEAC"/>
<path d="M120.143 13.7517L119.508 8.12566C119.495 8.00987 119.478 7.89408 119.454 7.77999L118.459 2.95934C118.296 2.33271 117.65 1.9598 117.026 2.13178L116.755 2.2067C116.118 2.38209 115.754 3.0513 115.955 3.68133L116.876 7.60631C116.949 7.92133 116.983 8.24486 116.976 8.5701L116.877 13.1575L120.143 13.7517Z" fill="#FFBEAC"/>
<path d="M113.741 14.8144L114.073 10.9269C114.096 10.6544 114.09 10.3803 114.056 10.1078L113.47 5.54939C113.311 4.89892 113.73 4.25015 114.389 4.12925L114.623 4.08668C115.23 3.97429 115.821 4.35742 115.964 4.96022L116.596 9.26662C116.608 9.34835 116.618 9.43179 116.625 9.51523L116.92 13.1541L113.741 14.8144Z" fill="#FFBEAC"/>
<path d="M69.7369 50.0455L69.284 50.3112C68.6284 50.696 68.5058 51.7058 69.0115 52.5674L79.729 70.8249L82.5591 69.1647L71.8416 50.9072C71.3341 50.0472 70.3925 49.6607 69.7369 50.0455Z" fill="#D35440"/>
<path d="M82.5591 69.1647C82.5608 69.1664 82.5608 69.1681 82.5625 69.1698L82.5608 69.1715L83.2794 73.4438C83.2981 73.5528 83.201 73.609 83.1159 73.5409L79.7358 70.83L79.7341 70.8317C79.7324 70.83 79.7324 70.8283 79.7324 70.8266C79.7358 70.8317 79.712 69.9207 80.7456 69.3145C81.7758 68.7066 82.5608 69.1698 82.5591 69.1647Z" fill="#FFBEAC"/>
<path d="M83.1157 72.3915L83.2877 73.4183C83.3099 73.5511 83.1924 73.6209 83.0868 73.5358L82.2746 72.8853L81.2376 72.0543C81.2376 72.0543 81.2324 71.5741 81.8557 71.2097C82.4772 70.8453 82.8944 71.082 82.8944 71.082L83.1157 72.3915Z" fill="#345454"/>
<path d="M71.6152 55.566C71.6152 55.566 76.0952 56.3204 77.3587 57.9687C78.6222 59.6187 80.5328 61.72 79.4855 62.9749C78.4383 64.2316 78.4383 64.2316 78.4383 64.2316C78.4383 64.2316 79.8704 66.3721 78.5813 67.4193C77.2923 68.4682 79.5281 71.0973 76.0442 70.578C72.5602 70.0586 67.8213 68.4938 68.0818 64.1976C68.3424 59.9031 69.502 55.0688 71.6152 55.566Z" fill="#FFBEAC"/>
</g>
<defs>
<clipPath id="clip0">
<rect width="141.185" height="98" fill="white"/>
</clipPath>
</defs>
</svg>
