<svg width="295" height="290" viewBox="0 0 295 290" fill="none" xmlns="http://www.w3.org/2000/svg">
<path d="M257.016 170.04L264.739 280.431H260.877L248.647 171.239L257.016 170.04Z" fill="#472A6A"/>
<path d="M175.89 170.04L168.166 280.431H172.028L184.258 171.239L175.89 170.04Z" fill="#472A6A"/>
<path d="M290.72 50.6178C290.72 50.6178 228.983 48.7888 224.984 49.0731C220.99 49.3574 217.294 62.2032 217.294 62.2032C217.294 62.2032 199.259 129.114 199.62 130.953C199.98 132.791 182.793 175.911 182.793 175.911C182.793 175.911 197.615 175.517 198.274 175.911C198.928 176.304 255.599 171.049 256.386 170.523C257.172 169.997 260.058 160.137 260.191 159.611C260.323 159.085 264.649 120.699 264.649 120.699L266.881 99.5371C266.881 99.5371 275.406 81.3796 275.538 81.3227C275.671 81.2658 283.541 65.359 284.067 64.5724C284.593 63.7859 292.724 54.9772 292.985 54.1858C293.246 53.3993 290.72 50.6178 290.72 50.6178Z" fill="#F36B80"/>
<path opacity="0.3" d="M290.72 50.6178C290.72 50.6178 269.435 49.9876 251.05 49.5232C258.196 53.7262 262.2 65.4869 259.229 86.407C256.703 104.185 253.893 123.476 242.701 146.613C236.934 158.53 212.11 151.854 191.763 153.034C187.38 164.411 182.793 175.915 182.793 175.915C182.793 175.915 197.615 175.522 198.274 175.915C198.928 176.309 255.599 171.054 256.386 170.528C257.172 170.002 260.058 160.141 260.191 159.615C260.323 159.089 264.649 120.704 264.649 120.704L266.881 99.5418C266.881 99.5418 275.406 81.3842 275.538 81.3274C275.671 81.2705 283.541 65.3637 284.067 64.5771C284.593 63.7905 292.724 54.9818 292.985 54.1905C293.246 53.3992 290.72 50.6178 290.72 50.6178Z" fill="#F36B80"/>
<path d="M171.516 178.27C171.383 176.157 172.975 174.338 175.079 174.195C181.675 173.745 195.943 172.727 210.617 171.333C238.745 168.666 248.918 166.481 252.557 165.339C253.813 164.946 254.779 163.923 255.101 162.643C256.087 158.71 256.665 150.551 257.153 143.723C258.992 117.818 262.02 75.1012 288.635 51.646C290.294 50.1819 292.852 50.4425 294.203 52.2004C295.43 53.802 295.222 56.0859 293.705 57.4174C269.459 78.7118 266.673 117.974 264.811 144.268C263.749 159.26 263.09 166.614 259.816 170.04C258.238 171.689 255.301 174.764 212.532 178.872C197.359 180.332 182.424 181.398 175.605 181.862C173.478 182.009 171.649 180.398 171.516 178.27Z" fill="#E25A74"/>
<path d="M174.573 24.8599C177.681 12.7438 182.628 7.9391 191.228 3.41392C197.815 -0.0498549 205.6 -1.16812 213.584 1.41905C229.865 6.6929 234.063 24.5377 235.708 33.7634C241.313 65.2169 267.621 91.9747 258.049 113.497C248.478 135.023 203.543 132.716 203.543 132.716L182.936 117.865C182.936 117.865 181.107 81.7066 181.102 78.7546C181.098 75.8026 173.293 76.0158 173.293 61.232C173.293 49.457 170.915 39.1131 174.573 24.8599Z" fill="#472A6A"/>
<path d="M120 69.3488C119.972 69.7137 119.55 69.9032 119.261 69.6805C117.029 67.9368 109.969 62.4923 109.4 62.9567C108.718 63.5158 114.906 68.5338 114.636 69.3014C114.366 70.0738 108.453 65.0226 107.822 65.7334C107.192 66.4442 112.736 70.8698 112.575 71.2631C112.414 71.6564 106.647 67.9889 106.027 68.1832C105.406 68.3774 111.082 73.0448 111.021 73.5802C110.959 74.1156 105.974 72.2013 105.756 72.6088C105.543 73.0163 105.33 73.258 115.328 80.7873L119.389 83.583L123.938 84.071L126.515 79.2047C126.515 79.2047 122.057 63.7054 121.426 63.5016C120.82 63.3215 120.455 63.7291 120 69.3488Z" fill="#FFB3C5"/>
<path d="M188.034 62.246C188.034 62.246 153.197 101.764 151.728 101.935C150.259 102.11 126.908 74.7601 126.908 74.7601C126.908 74.7601 118.54 81.7256 117.085 84.1374C117.085 84.1374 142.028 125.717 148.435 128.077C154.841 130.436 197.382 90.2973 197.382 90.2973L188.034 62.246Z" fill="#E1DDE7"/>
<path d="M183.968 113.122L184.385 113.34C184.385 113.34 184.423 113.013 184.489 112.445C184.318 112.677 184.143 112.9 183.968 113.122Z" fill="#F4A640"/>
<path d="M216.251 62.6299C214.474 64.402 213.252 66.6528 212.579 69.0741C210.205 77.5748 202.292 105.171 198.956 107.048C195.009 109.27 145.095 119.965 140.162 119.529C135.229 119.093 130.586 124.021 129.6 127.807H147.9H149.17H213.266C213.266 127.807 230.002 107.19 231.869 85.488C233.532 66.1647 224.515 54.3851 216.251 62.6299Z" fill="#FFB3C5"/>
<path d="M209.845 46.5193V60.4692C209.845 61.2463 209.404 61.9523 208.703 62.2792C206.575 63.279 201.813 64.9138 197.373 62.3077C196.772 61.957 196.421 61.2936 196.421 60.5971V47.9977L209.845 46.5193Z" fill="#FFB3C5"/>
<path d="M209.845 53.987V46.5193L196.421 47.9977V54.3377C198.937 55.0958 203.628 55.8587 209.845 53.987Z" fill="#EA94AD"/>
<path d="M187.597 44.1357C187.128 43.1691 186.744 42.1551 186.45 41.1031C185.612 38.2648 185.294 35.2939 185.223 32.7114C185.209 32.157 185.162 31.6074 185.105 31.0577C184.872 28.8354 185.038 26.5041 185.721 24.1444C187.905 16.5535 194.946 11.2038 202.831 11.1612C213.455 11.1043 221.619 20.0694 220.908 30.4086C222.074 29.8636 223.344 29.802 224.419 30.3754C226.48 31.4747 227.04 34.4599 225.67 37.0423C224.301 39.6248 221.515 40.8283 219.453 39.729C219.169 39.5774 218.913 39.3831 218.686 39.1651C217.188 47.898 209.526 54.1954 200.912 53.4562C196.7 53.0961 192.994 51.1154 190.312 48.1492C190.132 47.9738 189.943 47.7701 189.744 47.5379C188.872 46.5049 188.17 45.3535 187.597 44.1357Z" fill="#FFB3C5"/>
<path d="M164.309 247.513L165.133 268.191L155.202 268.258L154.254 248.731L164.309 247.513Z" fill="#FFB3C5"/>
<path d="M138.973 280.066L167.521 280.26C168.147 280.265 168.649 279.772 168.64 279.161L168.63 278.336C168.625 277.725 168.114 277.227 167.493 277.223L138.944 277.028C138.319 277.024 137.816 277.516 137.826 278.128L137.835 278.952C137.84 279.563 138.352 280.061 138.973 280.066Z" fill="#D1EAF2"/>
<path d="M167.137 267.992L168.232 276.446C168.364 277.488 167.782 278.431 167 278.426L139.849 278.241C139.143 278.237 138.441 277.801 138.067 276.986C137.679 276.152 137.593 274.901 138.792 273.223C141.194 269.873 149.174 269.106 153.055 266.263L165.702 266.348C166.408 266.358 167.014 267.054 167.137 267.992Z" fill="#AADD22"/>
<path d="M155.017 271.186C155.212 271.067 155.283 270.745 155.164 270.499C154.619 269.338 152.933 266.509 149.545 267.064C149.35 267.097 149.218 267.348 149.255 267.613V267.623C149.289 267.879 149.469 268.044 149.658 268.016C152.691 267.528 154.131 270.02 154.572 270.996C154.662 271.2 154.856 271.281 155.017 271.186Z" fill="white"/>
<path d="M152.207 272.252C152.401 272.134 152.472 271.812 152.354 271.565C151.809 270.404 150.122 267.575 146.734 268.13C146.54 268.163 146.407 268.414 146.445 268.679V268.689C146.478 268.945 146.658 269.111 146.848 269.082C149.88 268.594 151.321 271.087 151.761 272.063C151.851 272.266 152.046 272.347 152.207 272.252Z" fill="white"/>
<path d="M149.591 273.247C149.785 273.129 149.856 272.807 149.738 272.56C149.193 271.399 147.502 268.57 144.118 269.125C143.924 269.158 143.791 269.409 143.829 269.674V269.684C143.862 269.94 144.042 270.106 144.232 270.077C147.265 269.589 148.705 272.082 149.146 273.058C149.24 273.261 149.43 273.347 149.591 273.247Z" fill="white"/>
<path opacity="0.3" d="M159.75 278.379C161.831 271.57 165.508 270.84 167.526 271.011L168.232 276.446C168.365 277.488 167.782 278.431 167 278.426L159.75 278.379Z" fill="#AADD22"/>
<path d="M117.565 247.513L118.394 267.296L108.457 267.362L107.51 248.731L117.565 247.513Z" fill="#FFB3C5"/>
<path d="M92.2333 280.066L120.782 280.26C121.408 280.265 121.91 279.772 121.9 279.161L121.891 278.336C121.886 277.725 121.374 277.227 120.754 277.223L92.2048 277.028C91.5794 277.024 91.0771 277.516 91.0866 278.128L91.0913 278.952C91.1008 279.563 91.6078 280.061 92.2333 280.066Z" fill="#D1EAF2"/>
<path d="M120.394 267.992L121.488 276.446C121.621 277.488 121.038 278.431 120.256 278.426L93.1051 278.241C92.3991 278.237 91.6978 277.801 91.3235 276.986C90.9349 276.152 90.8496 274.901 92.0485 273.223C94.4508 269.873 102.43 269.106 106.311 266.263L118.958 266.348C119.664 266.358 120.275 267.054 120.394 267.992Z" fill="#AADD22"/>
<path d="M108.272 271.186C108.467 271.067 108.538 270.745 108.419 270.499C107.874 269.338 106.187 266.509 102.799 267.064C102.605 267.097 102.472 267.348 102.51 267.613V267.623C102.544 267.879 102.724 268.044 102.913 268.016C105.946 267.528 107.386 270.02 107.827 270.996C107.922 271.2 108.111 271.281 108.272 271.186Z" fill="white"/>
<path d="M105.462 272.252C105.656 272.134 105.728 271.812 105.609 271.565C105.064 270.404 103.377 267.575 99.9894 268.13C99.7951 268.163 99.6624 268.414 99.7003 268.679V268.689C99.7335 268.945 99.9135 269.111 100.103 269.082C103.136 268.594 104.576 271.087 105.017 272.063C105.112 272.266 105.301 272.347 105.462 272.252Z" fill="white"/>
<path d="M102.852 273.247C103.046 273.129 103.117 272.807 102.999 272.56C102.454 271.399 100.767 268.57 97.379 269.125C97.1847 269.158 97.0521 269.409 97.09 269.674V269.684C97.1231 269.94 97.3032 270.106 97.4927 270.077C100.525 269.589 101.966 272.082 102.406 273.058C102.496 273.261 102.691 273.347 102.852 273.247Z" fill="white"/>
<path opacity="0.3" d="M113.011 278.379C115.091 271.57 118.768 270.84 120.787 271.011L121.493 276.446C121.626 277.488 121.043 278.431 120.261 278.426L113.011 278.379Z" fill="#AADD22"/>
<path d="M158.646 139.563C158.646 139.563 109.234 139.743 101.61 149.674C93.9857 159.606 88.1907 226.697 101.61 256.037C101.61 256.037 118.995 256.649 122.961 254.204C122.961 254.204 121.739 204.687 122.35 191.548C122.961 178.403 132.111 176.57 133.329 175.347C134.551 174.125 158.646 139.563 158.646 139.563Z" fill="#472A6A"/>
<path d="M164.234 211.548C163.788 207.416 163.21 202.053 162.585 195.978C161.466 184.051 160.059 176.901 161.552 177.048C173.454 178.199 205.832 172.419 224.956 168.68C236.594 166.406 243.251 153.711 238.077 143.022C237.428 141.681 236.646 140.501 235.708 139.563C226.776 130.645 208.343 133.507 208.367 132.261C104.046 140.97 127.032 158.881 136.817 220.717C136.874 220.983 136.926 221.248 136.983 221.513C141.229 241.964 145.232 258.795 145.232 258.795C145.232 258.795 160.485 259.406 169.327 257.269C169.332 257.355 166.574 233.203 164.234 211.548Z" fill="#5C407B"/>
<path d="M228.58 60.1706C225.183 56.9579 217.123 56.2235 209.674 56.3277C209.778 56.3704 209.84 56.3988 209.84 56.3988C203.306 63.6722 196.416 57.2517 196.416 57.2517C195.085 57.4128 194.303 57.5265 194.303 57.5265C194.303 57.5265 189.356 59.8768 184.016 66.5106C183.94 66.6053 178.206 72.7368 177.643 80.0197C177.24 85.2083 183.897 92.7898 183.897 95.756C183.897 98.7222 180.827 120.22 180.827 120.22L181.988 120.078C181.988 120.14 181.983 120.192 181.988 120.22C181.997 120.49 179.614 120.87 176.581 121.244C176.449 125.087 176.377 127.475 176.377 127.475V134.971C216.076 141.562 239.853 152.683 239.853 152.683C241.824 75.2624 229.111 60.6728 228.58 60.1706Z" fill="#F2F2F2"/>
<path d="M216.251 62.6299C214.474 64.402 213.252 66.6528 212.579 69.0741C210.205 77.5748 202.292 105.171 198.956 107.048C195.819 108.815 163.622 115.937 148.08 118.562C148.08 118.562 149.217 123.196 150.24 127.807H213.261C213.261 127.807 229.997 107.19 231.864 85.488C233.532 66.1647 224.515 54.3851 216.251 62.6299Z" fill="#E1DDE7"/>
<path d="M23.2324 68.6285H98.3504L119.65 120.727H155.837C156.851 120.727 157.671 121.547 157.671 122.561C157.671 123.575 156.851 124.395 155.837 124.395H48.1943L23.2324 68.6285Z" fill="#5C407B"/>
<path d="M60.4803 98.3574C60.9257 100.58 62.8542 102.063 64.7923 101.674C66.7303 101.286 67.9433 99.1724 67.4979 96.9501C67.0525 94.7278 65.1239 93.2447 63.1859 93.6332C61.2479 94.0218 60.0349 96.1351 60.4803 98.3574Z" fill="#AADD22"/>
<path d="M191.199 9.65906C191.199 9.65906 211.375 28.281 220.909 30.4038C220.909 30.4038 222.179 15.9611 222.056 15.4684C221.933 14.9756 209.968 3.60338 209.229 3.72658C208.49 3.84978 186.783 6.93922 186.783 6.93922L180.836 21.6472L191.199 9.65906Z" fill="#472A6A"/>
<path d="M179.751 13.6157L185.015 28.5417C185.015 28.5417 195.625 21.0313 199.714 13.6157C203.803 6.20014 189.124 8.91998 189.124 8.91998L179.751 13.6157Z" fill="#472A6A"/>
<path opacity="0.3" d="M203.614 42.6905C203.614 42.6905 201.614 42.1266 199.866 43.4629C199.866 43.4629 197.795 42.3588 196.317 43.6571C196.317 43.6571 197.25 46.5665 200.496 46.1353C203.737 45.7041 203.614 42.6905 203.614 42.6905Z" fill="#EA94AD"/>
<path d="M205.249 41.5059C204.903 41.8328 204.538 42.1361 204.149 42.4014C203.77 42.6762 203.372 42.9321 202.955 43.1501C202.126 43.586 201.245 43.913 200.33 44.0551C199.416 44.202 198.478 44.1546 197.573 43.9461C196.668 43.7234 195.8 43.3396 194.971 42.8658C195.346 43.1596 195.744 43.4249 196.165 43.6571C196.587 43.8893 197.037 44.0599 197.497 44.2115C197.961 44.3489 198.44 44.4389 198.928 44.4721C199.416 44.5005 199.904 44.4768 200.387 44.4058C201.349 44.2447 202.273 43.8893 203.093 43.3823C203.913 42.8847 204.656 42.2593 205.249 41.5059Z" fill="#EA94AD"/>
<path d="M288.502 289.115H3.03483C1.49795 289.115 0.255371 287.307 0.255371 285.081V285.066C0.255371 282.835 1.50122 281.031 3.03483 281.031H288.502C290.039 281.031 291.281 282.84 291.281 285.066V285.081C291.281 287.307 290.035 289.115 288.502 289.115Z" fill="#8B5DD0"/>
<path d="M19.9339 131.829H14.5132V280.284H19.9339V131.829Z" fill="#5C407B"/>
<path d="M71.0941 131.829H65.6733V280.284H71.0941V131.829Z" fill="#5C407B"/>
<path d="M225.837 131.829H220.417V280.284H225.837V131.829Z" fill="#472A6A"/>
<path d="M276.997 131.829H271.577V280.284H276.997V131.829Z" fill="#5C407B"/>
<path d="M289.877 133.583H2.38816C1.07088 133.583 0 132.512 0 131.195V126.508C0 125.191 1.07088 124.12 2.38816 124.12H289.877C291.194 124.12 292.265 125.191 292.265 126.508V131.195C292.265 132.512 291.194 133.583 289.877 133.583Z" fill="#AADD22"/>
<path opacity="0.5" d="M289.521 133.583H210.082C208.765 133.583 207.694 132.512 207.694 131.195V126.508C207.694 125.191 208.765 124.12 210.082 124.12H289.521C290.839 124.12 291.91 125.191 291.91 126.508V131.195C291.91 132.512 290.839 133.583 289.521 133.583Z" fill="#74B570"/>
</svg>
