<svg width="50" height="167" viewBox="0 0 50 167" fill="none" xmlns="http://www.w3.org/2000/svg">
<path d="M43.9644 52.1406C43.7926 52.735 43.6923 52.9305 43.473 53.3294C42.0623 55.8998 38.7865 59.5666 38.7865 59.5666L36.253 53.8577C36.253 53.8577 36.6652 52.064 37.3837 49.5041C39.83 50.1408 42.16 50.5106 43.9644 52.1406Z" fill="#F8A492"/>
<path d="M29.4374 47.1873C29.4374 47.1873 43.5708 53.274 44.0278 53.1577C44.3211 53.0838 49.8239 43.8719 49.8846 35.2122C49.9111 31.2126 45.7582 26.3993 41.1219 27.3503C38.7892 27.8285 38.8236 28.4784 35.3708 33.4951C31.9154 38.5118 29.4374 47.1873 29.4374 47.1873Z" fill="#8FBF11"/>
<path d="M17.3726 156.3C17.3726 156.3 17.7081 161.85 17.7108 161.861C17.8349 162.566 18.3184 164.307 18.3184 164.947C18.3184 167.353 6.89008 162.905 9.45259 161.837C9.68507 161.739 10.9003 161.01 10.9743 160.191C11.0905 158.929 11.389 156.377 11.389 156.377L17.3726 156.3Z" fill="#F7A491"/>
<path d="M9.48134 161.816C9.48134 161.816 12.1654 162.553 13.5391 162.735C14.9128 162.92 16.7251 161.37 17.6972 161.79C18.7671 162.249 18.7249 166.397 18.7249 166.397C18.7249 166.397 4.33782 167.578 0.29064 166.357C-1.31291 165.874 3.99439 163.531 9.48134 161.816Z" fill="#DD513A"/>
<path d="M40.7496 156.3C40.7496 156.3 41.0851 161.85 41.0877 161.861C41.2119 162.566 41.6953 164.307 41.6953 164.947C41.6953 167.353 30.267 162.905 32.8296 161.837C33.062 161.739 34.6365 160.466 34.7131 159.647C34.8294 158.384 34.7686 156.377 34.7686 156.377L40.7496 156.3Z" fill="#F7A491"/>
<path d="M32.858 161.816C32.858 161.816 35.542 162.553 36.9157 162.735C38.2894 162.92 40.1017 161.37 41.0739 161.79C42.1438 162.249 42.186 166.397 42.186 166.397C42.186 166.397 27.7329 167.773 23.6673 166.357C22.0875 165.808 27.371 163.531 32.858 161.816Z" fill="#DD513A"/>
<path d="M37.2568 55.2156L27.1917 41.1165C27.1494 40.9924 27.057 40.7414 26.917 40.3557C26.4098 38.9556 25.3557 36.0444 24.4364 33.149L24.4258 33.1173C24.1378 32.1055 23.5249 30.3381 22.9332 28.6316C22.2754 26.7321 21.4591 24.3757 21.43 23.9741C21.4564 23.9054 21.504 23.7813 21.5648 23.6175C21.9346 22.6585 22.4339 20.3787 22.6083 19.3854C22.7192 18.754 22.8328 17.2191 22.0825 17.2191C20.9017 17.2191 21.4644 18.7514 20.9202 19.7103C20.7194 19.071 20.3152 17.8003 20.1012 16.5164L19.9031 13.518C19.8661 13.2908 20.1065 11.6371 19.277 11.6371H19.2374C18.4924 11.6926 18.5109 13.4493 18.2018 16.424C18.104 16.0832 18.0063 15.6684 17.9323 15.2906C17.9403 15.0872 17.7923 14.1943 17.6814 13.7214C17.8319 12.8919 17.7448 11.5869 16.8624 11.7084C16.4212 11.7692 16.4556 13.5946 16.4556 13.5946C16.4609 13.8456 16.4873 15.7741 16.4714 16.1545C16.3816 15.5073 16.0276 12.7466 15.3355 12.7466C14.7622 12.7466 14.7147 13.489 14.7279 14.0781C14.7358 14.4268 15.0951 17.4146 15.1162 17.7633C14.8467 17.309 14.5245 14.6751 14.2576 14.6751C13.1375 14.6751 13.5417 18.4211 13.9538 19.3986C13.9935 19.499 14.0331 19.6945 14.0806 19.9217C14.2206 20.59 14.4558 21.7049 15.0396 22.7087C15.7423 23.9107 16.7118 25.8234 16.8598 26.1166C16.9681 26.7136 17.3036 28.8614 17.7289 31.5639C17.9112 32.721 18.1093 33.9864 18.3154 35.2994L18.326 35.2967C18.3629 35.582 18.5743 36.4855 19.3694 39.8749C20.4579 44.5139 20.5715 44.7146 20.6216 44.7992C21.0945 45.6366 31.9469 60.375 32.4092 61.0011L32.6813 61.371L37.2568 55.2156Z" fill="#F7A491"/>
<path d="M18.5367 22.331C18.5367 22.331 19.353 20.2414 20.8086 20.2387C20.8086 20.2387 19.9949 19.9455 19.3001 20.4976C18.6001 21.0498 18.5367 22.331 18.5367 22.331Z" fill="#F47458"/>
<path d="M39.6899 18.2943L40.9844 26.4891C40.9844 26.4891 36.0469 30.4543 33.17 29.6169C30.7555 28.9142 32.4118 25.7573 32.4118 25.7573C32.4118 25.7573 33.6984 21.3825 33.3048 19.0895C32.9085 16.7991 39.6899 18.2943 39.6899 18.2943Z" fill="#F7A491"/>
<path d="M38.7598 20.7723C37.5234 21.3561 35.0771 22.1539 33.1724 22.3468C33.3547 21.2002 33.4577 19.9877 33.3045 19.0921C33.1222 18.0354 34.4695 17.7844 35.9701 17.8214C37.9355 17.9905 39.6897 18.2969 39.6897 18.2969L39.938 19.8714C39.5629 20.2651 39.1719 20.5768 38.7598 20.7723Z" fill="#FE875E"/>
<path d="M45.9194 8.84209C46.1228 8.84209 43.9671 17.9958 40.6332 19.5703C37.2966 21.1448 32.3222 20.3232 31.3897 17.8584C30.3567 15.1321 34.1239 5.7935 38.8157 4.60735C43.5048 3.42119 45.9194 8.84209 45.9194 8.84209Z" fill="#F7A491"/>
<path d="M42.0595 0.433309C44.7251 1.96817 45.9456 4.24802 46.3577 5.18056C47.6072 5.77496 49.121 7.05621 49.8474 10.5169C50.7404 14.7675 47.565 18.046 44.1993 19.0313C40.8337 20.0167 40.3133 22.2437 40.3133 22.2437L39.9303 19.8476C39.9303 19.8476 40.6779 17.7606 41.8059 16.7171C42.9313 15.6736 41.2723 14.1494 41.127 12.9077C41.0134 11.9514 41.7187 10.0942 41.5655 8.52503C41.5655 8.52503 39.6951 5.69042 37.8512 4.99035C34.7101 3.79892 38.6411 -1.54009 42.0595 0.433309Z" fill="#13375B"/>
<path d="M40.6411 14.5034C40.2052 15.5601 40.3822 16.6115 41.04 16.8493C41.6952 17.0871 42.5802 16.4213 43.0161 15.3646C43.452 14.3079 43.275 13.2565 42.6172 13.0214C41.962 12.781 41.077 13.4441 40.6411 14.5034Z" fill="#F7A491"/>
<path d="M28.2163 55.4428L8.80198 52.278C8.80198 52.278 11.0105 46.7171 11.8004 46.7171C12.5903 46.7171 26.4807 52.7799 26.4807 52.7799L27.5849 54.999L28.2163 55.4428Z" fill="#F8A492"/>
<path d="M38.1632 68.7547C38.1632 68.7547 40.0996 78.1171 39.3097 85.2182C38.5199 92.3166 38.4591 117.538 38.4591 117.538L41.4707 157.888L34.3247 158.044C34.3247 158.044 25.8499 117.712 26.0085 118.747C26.167 119.78 23.1659 90.3485 23.1659 90.3485L33.268 67.8671L38.1632 68.7547Z" fill="#184655"/>
<path d="M36.2687 68.3108C36.2687 68.3108 37.5314 76.7407 35.9517 80.4391C34.3745 84.1376 22.4126 120.417 22.2541 123.373C22.0956 126.332 18.1198 159.026 18.1198 159.026L9.81141 158.794L8.01501 122.443L11.7795 76.7565L15.4331 65.2067L36.2687 68.3108Z" fill="#13375B"/>
<path d="M40.9844 26.4891C40.9844 26.4891 38.9344 27.8338 37.0244 27.6779C35.1144 27.522 32.4118 25.76 32.4118 25.76L32.787 24.4867C32.787 24.4867 37.7297 23.7655 37.8565 23.8447C37.9807 23.9213 40.9844 26.4891 40.9844 26.4891Z" fill="#F7A491"/>
<path d="M19.145 46.4424C19.145 46.4424 11.8009 53.3717 8.4855 52.1882C5.17009 51.0047 3.79901 46.9602 11.8881 41.0426C19.1265 35.7485 19.145 46.4424 19.145 46.4424Z" fill="#F8A492"/>
<path d="M14.1702 54.999C15.2612 49.063 23.168 30.5944 23.7994 27.1945C24.1058 25.5407 28.3723 25.5037 32.4327 25.7204C36.7229 25.9475 40.9867 26.4917 40.9867 26.4917C40.9867 26.4917 44.7856 27.1152 46.4552 28.6818C48.1274 30.2483 48.5712 34.5782 46.1672 42.7994C44.2704 49.2875 41.9192 52.8513 40.7569 57.58C40.5218 59.1651 40.3183 60.729 40.0515 62.5571C39.6236 69.6238 40.0568 78.9625 40.0568 78.9625C40.0568 78.9625 19.3797 83.2527 11.6446 76.7434C11.6446 76.7408 13.0527 61.0804 14.1702 54.999Z" fill="#B4DB4D"/>
<path d="M8.8977 42.2366C8.8977 42.2366 17.0106 48.9335 17.4834 48.9335C17.7872 48.9335 29.0623 40.641 31.6644 33.8279C33.1042 30.0607 30.0847 25.8471 26.6398 25.8603C24.2516 25.8709 23.1896 26.4864 18.453 30.4781C13.7163 34.4698 8.8977 42.2366 8.8977 42.2366Z" fill="#CAF161"/>
<path d="M35.1533 15.9325L32.4032 13.8772C32.4032 13.8772 31.6768 14.9894 32.8603 15.9272C34.3027 17.0738 35.1533 15.9325 35.1533 15.9325Z" fill="white"/>
</svg>
