<svg width="89" height="115" viewBox="0 0 89 115" fill="none" xmlns="http://www.w3.org/2000/svg">
<path d="M51.9452 8.06032C53.1676 5.11743 54.4118 2.16726 57.5856 0.677599C60.1542 -0.527743 62.8371 -0.0757396 65.1189 1.64236C71.5855 6.50504 65.95 11.861 73.3109 21.0809C75.5976 23.946 78.3655 26.2595 79.7361 29.6155C81.6535 34.3154 79.3692 36.5705 75.7094 38.8208C58.1907 49.5887 49.0072 27.4794 49.3377 22.4223C49.5832 18.6605 51.1579 9.95581 51.9452 8.06032Z" fill="#95462D"/>
<path d="M33.7655 65.3674C34.5042 65.2508 36.2977 63.9653 36.9319 63.8486C37.4228 63.7587 38.4848 63.5983 38.9368 63.5303C39.4909 61.4622 42.3049 50.1816 42.6209 46.8742C42.9635 43.2922 45.4957 27.7953 45.4957 27.7953L52.0546 28.9885C52.0546 28.9885 49.3304 40.9107 48.5771 46.6895C47.9307 51.6542 42.4823 62.8182 41.7898 63.9968C41.7898 64.026 41.7898 64.0527 41.7873 64.0819C41.6828 65.834 40.8371 65.2508 40.8371 65.2508L39.4641 65.6007C39.4641 65.6007 34.6112 66.0673 34.2928 66.184C33.9769 66.3006 33.0267 65.4841 33.7655 65.3674Z" fill="#F7A491"/>
<path d="M51.2114 18.7358C46.5747 20.3081 43.938 32.9132 43.938 32.9132C43.938 32.9132 51.2138 34.9448 53.0777 33.8779C53.0777 33.8779 55.1943 24.5001 55.9525 24.8282L51.2114 18.7358Z" fill="#99C030"/>
<path d="M15.3451 87.1462C13.9259 90.8886 13.1896 94.4925 13.124 94.9275C13.0924 95.1365 13.3889 96.1547 13.3597 96.371C10.5116 100.257 6.41926 101.105 2.91016 101.353C4.69873 99.6079 7.32326 97.953 7.44963 97.4014C7.65133 96.5217 8.7303 92.6019 9.2625 87.173C11.4448 88.1815 12.9247 87.382 15.3451 87.1462Z" fill="#F7A491"/>
<path d="M55.6996 45.2849L61.9669 62.9325C61.9669 62.9325 51.8965 64.828 48.1322 65.5181C44.368 66.2083 23.3328 67.1269 22.8006 67.5011C22.4045 67.7781 18.0594 81.8316 16.1202 89.5812C13.9185 90.0648 10.1494 89.484 8.14453 88.7939C9.22837 77.7052 13.1409 60.1403 14.3948 58.2278C16.4313 55.1123 55.6996 45.2849 55.6996 45.2849Z" fill="#256653"/>
<path d="M31.2188 94.8813C30.5262 98.823 30.4776 102.502 30.4947 102.942C30.5019 103.153 30.9831 104.096 30.9977 104.318C28.9272 108.667 25.0658 110.269 21.666 111.17C23.0949 109.122 25.3647 107.003 25.3841 106.437C25.4157 105.535 25.7438 101.484 25.248 96.0478C27.5834 96.631 28.8883 95.5691 31.2188 94.8813Z" fill="#F7A491"/>
<path d="M63.0145 46.201L65.4446 50.3517C69.1457 56.6725 66.3073 64.8037 59.4811 67.4525C59.4446 67.4671 59.4082 67.4816 59.3717 67.4938C55.8043 68.8765 35.3135 73.7222 34.8615 74.1888C34.5237 74.5363 32.8907 89.1535 32.4362 97.1292C30.3633 98.0186 26.5529 98.1522 24.4533 97.8485C23.4399 86.755 23.9915 68.7672 24.864 66.653C26.2832 63.2143 63.0145 46.201 63.0145 46.201Z" fill="#327F6B"/>
<path d="M30.1813 103.066C30.7256 102.463 32.7305 105.78 33.2311 106.488C33.7949 107.282 33.6345 107.882 33.5664 108.009C33.389 108.337 22.8277 114.551 20.2518 114.993C20.0088 115.034 19.5859 114.881 19.4814 114.786C18.4754 113.895 23.1072 107.316 25.1898 106.451C26.5312 105.89 27.7269 105.776 30.1813 103.066Z" fill="#13375B"/>
<path d="M12.7864 95.0466C13.4352 94.5558 14.7815 98.1888 15.1412 98.9786C15.5446 99.8656 15.2748 100.425 15.1849 100.534C14.9492 100.823 3.41095 104.947 0.798567 104.898C0.550695 104.894 0.166735 104.663 0.0792506 104.551C-0.742131 103.486 5.04156 97.8923 7.24812 97.433C8.67217 97.139 9.86779 97.2508 12.7864 95.0466Z" fill="#13375B"/>
<path d="M55.6099 18.6995C55.4908 18.6995 55.3183 18.6582 55.1433 18.6023C54.283 18.4492 52.3997 18.2232 50.9343 18.8405C49.153 19.5914 46.3924 26.6169 46.5552 33.8246C46.6208 34.9279 46.6889 35.9145 46.7448 36.6022C47.1943 42.0482 48.7569 52.2668 48.842 52.3203C50.9683 53.6884 63.7921 48.3835 64.6718 47.2195C65.5539 46.0554 66.074 31.9 66.5017 31.1928L67.3449 18.8818C65.8553 18.4419 57.8893 18.6849 55.6099 18.6995Z" fill="#AADD22"/>
<path d="M60.8053 14.1672C60.8053 14.1672 59.979 18.4369 60.1443 20.1234C60.3095 21.8075 59.5149 27.2364 55.9499 27.2558C52.3849 27.2728 55.2719 20.3543 55.6097 18.7018C55.945 17.0517 56.0252 11.9412 56.0252 11.9412L60.8053 14.1672Z" fill="#F7A491"/>
<path d="M55.9497 14.5026C56.0056 13.1053 56.0226 11.9388 56.0226 11.9388L60.8051 14.1673C60.8051 14.1673 60.6374 15.0397 60.4673 16.1527C58.375 16.5731 56.8586 15.7979 55.9497 14.5026Z" fill="#F47458"/>
<path d="M62.5526 2.38111C62.5526 2.38111 64.3947 3.40419 65.0678 5.61804C65.7409 7.83431 64.9755 13.55 60.2148 14.9303C55.4542 16.3106 53.3935 11.7833 54.3728 8.24257C55.357 4.70431 57.4882 0.223161 62.5526 2.38111Z" fill="#F7A491"/>
<path d="M53.7801 6.87201C53.8725 7.82218 54.3974 8.54879 54.9514 8.49533C55.5055 8.44187 55.8773 7.62534 55.785 6.67517C55.6926 5.72499 55.1677 4.99838 54.6136 5.05184C54.062 5.10774 53.6878 5.92183 53.7801 6.87201Z" fill="#F7A491"/>
<path d="M61.9961 2.09204C61.9961 2.09204 62.8588 8.46869 64.922 9.62056C66.9827 10.7724 66.12 13.6011 66.12 13.6011C66.12 13.6011 67.9912 7.03248 66.3606 4.92314C64.7276 2.81136 61.9961 2.09204 61.9961 2.09204Z" fill="#95462D"/>
<path d="M63.6994 10.5342C63.1405 11.3653 63.1429 12.3446 63.7043 12.7237C64.2656 13.1028 65.1745 12.7334 65.7334 11.9023C66.2924 11.0712 66.2899 10.0919 65.7286 9.7128C65.1672 9.33613 64.2584 9.70551 63.6994 10.5342Z" fill="#F7A491"/>
<path d="M56.7645 10.8915L60.1181 11.7347C60.1181 11.7347 59.7147 13.0081 58.2298 12.6801C56.417 12.2815 56.7645 10.8915 56.7645 10.8915Z" fill="white"/>
<path d="M88.2078 64.0942C88.147 63.9411 88.0133 63.9386 87.8773 63.9338C86.5504 63.8925 85.2236 63.8341 83.9064 63.6373C83.6877 63.6057 83.4714 63.5547 83.2697 63.4745C82.9028 63.3287 82.5431 63.3311 82.1713 63.4332C81.9721 63.4891 81.7679 63.4988 81.5614 63.4988C80.8931 63.4963 78.9903 62.8475 78.011 62.6774C77.7874 62.6385 77.61 62.4684 77.5541 62.2497C76.5918 58.4441 74.5286 49.9047 74.2613 47.0979C73.9186 43.5086 71.4399 27.3191 71.4399 27.3191L64.8057 29.1684C64.8057 29.1684 67.5371 41.1173 68.2905 46.9107C68.8737 51.3846 73.3451 60.8791 74.7473 63.6081C75.4326 65.6397 76.9684 65.6956 77.3257 65.7393C77.5298 65.7637 77.7169 65.8657 77.8506 66.0212C78.0936 66.3031 78.3706 66.5486 78.6865 66.7503C78.9223 66.8985 79.1021 67.0929 79.2576 67.3189C79.5395 67.7296 79.7922 68.1598 80.0401 68.5923C80.2054 68.8791 80.3779 68.969 80.6233 68.9009C80.8858 68.828 81.0122 68.6336 81.0073 68.3129C81 67.839 80.8493 67.4113 80.6112 67.0055C80.3876 66.6264 80.4046 66.4076 80.6647 66.0577C80.8129 65.8584 80.9684 65.664 81.1628 65.5036C81.3621 65.3408 81.5711 65.2193 81.8408 65.2558C82.3171 65.3748 82.7983 65.472 83.2868 65.5255L83.6877 65.6081C83.7023 65.6106 83.9064 65.6543 83.9064 65.6543C83.9405 65.664 84.6452 65.7394 84.8882 65.7418C85.0826 65.7418 85.3961 65.7539 85.6634 65.7685C85.9064 65.7807 86.4168 65.6543 86.4338 65.6543C86.6695 65.6494 86.8785 65.5644 87.0535 65.4064C87.1264 65.3408 87.1944 65.2703 87.1579 65.1586C87.1239 65.0565 87.0462 65.0152 86.9417 64.9957C86.7813 64.9666 85.9575 64.8669 85.9672 64.8329C86.2126 64.8329 86.9781 64.8159 87.2236 64.8086C87.5541 64.7989 87.8384 64.6823 88.0668 64.4368C88.164 64.342 88.2685 64.2473 88.2078 64.0942Z" fill="#F7A491"/>
<path d="M67.4231 18.8598C70.6965 18.2645 73.3988 32.9132 73.3988 32.9132C73.3988 32.9132 66.123 34.9448 64.2591 33.878C64.2591 33.878 62.1425 24.5001 61.3843 24.8282L67.4231 18.8598Z" fill="#AADD22"/>
</svg>
